<svg version="1.1" class="banner" xmlns:xlink="http://www.w3.org/1999/xlink" viewBox="0 0 400 100" preserveAspectRatio="xMinYMin meet" xml:space="preserve">
  <defs>
    <path id="guide" class="st3" d="M104,96.75c87,1.3,214-3.3,293.67-35.42"/>
  </defs>
  <g id="type">
    <text style="font-family:'Courier New';fill:#555;font-size:2.25em;text-transform:uppercase;">
      <textPath xlink:href="#guide" startOffset="5">[$banner]</textPath> 
    </text> 
    <path id="wire" style="stroke:#555;fill:none;stroke-dasharray:10 3;stroke-width:0.2" d="M9,92.67c0,0,39.3,3.25,95,4.08"/>
  </g>
  <g id="pidgy">
    <g class="brown">
      <path class="st0" d="M95.83,45.92c-2.7-5.55-1.13-25.4-3.57-31.05C87.29,3.33,78.18,4.73,75.28,5.48
        c-0.3,0.05-0.59,0.13-0.88,0.25c0,0,0,0,0,0c-0.16,0.02-0.29,0.09-0.4,0.19c-0.57,0.3-1.17,0.75-1.9,1.47
        c-0.55,0.55-0.73,1.17-0.81,1.79c-0.34,0.23-0.34,0.7-0.08,1.07c-0.03,0.33-0.07,0.65-0.16,0.97c0.9,0.75,2.68,1.85,2.9,2.41
        c0.31,0.79,0.12,1.75-0.7,2.07c-0.82,0.32-1.27-0.5-1.27-1.4c0-1.74-0.57-2.46-1.05-2.75c-0.1,0.33-1.91,1.13-2.18,1.4
        c-0.26,0.26-0.07,0.99-0.07,0.99c-0.96,1.35-1.49,2.87-0.99,3.36c0,0,2.15-1.08,3.94-1.08c1.62,0,3.34,0.72,3.34,4.36
        c0,1.16-0.82,3.43-2.32,6.36c-0.73,0.51-0.86,1.24-0.87,1.63c-0.09,0.16-2.06,1.83-4.43,5.59c-0.44,1-0.03,1.38-0.03,1.38
        s0.01,0,0.02,0.01c-1.52,1.89-2.77,3.13-2.77,3.13s7.54-0.06,13.63,6.03c6.09,6.09,6.03,13.41,2.9,16.54
        c0,0,10.07-10.13,12.8-10.13c0-0.03-1.12-5.9,1-3.55C93.71,45.15,93.98,43.65,95.83,45.92z M80.72,11.06
        c-0.13,1.02-0.95,1.76-1.83,1.65s-1.49-1.04-1.35-2.06c0.13-1.02,0.96-1.76,1.84-1.65C80.25,9.11,80.86,10.04,80.72,11.06z"/>
      <path class="st0" d="M91.32,59.72c0,0-9.12,8.01-18.06,12.18c-11.88,5.54-21.36,5.34-26.65,5.58c-1.7,0-1.93-2.03-1.88-2.22
        c-1.57,1.38-5.55,3.34-6.04,2.31c0.06-0.98,2.26-3.64,2.26-3.64s-6.51,4.91-8.13,3.29c-1.13-1.13,0.09-3.29,0.09-3.29
        s-9.82,8.61-11.9,6.54C19.97,79.42,25,73.5,25,73.5c-0.58,0.39-2.98,3.09-5.51,5.62c-2.53,2.54-10.73,7.49-11.1,7.71
        c-0.37,0.22-0.25,0.7-0.45,0.82c-0.21,0.13-1.05,0.98-0.93,1.19c0.1,0.17,1.35,0.14,2.79-0.03c0.93-0.11,18.83-9.33,21.89-9.97
        c4.22-0.14,10.74,0.76,11.9,0.88c0.78,0.13,1.82,0.25,3.16,0.33c-0.03,0.1-0.05,0.2-0.07,0.32c-0.17,1.08-1.04,2.86-1.99,4.11
        c0.07,0.39,1.32,1.84,1.71,2.08c0.85-1.18,1.88-2.45,4.11-4.07c1.67-1.21,3.11-2.23,4.45-2.54c0.76-0.18,3.91-0.04,4.76-0.19
        l-0.01,0c0,0-0.07,2.35,1.11,3.88c0.69,0.9,2.4,2.75,4.38,4.03c0.87,0.56,2.5,2.27,3.29,3.53c0.37,0.07,0.78,0.2,1.46-0.06
        c0.57-0.22,1.08-0.51,1.08-0.51c-0.77-1.15-1.88-4.26-2.59-6.79c-0.83-2.97-0.73-5.18,0.07-6.68l-0.01,0
        C82.12,71.41,91.32,59.72,91.32,59.72z"/>
      <path class="st0" d="M32.69,57.94c0,0-3.49,11.97,12.48,15.16c-11.24,0.61-19.26-0.43-19.26-0.43s-0.73-0.19,0.58-1.08
        c-1.77,0.23-4.39,0.62-5.2-0.31c0.96-1.08-3.62,0.19-4.55-0.81c2.12-1.62-3.2-0.81-4.63-1.62C11.54,66.42,12.49,61.4,32.69,57.94z
        "/>
    </g>
    <g class="blue">
      <path class="st2" d="M46.69,51.51c-2.08,7.63,10.25,22.97,27.67,14.72c-14.8,9.48-28.83-3.31-31.06-6.94
        c0,3.16,2.93,12.72,17.34,12.41c-18.42,3.47-25.44-8.25-22.51-15.72L46.69,51.51z"/>
      <ellipse class="st2" cx="79.09" cy="10.63" rx="0.82" ry="0.88"/>
    </g>
    <g class="red">
      <path class="st1" d="M84.27,94.34c-0.12-0.75-3.2-0.36-5.46-0.17c1.17-0.56,1.69-1.4,1.69-1.4s0.52-0.32,1.09,0.22
        c0.05-0.17,0.03-0.37-0.29-0.59c-0.33-0.22-0.87-0.19-0.87-0.19s-0.28-0.39-0.83-0.34c-0.39,0.04-3.64,1.25-5.64,1.06
        c-0.6-0.06-1.81-0.62-2.35-1.48c-0.8,0.5-1.69,0.71-2.79,0.6c0.21,0.57,0.3,1,0.21,1.12c-0.33,0.44-4.49,0.33-5.47,0.48
        c-0.98,0.15-0.93,1.21-0.93,1.21s0.11-0.07,0.34-0.37c0.43-0.26,0.26,0.29,1.07,0.69c0.81,0.41,4.97-0.01,5.93,0.2
        c0.96,0.22,1.15,0.76,1.6,1.37c0.45,0.61,1.2,1.12,1.96,1.36c0.24,0.08-0.45,0.81-0.45,0.81s0,0,0.31-0.05
        c0.31-0.05,1.15-0.47,1.31-0.81c0.38-0.78-0.42-2.08-0.42-2.08s7.85,0.11,9.18-0.09c1.33-0.2,1.14-0.73,1.14-0.73
        s0.36-0.33,1.65,0.5C85.73,94.39,84.81,94.41,84.27,94.34z"/>
      <path class="st1" d="M53.09,93.94c-0.46-0.44-1.03-0.49-1.21-0.51c-0.19-0.35-0.93-0.4-0.93-0.4s-0.24-0.24-0.63-0.34
        c-0.23-0.06-2.31,0.17-2.89-0.46c-0.73-0.78-1.4-2.01-1.76-2.72c-0.28-0.53-0.1-1.36,0.32-2.28c-0.32-0.14-0.66-0.38-1.03-0.79
        c-0.37-0.41-0.67-0.86-0.92-1.31c-0.36,0.49-0.67,0.8-0.82,0.79c-0.55-0.03-2.75-3.57-3.41-4.31c-0.66-0.74-1.52-0.11-1.52-0.11
        s0.37-0.03,0.59,0.05c0.54,0.18-0.1,0.58-0.09,1.31c0.13,0.95,2.74,4.15,3.09,5.07c0.35,0.92,0,1.38-0.26,2.09
        c-0.27,0.71-0.08,2.1-0.08,2.35c0,0.46-0.68,0.11-0.91,0.1c0.19,0.58,1.16,1.03,1.67,0.88c0.68-0.19,1.44-1.49,1.44-1.49
        s1.09,1.47,2.52,2.8c0.58,0.54,3.72,1.05,6.58,1.05c1.34,0,1.14-0.22,1.18-0.33c0.24,0,0.66,0.18,1.34,0.63
        c0.15-0.12-0.03-0.87-0.63-1.57C54.11,93.74,53.09,93.94,53.09,93.94z"/>
    </g>
  </g>
</svg>
