<?xml version="1.0" encoding="utf-8"?>
<!-- Generator: Adobe Illustrator 19.2.1, SVG Export Plug-In . SVG Version: 6.00 Build 0)  -->
<svg version="1.1" id="conf" xmlns="http://www.w3.org/2000/svg" xmlns:xlink="http://www.w3.org/1999/xlink" x="0px" y="0px"
	 width="458.7px" height="460px" viewBox="0 0 458.7 460" style="enable-background:new 0 0 458.7 460;" xml:space="preserve">
<style type="text/css">
	.st0{fill:#E42B25;}
	.st1{fill:#326E73;}
</style>
<path id="year" class="st0" d="M371.1,337.2c-38.3,0-48.5-19.8-48.5-63.9v-57.5c0-44.1,10.2-63.9,48.5-63.9
	c42.2,0,47.9,19.8,47.9,63.2v58.1C419,312.3,412.6,337.2,371.1,337.2 M371.1,385.7c73.5,0,102.8-35.1,102.8-113.1v-54.9
	c0-81.1-25.5-113.1-88.8-113.1c-29.4,0-47.9,6.4-62.6,24.3V88.7c0-37,9.6-59.4,46.6-59.4c28.1,0,40.9,13.4,43.4,39l57.5-15.3
	c-9.6-47.3-39-72.8-97.7-72.8c-79.8,0-104.1,43.4-104.1,109.2v184.6C268.2,354.4,300.8,385.7,371.1,385.7 M189,383.2h55.6V-16.7
	H134.7v49.8H189V383.2z"/>
<path id="coast" class="st1" d="M698.8,405h31.3v168.6c0,42.2,17.2,62.6,64.5,62.6h26.8V589H808c-20.4,0-25.6-5.1-25.6-25.5V405h39
	v-48.5h-39v-88.1h-52.4v88.1h-31.3V405z M636.8,638.8c54.9,0,80.5-23,80.5-73.5c0-42.8-25.6-61.3-63.9-91.3
	c-28.1-21.1-40.9-31.9-40.9-51.1c0-17.2,5.7-25.6,24.9-25.6c25.5,0,27.5,9.6,28.7,30l50.5-7.7c-3.8-45.4-24.9-67.7-79.8-67.7
	c-61.3,0-76.7,32.6-76.7,74.7c0,37.7,23,58.1,54.3,81.8c35.8,29.4,51.1,39.6,51.1,58.8c0,21.1-7,27.5-30,27.5
	c-24.3,0-28.7-7.7-31.9-40.9l-49.8,8.9C557.6,616.4,580.6,638.8,636.8,638.8 M462.4,594.7c-25.5,0-27.5-10.2-27.5-42.2
	c0-50.5,6.4-61.3,60.7-74.1v70.9C495.7,574.9,489.9,594.7,462.4,594.7 M443.3,638.8c29.4,0,40.9-9.6,52.4-24.3v21.7h51.1V427.4
	c0-50.5-13.4-75.4-76-75.4c-56.2,0-79.2,22.4-88.8,54.9l51.1,17.9c5.7-19.8,11.5-26.2,31.9-26.2c23.6,0,30.7,10.2,30.7,32.6v4.5
	c-97.7,17.2-113.1,47.3-113.1,118.2C382.6,615.2,394.7,638.8,443.3,638.8 M293.2,591.5c-23.6,0-33.2-10.9-33.2-42.2V442.1
	c0-31.9,8.3-42.2,33.2-42.2c25.5,0,33.2,9.6,33.2,41.5v107.9C326.4,580.7,317.4,591.5,293.2,591.5 M293.2,638.8
	c58.1,0,86.2-27.5,86.2-90.1V440.2c0-63.2-24.3-88.1-86.2-88.1c-62,0-86.2,26.2-86.2,90.1V550C206.9,612,235.7,638.8,293.2,638.8
	 M100.3,638.8c82.4,0,100.3-40.9,104.8-121.4l-55.6-5.1c-4.5,63.9-7.7,77.3-46.6,77.3c-38.3,0-46.6-20.4-46.6-63.2V341.8
	c0-42.2,14.7-58.1,44.7-58.1c43.4,0,43.4,17.9,45.4,75.4l57.5-5.1c-3.8-88.1-23-120.7-102.2-120.7C32.6,233.2,0,269.6,0,342.4v183.3
	C0,604.3,30,638.8,100.3,638.8"/>
</svg>
