<?xml version="1.0" encoding="utf-8"?>
<!-- Generator: Adobe Illustrator 19.2.1, SVG Export Plug-In . SVG Version: 6.00 Build 0)  -->
<svg version="1.1" id="rhd" xmlns="http://www.w3.org/2000/svg" xmlns:xlink="http://www.w3.org/1999/xlink" x="0px" y="0px"
	 width="460px" height="460px" viewBox="0 0 460 460" style="enable-background:new 0 0 460 460;" xml:space="preserve">
<style type="text/css">
	.st0{fill:#F2A6BD;}
	.st1{fill:#3D91B2;}
	.st2{fill:#F1BF1A;}
</style>
<path id="richard" class="st0" d="M424.5,83.1c-29.5,0-36.3-17.1-36.3-45.9V-76.7c0-32.9,7.5-45.9,35.7-45.9
	c26.1,0,36.3,11,36.3,39.8V42.6C458.8,65.9,451.2,83.1,424.5,83.1 M406.6,133.8c25.4,0,41.8-8.9,53.5-24v21.3h56.2v-439.6h-56.2
	v152.9c-13.7-15.1-31.5-18.5-52.8-18.5c-57.6,0-76.1,35.7-76.1,96.7V39.2C331.2,98.1,351.1,133.8,406.6,133.8 M208.5,131.1h56.2
	V-60.3c0.7-47.3,11.7-53.5,52.8-57.6v-51.4c-21.9,0.7-39.8,9.6-52.8,24v-24h-56.2L208.5,131.1L208.5,131.1z M82.3,86.5
	c-27.4,0-29.5-11-29.5-45.3c0-54.2,6.9-65.8,65.1-79.5v76.1C118,65.2,111.8,86.5,82.3,86.5 M61.7,133.8c31.5,0,43.9-10.3,56.2-26.1
	V131h54.9V-93.2c0-54.2-14.4-80.9-81.6-80.9c-60.3,0-85,24-95.3,59l54.9,19.2C56.9-117.2,63.1-124,85-124c25.4,0,32.9,11,32.9,35
	v4.8C13-65.7-3.4-33.5-3.4,42.6C-3.4,108.4,9.6,133.8,61.7,133.8 M-220.1,131.1h56.2V-73.3c0-42.5,11-49.4,40.5-49.4
	c23.3,0,30.9,11,30.9,37V131h56.2V-93.2c0-50.1-7.5-80.9-65.1-80.9c-30.2,0-48,10.3-62.4,24.7v-159.1H-220L-220.1,131.1
	L-220.1,131.1z M-338.7,133.8c61,0,83-24,92.6-89.8l-56.2-7.5c-4.8,41.8-11.7,46.6-35.7,46.6s-35-9.6-35-45.3V-77.4
	c0-32.9,6.2-45.3,32.2-45.3c28.8,0,33.6,8.9,35,52.1l58.3-8.2c-5.5-70.6-24.7-95.3-91.9-95.3c-70.6,0-90.5,35-90.5,96.7V38.5
	C-429.9,105.7-397.7,133.8-338.7,133.8 M-522.5-206.3h58.3v-67.9h-58.3V-206.3z M-521.1,131.1h55.5v-300.4h-55.5V131.1z
	 M-700.8-101.4v-144.7h30.9c47.3,0,54.2,17.1,54.2,57.6v30.2c0,44.6-6.9,56.9-53.5,56.9H-700.8z M-760.4,131.1h59.7V-50.7h30.9
	l50.7,181.7h61L-611-57.5c35.7-11.7,54.2-39.8,54.2-101.5v-28.8c0-91.9-38.4-110.4-115.2-110.4h-88.5L-760.4,131.1L-760.4,131.1z"/>
<path id="foundation" class="st1" d="M1223.5,734.5h56.2V530.1c0-42.5,11-49.4,40.5-49.4c23.3,0,30.9,11,30.9,37v216.7h56.2V510.2
	c0-50.1-7.5-80.9-65.1-80.9c-27.4,0-48,10.3-62.4,24.7v-19.9h-56.2L1223.5,734.5L1223.5,734.5z M1096.6,686.5
	c-25.4,0-35.7-11.7-35.7-45.3V526c0-34.3,8.9-45.3,35.7-45.3c27.4,0,35.7,10.3,35.7,44.6v115.9
	C1132.3,674.8,1122.7,686.5,1096.6,686.5 M1096.6,737.2c62.4,0,92.6-29.5,92.6-96.7V523.9c0-67.9-26.1-94.6-92.6-94.6
	S1004,457.4,1004,526v115.9C1004,708.4,1034.9,737.2,1096.6,737.2 M911.5,397.1h58.3v-67.9h-58.3V397.1z M912.8,734.5h55.5V434.1
	h-55.5V734.5z M746.9,486.2h33.6v181c0,45.3,18.5,67.2,69.3,67.2h28.8v-50.7h-14.4c-21.9,0-27.4-5.5-27.4-27.4V486.2h41.8v-52.1
	h-41.8v-94.6h-56.2v94.6H747L746.9,486.2L746.9,486.2z M637.9,689.9c-27.4,0-29.5-11-29.5-45.3c0-54.2,6.9-65.8,65.1-79.5v76.1
	C673.5,668.6,667.4,689.9,637.9,689.9 M617.3,737.2c31.5,0,43.9-10.3,56.2-26.1v23.3h54.9V510.2c0-54.2-14.4-80.9-81.6-80.9
	c-60.3,0-85,24-95.3,59l54.9,19.2c6.2-21.3,12.3-28.1,34.3-28.1c25.4,0,32.9,11,32.9,35v4.8c-105,18.5-121.4,50.7-121.4,126.8
	C552.2,711.8,565.2,737.2,617.3,737.2 M425.3,656.5c-29.5,0-36.3-17.1-36.3-45.9V496.7c0-32.9,7.5-45.9,35.7-45.9
	c26.1,0,36.3,11,36.3,39.8V616C459.6,639.3,452,656.5,425.3,656.5 M407.5,697.2c25.4,0,41.8-8.9,53.5-24v21.3h56.2V254.9H461v152.9
	c-13.7-15.1-31.5-18.5-52.8-18.5c-57.6,0-76.1,35.7-76.1,96.7v116.6C332,661.5,351.9,697.2,407.5,697.2 M116,694.5h56.2V490.1
	c0-42.5,11-49.4,40.5-49.4c23.3,0,30.9,11,30.9,37v216.7h56.2V470.2c0-50.1-7.5-80.9-65.1-80.9c-27.4,0-48,10.3-62.4,24.7v-19.9H116
	V694.5z M-41,697.2c26.7,0,47.3-9.6,62.4-23.3v20.6h56.2V394.1H21.4v203.7c-1.4,42.5-11.7,48.7-39.8,48.7c-23.3,0-31.5-11-31.5-37.7
	V394.1h-55.5v222.2C-105.4,666.3-97.9,697.2-41,697.2 M-230.2,686.5c-25.4,0-35.7-11.7-35.7-45.3V526c0-34.3,8.9-45.3,35.7-45.3
	c27.4,0,35.7,10.3,35.7,44.6v115.9C-194.6,674.8-204.2,686.5-230.2,686.5 M-230.2,737.2c62.4,0,92.6-29.5,92.6-96.7V523.9
	c0-67.9-26.1-94.6-92.6-94.6s-92.6,28.1-92.6,96.7v115.9C-322.8,708.4-292,737.2-230.2,737.2 M-513.5,734.5h59.7V528.1h102.2V476
	h-102.2V359.4h122.7v-54.2h-182.4V734.5z"/>
<path id="driehaus_1_" class="st2" d="M1505.3,429.5c59,0,86.4-24.7,86.4-78.9c0-45.9-27.4-65.8-68.6-98.1
	c-30.2-22.6-43.9-34.3-43.9-54.9c0-18.5,6.2-27.4,26.7-27.4c27.4,0,29.5,10.3,30.9,32.2l54.2-8.2c-4.1-48.7-26.7-72.7-85.7-72.7
	c-65.8,0-82.3,35-82.3,80.2c0,40.5,24.7,62.4,58.3,87.8c38.4,31.5,54.9,42.5,54.9,63.1c0,22.6-7.5,29.5-32.2,29.5
	c-26.1,0-30.9-8.2-34.3-43.9l-53.5,9.6C1420.2,405.5,1444.9,429.5,1505.3,429.5 M1266.6,429.5c26.7,0,47.3-9.6,62.4-23.3v20.6h56.2
	V126.4H1329v203.7c-1.4,42.5-11.7,48.7-39.8,48.7c-23.3,0-31.5-11-31.5-37.7V126.4h-55.5v222.2
	C1202.2,398.7,1209.7,429.5,1266.6,429.5 M1078.1,382.2c-27.4,0-29.5-11-29.5-45.3c0-54.2,6.9-65.8,65.1-79.5v76.1
	C1113.7,360.9,1107.5,382.2,1078.1,382.2 M1057.5,429.5c31.5,0,43.9-10.3,56.2-26.1v23.3h54.9V202.5c0-54.2-14.4-80.9-81.6-80.9
	c-60.3,0-85,24-95.3,59l54.9,19.2c6.2-21.3,12.3-28.1,34.3-28.1c25.4,0,32.9,11,32.9,35v4.8c-104.9,18.5-121.4,50.7-121.4,126.9
	C992.3,404.1,1005.4,429.5,1057.5,429.5 M775.7,426.8h56.2V222.4c0-42.5,11-49.4,40.5-49.4c23.3,0,30.9,11,30.9,37v216.7h56.2V202.5
	c0-50.1-7.5-80.9-65.1-80.9c-30.2,0-48,10.3-62.4,24.7V-12.8h-56.2v439.6L775.7,426.8L775.7,426.8z M617.9,218.3
	c0-30.2,4.8-46.6,35.7-46.6s32.9,16.5,32.9,45.9v28.8h-68.6L617.9,218.3L617.9,218.3z M655,429.5c69.3,0,78.2-35,85-83l-52.8-8.2
	c-3.4,33.6-5.5,43.2-32.9,43.2c-25.4,0-36.3-13-36.3-48v-39.8h124.1v-76.8c0-56.9-15.8-95.3-87.1-95.3c-70.6,0-92.6,33.6-92.6,96.7
	v115.9C562.4,400,591.2,429.5,655,429.5 M469.8,89.4h58.3V21.5h-58.3V89.4z M471.2,426.8h55.5V126.4h-55.5V426.8z M338.2,426.8h56.2
	V235.5c0.7-47.3,11.7-53.5,52.8-57.6v-51.4c-21.9,0.7-39.8,9.6-52.8,24v-24h-56.2V426.8z M140.7,374.7V50.3H188
	c41.1,0,52.8,19.2,52.8,58.3v200.9c0,45.9-11.7,65.1-52.1,65.1h-48L140.7,374.7L140.7,374.7z M81,426.8h107.7
	c85.7,0,112.5-46.6,112.5-117.9v-201C301.1,45.5,277.8-2.5,188-2.5H81V426.8z"/>
</svg>
