<?xml version="1.0" encoding="utf-8"?>
<!DOCTYPE svg PUBLIC "-//W3C//DTD SVG 1.1//EN" "http://www.w3.org/Graphics/SVG/1.1/DTD/svg11.dtd">
<svg version="1.1"  xmlns="http://www.w3.org/2000/svg" xmlns:xlink="http://www.w3.org/1999/xlink" x="0px" y="0px"
	 width="222.45px" height="80px" viewBox="0 0 222.45 80" style="enable-background:new 0 0 222.45 80;" xml:space="preserve">
<style type="text/css">
<![CDATA[
	.st0{fill:#EE3124;}
	.st1{fill:#5B9B98;}
	.st2{fill:#76645D;}
]]>
</style>
<g>
	<path class="st2" d="M167.06,45.07c-0.63,0.12-1.13,0.19-1.43,0.23c-0.98,0.13-4.95,1.46-6.67,1.71c-1.73,0.25-8.07,3.04-8.66,3.61
		c-0.58,0.57-0.36,1.49-0.36,1.49s-0.88,0.44-0.88,2.16c0,1.71,5.37,1.78,5.37,1.78l0.52,0.25c0.52,0.25,3.79,0.46,3.79,0.46
		l0.21,0.21c0.21,0.21,2.38,0.44,2.38,0.44s-0.09,0.1-0.23,0.23c5.71,0.37,11.98,0.34,16.86,0.34c0,0-5.27-0.67-9.96-5.23
		C165.64,50.44,166.07,47.46,167.06,45.07"/>
</g>
<g>
	<path class="st2" d="M209.07,5.16c-0.12,0.87-0.83,1.5-1.6,1.4c-0.77-0.1-1.3-0.88-1.18-1.75c0.12-0.87,0.84-1.5,1.61-1.4
		C208.66,3.51,209.19,4.29,209.07,5.16 M221.86,35.3c-0.48-0.62-0.5-1.67-0.15-1.24c0.36,0.43,0.58,0.54,0.58,0.54l-0.31-0.62
		c0,0-0.26-0.56-0.67-2.08c-0.07-0.27-0.15-0.61-0.22-1c0.27-7.38,0.19-17.68-1.93-22.48c-4.34-9.82-12.3-8.64-14.84-8
		c-0.26,0.05-0.51,0.11-0.77,0.21h0c-0.14,0.02-0.26,0.08-0.35,0.16c-0.5,0.25-1.03,0.64-1.66,1.25c-0.48,0.47-0.64,0.99-0.71,1.53
		c-0.3,0.2-0.3,0.59-0.07,0.91c-0.02,0.28-0.06,0.56-0.14,0.83c0.78,0.64,2.34,1.57,2.54,2.05c0.27,0.67,0.11,1.49-0.61,1.76
		c-0.72,0.27-1.11-0.43-1.11-1.19c0-1.48-0.5-2.09-0.92-2.34c-0.08,0.16-0.19,0.17-0.47,0.33c-0.4,0.23-1.21,0.64-1.44,0.87
		c-0.23,0.22-0.06,0.84-0.06,0.84c-0.84,1.15-1.3,2.44-0.87,2.86c0,0,1.88-0.92,3.44-0.92c1.41,0,2.92,0.61,2.92,3.72
		c0,0.99-0.71,2.92-2.02,5.42c-0.64,0.43-0.75,1.05-0.76,1.39c-0.08,0.14-0.15,0.27-0.23,0.41c-0.27,0.22-0.8,0.69-1.84,1.71
		c-0.77,0.76-1.54,1.95-1.8,2.64c-0.33,0.87-0.03,1.17-0.03,1.17s0.01,0,0.02,0.01c-1.32,1.61-2.42,2.67-2.42,2.67
		s6.59-0.05,11.91,5.13c5.32,5.18,5.27,11.41,2.54,14.07c0,0,8.8-8.62,11.18-8.62c0-0.02,0.12-1.24,0.24-3.19
		c0-0.45,0.12-1.09,0.74-0.59c0.54,0.44,0.89,0.6,0.89,0.6S222.34,35.92,221.86,35.3"/>
</g>
<g>
	<path class="st1" d="M206.84,4.94c0,0.4,0.34,0.73,0.75,0.73s0.75-0.33,0.75-0.73c0-0.41-0.34-0.74-0.75-0.74
		S206.84,4.53,206.84,4.94"/>
</g>
<g>
	<path class="st1" d="M203.59,52.08c0,0-11.35,6.01-20.4-2.81c-3.94-3.83-4.45-7.16-3.77-9.7c-2.11,1.1-4.58,1.86-6.95,3.41
		c-0.2,0.13-0.4,0.25-0.61,0.37c-0.66,1.87-0.97,4.46,0.56,7.25c1.48,2.7,6.36,8.42,19.27,6.15c0,0-7.71,0.58-12.25-3.84
		c-2.29-2.23-3.05-4.71-3.15-6.86c0.3,0.48,0.64,0.94,1.04,1.36C177.77,47.89,189.1,60.63,203.59,52.08"/>
</g>
<g>
	<path class="st0" d="M211.6,75.95c0,0,0.01-0.12-0.63-0.21c-0.64-0.09-3.59,0.22-3.59,0.22s0.54-0.35,1.03-0.61
		c0.49-0.25,0.58-0.51,0.58-0.51l0.34-0.05c0.34-0.05,0.49,0.17,0.49,0.17s0.02-0.31-0.26-0.51s-0.7-0.11-0.7-0.11
		s-0.43-0.33-0.77-0.35c-0.35-0.01-3.18,1.07-4.93,0.9c-0.52-0.05-1.58-0.53-2.05-1.26c-0.25,0.17-0.56,0.4-1.04,0.47
		c-0.48,0.07-0.95,0.08-1.4,0.04c0.19,0.49,0.26,0.85,0.18,0.96c-0.29,0.38-3.92,0.29-4.78,0.41c-0.85,0.12-0.81,1.03-0.81,1.03
		s0.1-0.06,0.29-0.32c0.2-0.26,0.55-0.08,0.55-0.08s0.16,0.43,0.39,0.67c0.22,0.24,4.34-0.01,5.18,0.17c0.84,0.18,1,0.64,1.4,1.17
		c0.39,0.52,1.43,1.19,1.61,1.32c0.17,0.13-0.29,0.53-0.29,0.53l0.27-0.04c0.28-0.04,0.95-0.43,1.14-0.68
		c0.2-0.26-0.11-0.71-0.11-0.71l-0.26-1.06c0,0,6.86,0.09,8.02-0.07s1.18-0.48,1.18-0.48l0.31-0.04c0.31-0.05,0.96,0.32,0.96,0.32
		s-0.19-0.72-0.84-1.18C212.4,75.57,211.6,75.95,211.6,75.95"/>
</g>
<g>
	<path class="st0" d="M184.95,75.73c0,0,0.04-0.12-0.57-0.34c-0.6-0.22-2.87-0.28-2.87-0.28s0.64,0.71,1.17,0.57
		c0.54-0.14,0.53-0.38,0.53-0.38l0.34,0.03c0.34,0.02,0.23,0.38,0.23,0.38s0.08-0.3-0.15-0.55c-0.23-0.26-0.66-0.26-0.66-0.26
		s-0.14-0.16-0.47-0.24c-0.2-0.05-2.01,0.14-2.53-0.39c-0.64-0.66-1.22-1.71-1.54-2.31c-0.24-0.46-0.09-1.16,0.28-1.94
		c-0.28-0.12-0.58-0.33-0.9-0.67c-0.32-0.35-0.59-0.73-0.81-1.12c-0.31,0.42-0.58,0.68-0.72,0.67c-0.48-0.03-2.4-3.04-2.98-3.67
		c-0.58-0.63-1.33-0.09-1.33-0.09s0.11,0.05,0.43,0.07s0.37,0.4,0.37,0.4s-0.28,0.37-0.37,0.68c-0.08,0.32,2.39,3.53,2.7,4.31
		c0.31,0.78,0,1.17-0.23,1.78c-0.23,0.61-0.24,1.82-0.25,2.03c-0.01,0.21-0.62,0.05-0.62,0.05l0.18,0.2
		c0.19,0.2,0.89,0.54,1.22,0.55c0.33,0.02,0.55-0.48,0.55-0.48l0.77-0.79c0,0,1.19,1.4,2.21,2.39c0.49,0.48,3.25,0.89,5.75,0.89
		c1.18,0,1.03-0.28,1.03-0.28l0.31,0.02c0.31,0.02,0.86,0.51,0.86,0.51s-0.02-0.74-0.55-1.34
		C185.82,75.53,184.95,75.73,184.95,75.73"/>
</g>
<g>
	<path class="st2" d="M186.61,64.04c0.62-0.02,1.23-0.06,1.84-0.11C187.88,63.86,187.27,63.89,186.61,64.04"/>
</g>
<g>
	<path class="st2" d="M218.32,46.59c0,0-7.97,6.82-15.78,10.37c-10.38,4.72-19.43,4.83-23.18,4.61c-1.49,0-1.96-0.8-1.88-1.05
		c0.03-0.08,0.1-0.27-0.15-0.02c-1.38,1.18-4.57,2.16-5,1.29c0.05-0.83,1.35-2.28,1.9-2.89c0.2-0.22,0.08-0.2,0.08-0.2
		s-5.76,4.28-7.18,2.9c-0.99-0.96-0.28-2.15,0.09-2.68c0.16-0.23,0.06-0.22,0.06-0.22s-8.58,7.33-10.4,5.56
		c-0.92-0.89,1.92-4.09,3.21-5.51c0.47-0.52,0.27-0.42,0.27-0.42c-0.46,0.38-2.6,2.63-4.81,4.79c-2.21,2.16-9.37,6.37-9.7,6.56
		c-0.33,0.19-0.26,0.57-0.39,0.7c-0.13,0.12-0.98,0.92-0.81,1.01c0.16,0.09,1.17-0.03,2.44-0.03c1.27,0,17.87-8.51,19.16-8.74
		c1.06-0.19,9.35,0.9,10.37,1.01c0.68,0.11,1.59,0.21,2.77,0.28c-0.02,0.08-0.04,0.17-0.06,0.27c-0.15,0.92-0.91,2.44-1.74,3.5
		c0.06,0.33,0.22,0.54,0.61,1.07c0.23,0.3,0.54,0.49,0.88,0.69c0.75-1.01,1.64-2.08,3.59-3.47c1.46-1.03,2.77-1.66,3.94-1.92
		c0.66-0.15,1.28-0.18,1.84-0.11h0h0c0.76-0.07,1.52-0.17,2.27-0.29l-0.01,0c0,0-0.06,2,0.97,3.3c0.6,0.76,2.1,2.34,3.83,3.43
		c0.76,0.48,2.19,1.93,2.88,3c0.32,0.05,0.68,0.17,1.27-0.05c0.5-0.19,0.95-0.44,0.95-0.44c-0.67-0.98-1.64-3.63-2.26-5.78
		c-0.72-2.53-0.64-4.41,0.06-5.69l-0.01,0C210.28,56.54,218.32,46.59,218.32,46.59"/>
</g>
<g>
	<path class="st2" d="M120.91,46.22v0.54h1.66v7.92h-1.66v0.54h7.24v-2.94h-0.58v1.19c0,0.32-0.11,0.6-0.32,0.85
		c-0.21,0.25-0.57,0.37-1.07,0.37h-3.03v-7.92h1.72v-0.54H120.91z M115.58,51.8h-3.54l1.72-4.98L115.58,51.8z M113.78,45.27
		l-3.35,9.4h-0.72v0.54h2.72v-0.54h-1.4l0.81-2.34h3.92l0.85,2.34h-1.4v0.54h2.75v-0.54h-0.72L113.78,45.27z M100.58,46.22v0.54
		h0.94l2.61,8.64h0.87l2.61-8.64h0.94v-0.54h-2.85v0.54h1.32l-2.46,8.05l-2.46-8.05h1.31v-0.54H100.58z M91.96,46.22v0.54h2.46v7.92
		h-2.46v0.54h5.49v-0.54h-2.45v-7.92h2.45v-0.54H91.96z M87.06,55.22v-0.54h-2.02v-7.92h1.42c0.29,0,0.52,0.02,0.7,0.05
		c0.17,0.04,0.31,0.1,0.4,0.2c0.09,0.1,0.15,0.24,0.18,0.42c0.03,0.18,0.04,0.42,0.04,0.71v1.04h0.58v-2.96h-7.25v2.96h0.58v-1.04
		c0-0.29,0.02-0.52,0.04-0.71c0.03-0.18,0.09-0.32,0.18-0.42c0.09-0.1,0.22-0.17,0.4-0.2s0.41-0.05,0.7-0.05h1.43v7.92h-2.02v0.54
		H87.06z M77.6,51.62c-0.25-0.32-0.55-0.58-0.92-0.76c-0.37-0.19-0.76-0.35-1.19-0.47c-0.43-0.12-0.82-0.26-1.19-0.41
		c-0.37-0.16-0.67-0.36-0.92-0.61c-0.25-0.25-0.37-0.6-0.37-1.05c0-0.31,0.07-0.58,0.21-0.8c0.14-0.22,0.32-0.4,0.55-0.54
		c0.23-0.14,0.47-0.24,0.75-0.3c0.27-0.06,0.55-0.1,0.82-0.1c0.32,0,0.64,0.06,0.95,0.17c0.31,0.12,0.54,0.32,0.7,0.62
		c0.11,0.2,0.17,0.42,0.18,0.65c0.01,0.24,0.02,0.46,0.04,0.68l0.57-0.08c-0.02-0.21-0.05-0.42-0.09-0.62s-0.05-0.41-0.03-0.62
		l0.12-1.42l-0.57-0.11l-0.09,0.69c-0.28-0.17-0.58-0.3-0.92-0.38s-0.65-0.13-0.98-0.13c-0.35,0-0.69,0.05-1.04,0.15
		c-0.34,0.1-0.64,0.25-0.91,0.44c-0.27,0.19-0.49,0.44-0.65,0.74S72.4,48,72.4,48.39c0,0.55,0.12,0.98,0.37,1.28
		c0.24,0.3,0.55,0.55,0.92,0.73c0.36,0.18,0.76,0.33,1.19,0.44c0.42,0.11,0.82,0.25,1.19,0.41c0.36,0.16,0.67,0.38,0.92,0.65
		c0.24,0.27,0.37,0.66,0.37,1.15c0,0.33-0.07,0.61-0.2,0.84c-0.14,0.23-0.31,0.42-0.52,0.56c-0.21,0.14-0.44,0.25-0.7,0.31
		c-0.25,0.07-0.51,0.1-0.76,0.1c-0.43,0-0.79-0.04-1.07-0.13c-0.28-0.08-0.52-0.21-0.69-0.37c-0.18-0.16-0.31-0.35-0.4-0.58
		c-0.09-0.23-0.15-0.47-0.19-0.74l-0.08-0.55l-0.55,0.07c0.05,0.2,0.09,0.41,0.12,0.62c0.03,0.21,0.04,0.42,0.02,0.63l-0.13,1.52
		l0.55,0.08l0.08-0.71c0.32,0.25,0.68,0.43,1.08,0.54c0.4,0.11,0.8,0.17,1.2,0.17s0.78-0.06,1.13-0.17
		c0.35-0.12,0.66-0.28,0.92-0.49c0.25-0.21,0.46-0.47,0.61-0.77c0.15-0.3,0.22-0.65,0.22-1.03C77.97,52.38,77.85,51.94,77.6,51.62
		 M68.61,55.22v-2.7h-0.58v0.35c0,0.37-0.01,0.67-0.04,0.91c-0.02,0.23-0.09,0.42-0.21,0.55c-0.11,0.14-0.29,0.23-0.53,0.28
		c-0.24,0.05-0.58,0.07-1.01,0.07h-2.7v-4.11H66v1.47h0.58v-3.32H66v1.3h-2.46v-3.27h2.76c0.33,0,0.59,0.02,0.79,0.06
		c0.19,0.04,0.34,0.12,0.44,0.23s0.16,0.28,0.19,0.49s0.04,0.49,0.04,0.83v0.22h0.58v-2.37h-6.93v0.54h1.54v7.92h-1.54v0.54H68.61z
		 M51.43,46.22v0.54h1.5v7.92h-1.5v0.54h4.78v-0.54h-2.7v-3.87h2.46v1.47h0.58v-3.31h-0.58v1.3h-2.46v-3.51h2.76
		c0.33,0,0.59,0.02,0.79,0.06c0.19,0.04,0.34,0.12,0.44,0.24s0.16,0.29,0.19,0.5s0.04,0.48,0.04,0.81v0.22h0.58v-2.37H51.43z
		 M41.92,54.64c-0.34-0.14-0.65-0.38-0.92-0.71c-0.27-0.32-0.5-0.75-0.67-1.27c-0.17-0.53-0.25-1.17-0.25-1.94
		c0-0.76,0.08-1.41,0.25-1.93c0.17-0.53,0.39-0.96,0.67-1.28s0.58-0.56,0.92-0.71c0.34-0.15,0.68-0.22,1.02-0.22
		c0.34,0,0.68,0.07,1.02,0.22c0.34,0.15,0.65,0.38,0.92,0.71c0.28,0.33,0.5,0.75,0.67,1.28c0.17,0.53,0.26,1.17,0.26,1.93
		c0,0.77-0.08,1.42-0.26,1.94c-0.17,0.52-0.39,0.95-0.67,1.27c-0.27,0.33-0.58,0.56-0.92,0.71c-0.34,0.15-0.68,0.22-1.02,0.22
		C42.6,54.86,42.26,54.79,41.92,54.64 M44.13,55.16c0.42-0.16,0.79-0.42,1.13-0.79c0.34-0.37,0.62-0.85,0.84-1.44
		c0.22-0.59,0.33-1.33,0.33-2.21s-0.11-1.62-0.33-2.21c-0.22-0.59-0.5-1.08-0.84-1.44c-0.34-0.36-0.72-0.63-1.13-0.79
		c-0.42-0.16-0.81-0.24-1.19-0.24c-0.38,0-0.78,0.08-1.19,0.24c-0.42,0.16-0.79,0.42-1.13,0.79c-0.34,0.37-0.62,0.85-0.84,1.44
		c-0.22,0.6-0.33,1.33-0.33,2.21s0.11,1.62,0.33,2.21c0.22,0.59,0.5,1.08,0.84,1.44c0.34,0.37,0.72,0.63,1.13,0.79
		s0.81,0.24,1.19,0.24C43.32,55.4,43.72,55.32,44.13,55.16 M31.21,46.22v0.54h2.46v7.92h-2.46v0.54h5.49v-0.54h-2.45v-7.92h2.45
		v-0.54H31.21z M22.79,46.94l1.27-0.18c0.43-0.06,0.85-0.03,1.26,0.11c0.41,0.13,0.77,0.37,1.08,0.71c0.31,0.35,0.56,0.81,0.75,1.4
		s0.28,1.3,0.28,2.15c0,0.65-0.08,1.21-0.24,1.68c-0.16,0.47-0.38,0.85-0.66,1.15c-0.28,0.3-0.6,0.5-0.98,0.62
		c-0.37,0.12-0.76,0.16-1.19,0.1l-1.59-0.18V46.94z M22.21,54.5l-1.25,0.18l0.09,0.54c0.23-0.03,0.46-0.07,0.69-0.11
		s0.46-0.07,0.69-0.07c0.33,0,0.66,0.03,0.99,0.09c0.33,0.06,0.66,0.09,0.99,0.09c0.4,0,0.81-0.06,1.25-0.17
		c0.43-0.12,0.82-0.33,1.19-0.65c0.36-0.31,0.65-0.75,0.88-1.32s0.35-1.3,0.35-2.2c0-0.65-0.07-1.26-0.22-1.83s-0.37-1.06-0.68-1.48
		c-0.31-0.42-0.7-0.75-1.17-0.99c-0.47-0.24-1.03-0.36-1.69-0.36c-0.38,0-0.73,0.03-1.05,0.09c-0.32,0.06-0.62,0.09-0.91,0.09
		c-0.26,0-0.49-0.02-0.69-0.07c-0.2-0.04-0.4-0.08-0.6-0.11L21,46.76l1.21,0.18V54.5z M15.19,46.22v0.54h1.12v5.7
		c0,0.88-0.17,1.5-0.51,1.86c-0.34,0.36-0.88,0.54-1.6,0.54s-1.27-0.18-1.6-0.54c-0.34-0.36-0.51-0.98-0.51-1.86v-5.7h1.12v-0.54
		h-2.76v0.54h1.05v5.88c0,1,0.22,1.71,0.67,2.13s1.12,0.63,2.03,0.63c0.91,0,1.59-0.21,2.03-0.63c0.45-0.42,0.67-1.13,0.67-2.13
		v-5.88h1.05v-0.54H15.19z M5.87,51.8H2.33l1.72-4.98L5.87,51.8z M4.06,45.27l-3.34,9.4H0v0.54h2.71v-0.54h-1.4l0.81-2.34h3.92
		l0.85,2.34H5.5v0.54h2.75v-0.54H7.53L4.06,45.27z"/>
</g>
<g>
	<path class="st2" d="M123.51,28.22v0.54h1.67v7.92h-1.67v0.54h7.25v-2.94h-0.58v1.19c0,0.32-0.11,0.6-0.31,0.85
		c-0.21,0.24-0.57,0.37-1.07,0.37h-3.03v-7.92h1.72v-0.54H123.51z M118.19,33.8h-3.54l1.73-4.98L118.19,33.8z M116.39,27.27
		l-3.34,9.4h-0.72v0.54h2.71v-0.54h-1.39l0.81-2.34h3.92l0.86,2.34h-1.4v0.54h2.75v-0.54h-0.72L116.39,27.27z M109.04,28.76H110
		v-0.54h-3v0.54h1.46v7.5h-0.03l-4.54-8.04h-1.9v0.54h1.14v7.92h-1.14v0.54h3.13v-0.54h-1.41v-7.6h0.03l4.62,8.14h0.69V28.76z
		 M94.84,36.64c-0.34-0.14-0.65-0.38-0.92-0.7c-0.27-0.33-0.5-0.75-0.67-1.27C93.08,34.13,93,33.49,93,32.72
		c0-0.76,0.08-1.4,0.25-1.93c0.17-0.53,0.39-0.96,0.67-1.28c0.27-0.32,0.58-0.56,0.92-0.7c0.34-0.15,0.68-0.22,1.02-0.22
		c0.34,0,0.68,0.07,1.02,0.22c0.34,0.15,0.65,0.38,0.92,0.7c0.27,0.33,0.5,0.75,0.67,1.28c0.17,0.53,0.25,1.17,0.25,1.93
		c0,0.77-0.08,1.42-0.25,1.94c-0.17,0.52-0.39,0.95-0.67,1.27c-0.28,0.32-0.58,0.56-0.92,0.7c-0.34,0.15-0.68,0.22-1.02,0.22
		C95.52,36.86,95.18,36.79,94.84,36.64 M97.06,37.16c0.42-0.16,0.79-0.42,1.13-0.79c0.34-0.37,0.62-0.85,0.84-1.44
		c0.22-0.59,0.33-1.33,0.33-2.21s-0.11-1.62-0.33-2.21c-0.22-0.59-0.5-1.08-0.84-1.44c-0.34-0.36-0.72-0.63-1.13-0.79
		c-0.42-0.16-0.81-0.24-1.19-0.24c-0.38,0-0.78,0.08-1.19,0.24c-0.42,0.16-0.79,0.42-1.13,0.79c-0.34,0.36-0.62,0.85-0.84,1.44
		c-0.22,0.6-0.33,1.33-0.33,2.21s0.11,1.62,0.33,2.21c0.22,0.6,0.5,1.08,0.84,1.44c0.34,0.36,0.72,0.63,1.13,0.79
		c0.42,0.16,0.81,0.24,1.19,0.24C96.24,37.4,96.64,37.32,97.06,37.16 M84.13,28.22v0.54h2.46v7.92h-2.46v0.54h5.49v-0.54h-2.45
		v-7.92h2.45v-0.54H84.13z M79.23,37.22v-0.54h-2.02v-7.92h1.42c0.29,0,0.52,0.02,0.7,0.05c0.17,0.03,0.31,0.1,0.4,0.2
		c0.09,0.1,0.15,0.24,0.18,0.42c0.03,0.18,0.04,0.42,0.04,0.71v1.04h0.58v-2.96h-7.25v2.96h0.58v-1.04c0-0.29,0.02-0.52,0.04-0.71
		c0.03-0.18,0.09-0.32,0.18-0.42c0.09-0.1,0.22-0.17,0.4-0.2c0.17-0.04,0.41-0.05,0.7-0.05h1.43v7.92H74.6v0.54H79.23z M68.57,33.8
		h-3.54l1.73-4.98L68.57,33.8z M66.77,27.27l-3.35,9.4h-0.72v0.54h2.71v-0.54h-1.4l0.81-2.34h3.92l0.85,2.34h-1.4v0.54h2.75v-0.54
		h-0.72L66.77,27.27z M59.42,28.76h0.96v-0.54h-3v0.54h1.46v7.5h-0.03l-4.54-8.04h-1.91v0.54h1.14v7.92h-1.14v0.54h3.14v-0.54h-1.41
		v-7.6h0.03l4.62,8.14h0.69V28.76z M43.58,28.8c0.09,0,0.2-0.01,0.35-0.02c0.14-0.01,0.29-0.03,0.46-0.04
		c0.16-0.01,0.33-0.02,0.49-0.03s0.32-0.01,0.46-0.01c0.27,0,0.53,0.03,0.78,0.1c0.25,0.07,0.47,0.18,0.67,0.32
		c0.19,0.15,0.35,0.33,0.47,0.55c0.12,0.22,0.18,0.48,0.18,0.78c0,0.45-0.09,0.81-0.28,1.07c-0.19,0.26-0.43,0.46-0.72,0.59
		c-0.29,0.14-0.62,0.22-0.98,0.26s-0.71,0.06-1.06,0.06h-0.81V28.8z M49.54,36.68H48.5l-2.54-3.79c0.63-0.14,1.14-0.41,1.52-0.81
		c0.38-0.4,0.58-0.94,0.58-1.61c0-0.4-0.07-0.75-0.23-1.04c-0.15-0.29-0.34-0.53-0.58-0.71c-0.23-0.18-0.5-0.32-0.79-0.41
		c-0.3-0.09-0.59-0.13-0.89-0.13c-0.41,0-0.82,0.02-1.22,0.06c-0.4,0.04-0.81,0.05-1.22,0.03l-1.41-0.06v0.54L43,28.83v7.84h-1.27
		v0.54h3.31v-0.54h-1.46v-3.69h1.79l2.76,4.23h1.41V36.68z M38.58,37.22v-2.7h-0.58v0.35c0,0.37-0.01,0.67-0.04,0.91
		c-0.02,0.24-0.1,0.42-0.21,0.56c-0.12,0.13-0.29,0.23-0.53,0.28c-0.24,0.05-0.58,0.07-1,0.07h-2.7v-4.11h2.46v1.47h0.58v-3.32
		h-0.58v1.31H33.5v-3.27h2.76c0.33,0,0.59,0.02,0.79,0.06c0.19,0.04,0.34,0.12,0.44,0.23c0.1,0.12,0.16,0.28,0.19,0.49
		s0.04,0.48,0.04,0.83v0.22h0.58v-2.37h-6.93v0.54h1.54v7.92h-1.54v0.54H38.58z M27,37.22v-0.54h-2.02v-7.92h1.42
		c0.29,0,0.52,0.02,0.7,0.05c0.17,0.03,0.31,0.1,0.4,0.2c0.09,0.1,0.15,0.24,0.18,0.42c0.03,0.18,0.04,0.42,0.04,0.71v1.04h0.58
		v-2.96h-7.24v2.96h0.58v-1.04c0-0.29,0.02-0.52,0.04-0.71c0.03-0.18,0.09-0.32,0.18-0.42c0.09-0.1,0.22-0.17,0.4-0.2
		c0.17-0.04,0.41-0.05,0.7-0.05h1.43v7.92h-2.03v0.54H27z M17.05,28.76h0.96v-0.54h-3v0.54h1.46v7.5h-0.03l-4.54-8.04H9.98v0.54
		h1.14v7.92H9.98v0.54h3.14v-0.54h-1.41v-7.6h0.03l4.62,8.14h0.69V28.76z M1.38,28.22v0.54h2.46v7.92H1.38v0.54h5.49v-0.54H4.42
		v-7.92h2.45v-0.54H1.38z"/>
</g>
<g>
	<path class="st2" d="M116.41,7.22v4.5h1.54v-1.7c0-0.36,0.02-0.63,0.05-0.8c0.03-0.17,0.08-0.28,0.13-0.32
		c0.03-0.05,0.12-0.1,0.29-0.14c0.17-0.04,0.42-0.06,0.77-0.06h1.36v9.1h-2.5v1.42h6.56V17.8h-2.52V8.7h1.38
		c0.35,0,0.6,0.02,0.77,0.06c0.17,0.04,0.26,0.09,0.29,0.14c0.04,0.04,0.08,0.15,0.12,0.32c0.04,0.17,0.05,0.44,0.04,0.8v1.7h1.54
		v-4.5H116.41z M109.27,12.27c-0.32-0.1-0.62-0.23-0.89-0.38c-0.27-0.15-0.5-0.35-0.67-0.58c-0.17-0.23-0.26-0.53-0.26-0.89
		c0-0.32,0.08-0.59,0.24-0.81c0.16-0.22,0.36-0.4,0.6-0.54c0.24-0.14,0.5-0.24,0.79-0.3c0.29-0.06,0.56-0.09,0.81-0.09
		c0.47,0,0.83,0.07,1.08,0.22c0.25,0.15,0.44,0.34,0.56,0.58s0.19,0.52,0.21,0.84s0.04,0.66,0.07,1.02l1.52-0.2
		c-0.07-0.47-0.12-0.83-0.15-1.1c-0.03-0.27-0.05-0.51-0.05-0.74l0.18-2.1l-1.46-0.26l-0.1,0.7c-0.31-0.15-0.63-0.25-0.97-0.31
		c-0.34-0.06-0.68-0.09-1.01-0.09c-0.47,0-0.93,0.07-1.39,0.2c-0.46,0.13-0.88,0.34-1.25,0.61c-0.37,0.27-0.67,0.61-0.9,1.02
		c-0.23,0.41-0.34,0.88-0.34,1.43c0,0.57,0.1,1.05,0.3,1.43c0.2,0.38,0.46,0.7,0.78,0.95c0.32,0.25,0.68,0.46,1.07,0.61
		c0.39,0.15,0.77,0.28,1.13,0.39c0.4,0.12,0.77,0.24,1.1,0.36c0.33,0.12,0.62,0.26,0.87,0.42c0.25,0.16,0.44,0.36,0.57,0.61
		c0.13,0.25,0.2,0.56,0.2,0.93c0,0.32-0.07,0.59-0.2,0.82s-0.3,0.41-0.51,0.56c-0.21,0.15-0.45,0.26-0.72,0.33
		c-0.27,0.07-0.55,0.11-0.83,0.11c-0.49-0.01-0.89-0.07-1.19-0.16c-0.3-0.09-0.54-0.25-0.72-0.47c-0.18-0.22-0.32-0.52-0.42-0.89
		c-0.1-0.37-0.2-0.85-0.29-1.44l-1.5,0.2c0.11,0.47,0.17,0.83,0.2,1.1c0.03,0.27,0.04,0.51,0.04,0.74l-0.2,2.22l1.46,0.2l0.08-0.62
		c0.39,0.2,0.79,0.34,1.2,0.43c0.41,0.09,0.83,0.13,1.26,0.13c0.53,0,1.04-0.08,1.51-0.23c0.47-0.15,0.89-0.38,1.24-0.67
		c0.35-0.29,0.64-0.65,0.85-1.07c0.21-0.42,0.32-0.9,0.32-1.43c0-0.57-0.1-1.06-0.31-1.45s-0.47-0.72-0.79-0.99
		c-0.32-0.27-0.67-0.48-1.06-0.64c-0.39-0.16-0.77-0.3-1.14-0.42C109.9,12.46,109.59,12.37,109.27,12.27 M97.37,10.06l1.58,4.36
		h-3.08L97.37,10.06z M97.37,5.96L93.15,17.8h-0.96v1.42h3.98V17.8h-1.5l0.7-1.98h4.08l0.72,1.98h-1.48v1.42h4.02V17.8h-0.96
		L97.37,5.96z M84.3,17.73c-0.37-0.15-0.71-0.41-1.01-0.77c-0.3-0.36-0.55-0.84-0.74-1.45c-0.19-0.61-0.3-1.37-0.31-2.29
		c0.01-0.92,0.12-1.69,0.31-2.3c0.19-0.61,0.44-1.1,0.74-1.46c0.3-0.36,0.64-0.62,1.01-0.77c0.37-0.15,0.74-0.23,1.1-0.23
		c0.36,0,0.73,0.08,1.1,0.23c0.37,0.15,0.71,0.41,1.02,0.77c0.31,0.36,0.56,0.85,0.75,1.46s0.3,1.38,0.31,2.3
		c-0.01,0.92-0.12,1.68-0.31,2.29c-0.19,0.61-0.44,1.09-0.75,1.45c-0.31,0.36-0.65,0.62-1.02,0.77c-0.37,0.15-0.74,0.24-1.1,0.25
		C85.04,17.96,84.68,17.88,84.3,17.73 M87.05,7.3c-0.57-0.21-1.12-0.32-1.65-0.32c-0.52,0-1.06,0.11-1.63,0.32s-1.08,0.57-1.55,1.08
		c-0.47,0.51-0.85,1.16-1.14,1.95c-0.29,0.79-0.44,1.76-0.44,2.89c0,1.13,0.15,2.09,0.44,2.88c0.29,0.79,0.67,1.43,1.14,1.94
		c0.47,0.51,0.98,0.87,1.55,1.09s1.11,0.33,1.63,0.33h0.02c0.52,0,1.06-0.11,1.63-0.33c0.57-0.22,1.08-0.58,1.55-1.09
		s0.85-1.15,1.14-1.94c0.29-0.79,0.44-1.75,0.44-2.88c0-1.13-0.15-2.1-0.44-2.89c-0.29-0.79-0.67-1.44-1.14-1.95
		C88.14,7.87,87.62,7.51,87.05,7.3 M76.19,15.26c-0.03,0.88-0.22,1.55-0.59,2c-0.37,0.45-0.99,0.69-1.87,0.72
		c-0.6-0.01-1.1-0.16-1.51-0.43c-0.41-0.27-0.75-0.64-1.03-1.11c-0.27-0.47-0.47-0.98-0.6-1.55c-0.13-0.57-0.2-1.13-0.2-1.69
		c0-0.56,0.06-1.12,0.19-1.69c0.13-0.57,0.32-1.07,0.59-1.51c0.28-0.45,0.62-0.81,1.03-1.08c0.41-0.27,0.92-0.41,1.55-0.42
		c0.44,0.01,0.8,0.07,1.08,0.18c0.28,0.11,0.51,0.26,0.68,0.46c0.17,0.2,0.3,0.46,0.37,0.77c0.07,0.31,0.13,0.68,0.17,1.11
		l0.02,0.46l1.48-0.24l-0.08-1.66V9.42c0-0.24,0.02-0.48,0.06-0.72c0.03-0.15,0.05-0.29,0.07-0.44c0.02-0.15,0.06-0.28,0.11-0.4
		l0.14-0.4l-1.44-0.48l-0.12,0.38l-0.08,0.26c-0.8-0.39-1.63-0.58-2.5-0.58c-0.55-0.01-1.11,0.09-1.68,0.3
		c-0.57,0.21-1.11,0.56-1.6,1.04c-0.48,0.49-0.87,1.13-1.17,1.9c-0.3,0.77-0.45,1.73-0.45,2.86c0,1.13,0.15,2.1,0.45,2.9
		c0.3,0.8,0.68,1.45,1.15,1.96c0.48,0.51,1.01,0.88,1.58,1.11c0.57,0.23,1.13,0.35,1.68,0.35h0.02c0.76,0,1.47-0.16,2.14-0.48
		s1.26-0.74,1.78-1.26l0.12-0.12v-2.76h-1.54V15.26z M52.49,8.92l1.22-0.18c0.08-0.01,0.16-0.02,0.23-0.02h0.23
		c0.41,0,0.81,0.09,1.2,0.26c0.39,0.17,0.73,0.46,1.03,0.85c0.3,0.39,0.54,0.91,0.72,1.55c0.18,0.64,0.28,1.43,0.29,2.36
		c-0.01,0.71-0.1,1.31-0.25,1.82c-0.15,0.51-0.36,0.92-0.62,1.24c-0.26,0.32-0.57,0.56-0.92,0.71c-0.35,0.15-0.73,0.23-1.13,0.23
		c-0.07,0-0.13,0-0.2-0.01c-0.07-0.01-0.13-0.01-0.2-0.01l-1.6-0.18V8.92z M56.22,7.77c-0.65-0.33-1.4-0.49-2.27-0.49
		c-0.51,0-0.96,0.04-1.35,0.12c-0.39,0.08-0.75,0.11-1.07,0.1c-0.28,0-0.54-0.02-0.78-0.07c-0.24-0.05-0.49-0.1-0.76-0.15l-0.4-0.06
		L49.43,8.7l1.52,0.22v8.62l-1.58,0.24l0.24,1.44l0.38-0.04c0.31-0.04,0.59-0.09,0.86-0.14c0.27-0.05,0.53-0.08,0.78-0.08
		c0.37,0,0.76,0.04,1.17,0.11c0.41,0.07,0.83,0.11,1.27,0.11c0.53,0,1.09-0.08,1.66-0.23c0.57-0.15,1.11-0.45,1.62-0.89
		c0.49-0.43,0.89-1.02,1.19-1.77s0.45-1.7,0.45-2.85c0-0.84-0.09-1.63-0.28-2.36c-0.19-0.73-0.49-1.39-0.9-1.96
		C57.4,8.54,56.87,8.09,56.22,7.77 M39.65,8.76c0.27-0.03,0.56-0.05,0.89-0.07c0.33-0.02,0.62-0.03,0.89-0.03
		c0.61,0.01,1.13,0.16,1.56,0.44c0.43,0.28,0.64,0.72,0.64,1.32c-0.01,0.49-0.11,0.86-0.28,1.11c-0.17,0.25-0.41,0.44-0.72,0.59
		c-0.31,0.15-0.67,0.24-1.1,0.29c-0.43,0.05-0.85,0.07-1.28,0.07h-0.6V8.76z M45.57,17.8l-2.72-4.12c0.69-0.24,1.26-0.64,1.71-1.19
		c0.45-0.55,0.66-1.24,0.65-2.07c0-0.56-0.11-1.05-0.32-1.46c-0.21-0.41-0.49-0.75-0.82-1.01c-0.33-0.26-0.71-0.45-1.12-0.58
		c-0.41-0.13-0.82-0.19-1.22-0.19c-0.47,0-0.93,0.02-1.38,0.06C39.9,7.28,39.46,7.3,39.03,7.3h-0.17c-0.05,0-0.1-0.01-0.17-0.02
		L36.53,7.2v1.48l1.58,0.12v9h-1.58v1.42h4.92V17.8h-1.8v-3.84h1.6l3.42,5.26h2.38V17.8H45.57z M26.18,7.22v1.42h3.04v9.1h-3.04
		v1.48h7.62v-1.48h-3.04v-9.1h3.04V7.22H26.18z M18.86,7.22v1.42h1.58v3.7h-4.3v-3.7h1.58V7.22h-4.7v1.42h1.58v9.16h-1.58v1.42h4.7
		V17.8h-1.58v-3.98h4.3v3.98h-1.58v1.42h4.7V17.8h-1.58V8.64h1.58V7.22H18.86z M0.73,7.22v4.5h1.54v-1.7c0-0.36,0.02-0.63,0.05-0.8
		C2.35,9.04,2.39,8.94,2.44,8.9c0.03-0.05,0.12-0.1,0.29-0.14S3.16,8.7,3.5,8.7h1.36v9.1h-2.5v1.42h6.56V17.8H6.4V8.7h1.38
		c0.35,0,0.6,0.02,0.77,0.06S8.82,8.84,8.85,8.9c0.04,0.04,0.08,0.15,0.12,0.32C9,9.39,9.02,9.66,9,10.02v1.7h1.54v-4.5H0.73z"/>
</g>
</svg>
