<?xml version="1.0" encoding="utf-8"?>
<svg version="1.1"  xmlns="http://www.w3.org/2000/svg" xmlns:xlink="http://www.w3.org/1999/xlink"
	 width="100px" height="100px" viewBox="0 0 100 100">
   <g fill="#333">
     <path d="M85,50c0-0.85-0.04-1.68-0.1-2.51l11.81-6.06c-0.46-2.53-1.12-4.98-1.96-7.35L81.5,34.73c-0.74-1.52-1.58-2.98-2.52-4.36
             	l7.19-11.14c-1.65-1.94-3.45-3.74-5.38-5.38l-11.14,7.19c-1.39-0.94-2.84-1.79-4.36-2.52l0.66-13.26c-2.37-0.84-4.83-1.5-7.35-1.96
             	L52.51,15.1C51.68,15.04,50.85,15,50,15s-1.68,0.04-2.51,0.1L41.42,3.29c-2.53,0.46-4.98,1.12-7.35,1.96l0.66,13.26
             	c-1.52,0.74-2.98,1.58-4.36,2.52l-11.14-7.19c-1.94,1.65-3.74,3.45-5.38,5.38l7.19,11.14c-0.94,1.39-1.79,2.84-2.52,4.36L5.25,34.07
             	c-0.84,2.37-1.5,4.83-1.96,7.35l11.81,6.06C15.04,48.32,15,49.15,15,50s0.04,1.68,0.1,2.51L3.29,58.58
             	c0.46,2.53,1.12,4.98,1.96,7.35l13.26-0.66c0.74,1.52,1.58,2.98,2.52,4.36l-7.19,11.14c1.65,1.94,3.45,3.74,5.38,5.38l11.14-7.19
             	c1.39,0.94,2.84,1.79,4.36,2.52l-0.66,13.26c2.37,0.84,4.83,1.5,7.35,1.96l6.06-11.81C48.32,84.96,49.15,85,50,85
             	s1.68-0.04,2.51-0.1l6.06,11.81c2.53-0.46,4.98-1.12,7.35-1.96L65.27,81.5c1.52-0.74,2.98-1.58,4.36-2.52l11.14,7.19
             	c1.94-1.65,3.74-3.45,5.38-5.38l-7.19-11.14c0.94-1.39,1.79-2.84,2.52-4.36l13.26,0.66c0.84-2.37,1.5-4.83,1.96-7.35L84.9,52.51
             	C84.96,51.68,85,50.85,85,50z M50,75c-13.81,0-25-11.19-25-25c0-13.81,11.19-25,25-25c13.81,0,25,11.19,25,25
             	C75,63.81,63.81,75,50,75z"/>
     <circle cx="50" cy="50" r="5"/>
   </g>
</svg>
