<svg xmlns="http://www.w3.org/2000/svg" viewBox="0 0 888.44 260.75"><defs><style>.cls-1{fill:none;stroke:#000;stroke-miterlimit:10;}.cls-2{fill:#e6efff;}.cls-3{fill:#fff;}.cls-4{fill:#888;}</style></defs><title>vertex-edge</title><g id="Edges"><line class="cls-1" x1="226.5" y1="34.25" x2="418.75" y2="226.5"/><line class="cls-1" x1="612.75" y1="32.5" x2="418.75" y2="226.5"/><line class="cls-1" x1="226.5" y1="34.25" x2="32.5" y2="228.25"/><line class="cls-1" x1="418.75" y1="226.5" x2="792.58" y2="226.5"/></g><g id="Vertices"><path class="cls-2" d="M1131.45,413.16a30.5,30.5,0,1,1,30.5-30.5A30.53,30.53,0,0,1,1131.45,413.16Z" transform="translate(-338.88 -156.16)"/><path class="cls-3" d="M1131.45,354.16a28.5,28.5,0,1,1-28.5,28.5,28.5,28.5,0,0,1,28.5-28.5m0-4a32.5,32.5,0,1,0,32.5,32.5,32.54,32.54,0,0,0-32.5-32.5Z" transform="translate(-338.88 -156.16)"/><path class="cls-2" d="M371.38,414.91a30.5,30.5,0,1,1,30.5-30.5A30.53,30.53,0,0,1,371.38,414.91Z" transform="translate(-338.88 -156.16)"/><path class="cls-3" d="M371.38,355.91a28.5,28.5,0,1,1-28.5,28.5,28.5,28.5,0,0,1,28.5-28.5m0-4a32.5,32.5,0,1,0,32.5,32.5,32.54,32.54,0,0,0-32.5-32.5Z" transform="translate(-338.88 -156.16)"/><path class="cls-2" d="M565.38,220.91a30.5,30.5,0,1,1,30.5-30.5A30.53,30.53,0,0,1,565.38,220.91Z" transform="translate(-338.88 -156.16)"/><path class="cls-3" d="M565.38,161.91a28.5,28.5,0,1,1-28.5,28.5,28.5,28.5,0,0,1,28.5-28.5m0-4a32.5,32.5,0,1,0,32.5,32.5,32.54,32.54,0,0,0-32.5-32.5Z" transform="translate(-338.88 -156.16)"/><path class="cls-2" d="M757.63,413.16a30.5,30.5,0,1,1,30.5-30.5A30.54,30.54,0,0,1,757.63,413.16Z" transform="translate(-338.88 -156.16)"/><path class="cls-3" d="M757.63,354.16a28.5,28.5,0,1,1-28.5,28.5,28.5,28.5,0,0,1,28.5-28.5m0-4a32.5,32.5,0,1,0,32.5,32.5,32.54,32.54,0,0,0-32.5-32.5Z" transform="translate(-338.88 -156.16)"/><path class="cls-2" d="M951.63,219.16a30.5,30.5,0,1,1,30.5-30.5A30.53,30.53,0,0,1,951.63,219.16Z" transform="translate(-338.88 -156.16)"/><path class="cls-3" d="M951.63,160.16a28.5,28.5,0,1,1-28.5,28.5,28.5,28.5,0,0,1,28.5-28.5m0-4a32.5,32.5,0,1,0,32.5,32.5,32.54,32.54,0,0,0-32.5-32.5Z" transform="translate(-338.88 -156.16)"/></g><g id="Labels"><path class="cls-4" d="M565.15,186.18a5.73,5.73,0,0,1-.35,2.08,4.45,4.45,0,0,1-.92,1.5,3.87,3.87,0,0,1-1.33.91A4.08,4.08,0,0,1,561,191h-2.5v7.58h-1.66v-17h4a5.57,5.57,0,0,1,1.51.22,3.59,3.59,0,0,1,1.39.76,4,4,0,0,1,1,1.43A5.42,5.42,0,0,1,565.15,186.18Zm-1.66,0a4.34,4.34,0,0,0-.22-1.45,2.6,2.6,0,0,0-.6-1,2.39,2.39,0,0,0-.88-.56,3.09,3.09,0,0,0-1.07-.18h-2.26v6.53h2.28a2.6,2.6,0,0,0,1.93-.83A3.49,3.49,0,0,0,563.49,186.19Z" transform="translate(-338.88 -156.16)"/><path class="cls-4" d="M567.76,192.95a9.06,9.06,0,0,0,.17,1.81,5.31,5.31,0,0,0,.49,1.44,2.7,2.7,0,0,0,.82,1,2,2,0,0,0,1.17.35,1.9,1.9,0,0,0,1.4-.53,3.61,3.61,0,0,0,.82-1.27l1.2.7a4.6,4.6,0,0,1-1.28,1.81,3.22,3.22,0,0,1-2.17.73,3.5,3.5,0,0,1-3.1-1.68,8.37,8.37,0,0,1-1.1-4.63,10.82,10.82,0,0,1,.29-2.57,6.61,6.61,0,0,1,.83-2,4,4,0,0,1,1.32-1.31,3.58,3.58,0,0,1,3.52,0,3.49,3.49,0,0,1,1.18,1.25,6,6,0,0,1,.66,1.85,11.91,11.91,0,0,1,.2,2.26v.86Zm4.82-1.32a6.42,6.42,0,0,0-.56-2.89,1.83,1.83,0,0,0-1.74-1.09,1.69,1.69,0,0,0-1.17.42,3.35,3.35,0,0,0-.77,1,5.1,5.1,0,0,0-.43,1.31,6.65,6.65,0,0,0-.13,1.22Z" transform="translate(-338.88 -156.16)"/><path class="cls-4" d="M579.76,187a2.18,2.18,0,0,1,1.58-.7,1.31,1.31,0,0,1,.29,0l0,1.63-.18,0h-.2a1.58,1.58,0,0,0-1.07.41,3.25,3.25,0,0,0-.78,1.06,5.92,5.92,0,0,0-.47,1.48,8.82,8.82,0,0,0-.16,1.64v6.07h-1.58v-8.9q0-.38,0-.83l0-.86q0-.42,0-.77c0-.23,0-.41,0-.54h1.54q0,.46.07,1.14t0,1.45h0A4.49,4.49,0,0,1,579.76,187Z" transform="translate(-338.88 -156.16)"/><path class="cls-4" d="M588.16,188.72a2.57,2.57,0,0,0-.8-.85,2.11,2.11,0,0,0-1.19-.32,1.6,1.6,0,0,0-1.26.56,2.16,2.16,0,0,0-.49,1.48,1.79,1.79,0,0,0,.48,1.39,4.56,4.56,0,0,0,1.44.79,7.7,7.7,0,0,1,1,.47,3.55,3.55,0,0,1,.85.68,3.42,3.42,0,0,1,.61,1,3.46,3.46,0,0,1,.24,1.36,3.74,3.74,0,0,1-.95,2.72,3.28,3.28,0,0,1-2.46,1,3.73,3.73,0,0,1-1.85-.47,4.11,4.11,0,0,1-1.39-1.26l1-1a3.71,3.71,0,0,0,1,1,2.26,2.26,0,0,0,1.33.4A1.69,1.69,0,0,0,587,197a2.43,2.43,0,0,0,.52-1.62,2.22,2.22,0,0,0-.19-1,2,2,0,0,0-.5-.66,3.37,3.37,0,0,0-.71-.46q-.4-.19-.83-.36a5.76,5.76,0,0,1-.88-.41,2.93,2.93,0,0,1-.76-.62,3,3,0,0,1-.54-.92,3.7,3.7,0,0,1-.2-1.31,3.62,3.62,0,0,1,.25-1.37,3.07,3.07,0,0,1,.71-1.07,3.41,3.41,0,0,1,1-.7,3.23,3.23,0,0,1,1.28-.25,3.61,3.61,0,0,1,1.74.4,3.51,3.51,0,0,1,1.19,1Z" transform="translate(-338.88 -156.16)"/><path class="cls-4" d="M599.37,192.63a10.6,10.6,0,0,1-.29,2.57,6.84,6.84,0,0,1-.82,2,3.82,3.82,0,0,1-1.31,1.3,3.39,3.39,0,0,1-1.74.46,3.32,3.32,0,0,1-1.73-.46,4,4,0,0,1-1.31-1.3,6.61,6.61,0,0,1-.83-2,10.6,10.6,0,0,1-.29-2.57,11.34,11.34,0,0,1,.28-2.59,6.61,6.61,0,0,1,.8-2,3.82,3.82,0,0,1,1.31-1.3,3.43,3.43,0,0,1,1.76-.46,3.39,3.39,0,0,1,1.74.46,3.83,3.83,0,0,1,1.31,1.3,6.83,6.83,0,0,1,.82,2A10.9,10.9,0,0,1,599.37,192.63Zm-1.63,0a11.64,11.64,0,0,0-.16-2,6.08,6.08,0,0,0-.47-1.57,3,3,0,0,0-.78-1,1.71,1.71,0,0,0-1.12-.38,1.75,1.75,0,0,0-1.13.38,2.77,2.77,0,0,0-.78,1,6.39,6.39,0,0,0-.46,1.57,11.58,11.58,0,0,0-.16,2,11.16,11.16,0,0,0,.16,1.94,6.61,6.61,0,0,0,.46,1.56,2.65,2.65,0,0,0,.78,1,1.9,1.9,0,0,0,2.26,0,2.66,2.66,0,0,0,.78-1,6.66,6.66,0,0,0,.46-1.56A11.21,11.21,0,0,0,597.74,192.6Z" transform="translate(-338.88 -156.16)"/><path class="cls-4" d="M608.44,198.56v-7.68a10.53,10.53,0,0,0-.06-1.12,3.5,3.5,0,0,0-.26-1,2,2,0,0,0-.58-.77,1.5,1.5,0,0,0-1-.3,1.83,1.83,0,0,0-1.07.32,2.68,2.68,0,0,0-.79.89,5,5,0,0,0-.5,1.3,6.36,6.36,0,0,0-.18,1.52v6.86h-1.58v-8.9q0-.38,0-.83l0-.86q0-.42,0-.77c0-.23,0-.41,0-.54h1.54q0,.46.07,1.1t0,1.22h0a4.31,4.31,0,0,1,1.1-2,2.63,2.63,0,0,1,1.92-.76,2.49,2.49,0,0,1,2.45,1.48,5,5,0,0,1,.42,1.49,12.66,12.66,0,0,1,.11,1.64v7.68Z" transform="translate(-338.88 -156.16)"/><path class="cls-4" d="M954.81,183.36a5.72,5.72,0,0,1-.35,2.08,4.46,4.46,0,0,1-.92,1.5,3.87,3.87,0,0,1-1.33.91,4.08,4.08,0,0,1-1.57.31h-2.5v7.58h-1.66v-17h4A5.57,5.57,0,0,1,952,179a3.59,3.59,0,0,1,1.39.76,4,4,0,0,1,1,1.43A5.41,5.41,0,0,1,954.81,183.36Zm-1.66,0a4.35,4.35,0,0,0-.22-1.45,2.61,2.61,0,0,0-.6-1,2.39,2.39,0,0,0-.88-.56,3.09,3.09,0,0,0-1.07-.18h-2.26v6.53h2.28a2.6,2.6,0,0,0,1.93-.83A3.49,3.49,0,0,0,953.16,183.37Z" transform="translate(-338.88 -156.16)"/><path class="cls-4" d="M957.43,190.13a9,9,0,0,0,.17,1.81,5.32,5.32,0,0,0,.49,1.44,2.69,2.69,0,0,0,.82,1,2,2,0,0,0,1.17.35,1.9,1.9,0,0,0,1.4-.53,3.63,3.63,0,0,0,.82-1.27l1.2.7a4.6,4.6,0,0,1-1.28,1.81,3.22,3.22,0,0,1-2.17.73,3.5,3.5,0,0,1-3.1-1.68,8.37,8.37,0,0,1-1.1-4.63,10.82,10.82,0,0,1,.29-2.57,6.6,6.6,0,0,1,.83-2,4,4,0,0,1,1.32-1.31,3.58,3.58,0,0,1,3.52,0,3.5,3.5,0,0,1,1.18,1.25,5.93,5.93,0,0,1,.66,1.85,11.83,11.83,0,0,1,.2,2.26v.86Zm4.82-1.32a6.41,6.41,0,0,0-.56-2.89,1.83,1.83,0,0,0-1.74-1.09,1.69,1.69,0,0,0-1.17.42,3.37,3.37,0,0,0-.77,1,5.08,5.08,0,0,0-.43,1.31,6.61,6.61,0,0,0-.13,1.22Z" transform="translate(-338.88 -156.16)"/><path class="cls-4" d="M969.43,184.17a2.18,2.18,0,0,1,1.58-.7,1.31,1.31,0,0,1,.29,0l0,1.63-.18,0h-.2a1.58,1.58,0,0,0-1.07.41,3.24,3.24,0,0,0-.78,1.06,5.9,5.9,0,0,0-.47,1.48,8.82,8.82,0,0,0-.16,1.64v6.07h-1.58v-8.9q0-.38,0-.83l0-.86c0-.28,0-.54,0-.77s0-.41,0-.54h1.54q0,.46.07,1.14t0,1.45h0A4.5,4.5,0,0,1,969.43,184.17Z" transform="translate(-338.88 -156.16)"/><path class="cls-4" d="M977.83,185.9a2.57,2.57,0,0,0-.8-.85,2.11,2.11,0,0,0-1.19-.32,1.6,1.6,0,0,0-1.26.56,2.16,2.16,0,0,0-.49,1.48,1.79,1.79,0,0,0,.48,1.39A4.57,4.57,0,0,0,976,189a7.68,7.68,0,0,1,1,.47,3.55,3.55,0,0,1,.85.68,3.42,3.42,0,0,1,.61,1,3.45,3.45,0,0,1,.24,1.36,3.74,3.74,0,0,1-.95,2.72,3.29,3.29,0,0,1-2.46,1,3.73,3.73,0,0,1-1.85-.47A4.11,4.11,0,0,1,972,194.4l1-1a3.7,3.7,0,0,0,1,1,2.26,2.26,0,0,0,1.33.4,1.69,1.69,0,0,0,1.36-.61,2.43,2.43,0,0,0,.52-1.62,2.23,2.23,0,0,0-.19-1,2,2,0,0,0-.5-.66,3.4,3.4,0,0,0-.71-.46q-.4-.19-.83-.36a5.75,5.75,0,0,1-.87-.41,2.89,2.89,0,0,1-.76-.62,3,3,0,0,1-.54-.92,3.72,3.72,0,0,1-.2-1.31,3.62,3.62,0,0,1,.25-1.37,3.08,3.08,0,0,1,.71-1.07,3.42,3.42,0,0,1,1-.7,3.22,3.22,0,0,1,1.28-.25,3.61,3.61,0,0,1,1.74.4,3.5,3.5,0,0,1,1.19,1Z" transform="translate(-338.88 -156.16)"/><path class="cls-4" d="M989,189.81a10.58,10.58,0,0,1-.29,2.57,6.82,6.82,0,0,1-.82,2,3.83,3.83,0,0,1-1.31,1.3,3.39,3.39,0,0,1-1.74.46,3.32,3.32,0,0,1-1.73-.46,4,4,0,0,1-1.31-1.3,6.63,6.63,0,0,1-.83-2,10.58,10.58,0,0,1-.29-2.57,11.37,11.37,0,0,1,.28-2.59,6.63,6.63,0,0,1,.8-2,3.82,3.82,0,0,1,1.31-1.3,3.43,3.43,0,0,1,1.76-.46,3.39,3.39,0,0,1,1.74.46,3.83,3.83,0,0,1,1.31,1.3,6.82,6.82,0,0,1,.82,2A10.87,10.87,0,0,1,989,189.81Zm-1.63,0a11.58,11.58,0,0,0-.16-2,6,6,0,0,0-.47-1.57,3,3,0,0,0-.78-1,1.7,1.7,0,0,0-1.12-.38,1.76,1.76,0,0,0-1.13.38,2.76,2.76,0,0,0-.78,1,6.41,6.41,0,0,0-.46,1.57,11.58,11.58,0,0,0-.16,2,11.16,11.16,0,0,0,.16,1.94,6.64,6.64,0,0,0,.46,1.56,2.64,2.64,0,0,0,.78,1,1.9,1.9,0,0,0,2.26,0,2.67,2.67,0,0,0,.78-1,6.64,6.64,0,0,0,.46-1.56A11.16,11.16,0,0,0,987.4,189.78Z" transform="translate(-338.88 -156.16)"/><path class="cls-4" d="M998.11,195.74v-7.68a10.53,10.53,0,0,0-.06-1.12,3.5,3.5,0,0,0-.26-1,2,2,0,0,0-.58-.77,1.5,1.5,0,0,0-1-.3,1.83,1.83,0,0,0-1.07.32,2.67,2.67,0,0,0-.79.89,5,5,0,0,0-.5,1.3,6.36,6.36,0,0,0-.18,1.52v6.86h-1.58v-8.9q0-.38,0-.83l0-.86q0-.42,0-.77c0-.23,0-.41,0-.54h1.54q0,.46.07,1.1t0,1.22h0a4.31,4.31,0,0,1,1.1-2,2.63,2.63,0,0,1,1.92-.76,2.49,2.49,0,0,1,2.45,1.48,5,5,0,0,1,.42,1.49,12.66,12.66,0,0,1,.11,1.64v7.68Z" transform="translate(-338.88 -156.16)"/><path class="cls-4" d="M705.91,376.58v6.1h4.78v1.44h-4.78v7.94h-1.66v-17H711v1.51Z" transform="translate(-338.88 -156.16)"/><path class="cls-4" d="M714,386.45a9,9,0,0,0,.17,1.81,5.31,5.31,0,0,0,.49,1.44,2.69,2.69,0,0,0,.82,1,2,2,0,0,0,1.17.35,1.9,1.9,0,0,0,1.4-.53,3.61,3.61,0,0,0,.82-1.27l1.2.7a4.6,4.6,0,0,1-1.28,1.81,3.22,3.22,0,0,1-2.17.73,3.5,3.5,0,0,1-3.1-1.68,8.37,8.37,0,0,1-1.1-4.63,10.82,10.82,0,0,1,.29-2.57,6.61,6.61,0,0,1,.83-2,4,4,0,0,1,1.32-1.31,3.58,3.58,0,0,1,3.52,0,3.5,3.5,0,0,1,1.18,1.25,6,6,0,0,1,.66,1.85,11.93,11.93,0,0,1,.2,2.26v.86Zm4.82-1.32a6.42,6.42,0,0,0-.56-2.89,1.83,1.83,0,0,0-1.74-1.09,1.69,1.69,0,0,0-1.17.42,3.35,3.35,0,0,0-.77,1,5.09,5.09,0,0,0-.43,1.31,6.66,6.66,0,0,0-.13,1.22Z" transform="translate(-338.88 -156.16)"/><path class="cls-4" d="M728.09,392.06q0-.19,0-.48t0-.61c0-.22,0-.42,0-.62v-.52h0q-.6,2.55-2.88,2.54a2.82,2.82,0,0,1-1-.19,2.45,2.45,0,0,1-.91-.62,3.42,3.42,0,0,1-.67-1.09,4.29,4.29,0,0,1-.26-1.6,4.16,4.16,0,0,1,.46-2.09,3.6,3.6,0,0,1,1.15-1.25,4.17,4.17,0,0,1,1.52-.61,8.53,8.53,0,0,1,1.57-.16h.94v-.62a3.64,3.64,0,0,0-.58-2.28,1.89,1.89,0,0,0-1.56-.72,2.32,2.32,0,0,0-1.25.36,3.57,3.57,0,0,0-1,.91l-.84-1a3.68,3.68,0,0,1,1.44-1.22,4,4,0,0,1,1.78-.43,2.93,2.93,0,0,1,2.66,1.22,6.62,6.62,0,0,1,.79,3.58v4.94q0,.24,0,.6l0,.73c0,.25,0,.48,0,.7s0,.39,0,.52Zm-.19-6h-1a6.21,6.21,0,0,0-1.15.11,2.66,2.66,0,0,0-1,.41,2.31,2.31,0,0,0-.73.83,2.84,2.84,0,0,0-.29,1.37,2.47,2.47,0,0,0,.55,1.8,1.68,1.68,0,0,0,2.34.14,2.9,2.9,0,0,0,.74-1,5.55,5.55,0,0,0,.4-1.37,9,9,0,0,0,.12-1.44Z" transform="translate(-338.88 -156.16)"/><path class="cls-4" d="M736,392.28a3.28,3.28,0,0,1-.79.1,1.89,1.89,0,0,1-1.76-.86,4.47,4.47,0,0,1-.52-2.3v-7.75h-1.56v-1.3h1.54v-3.29h1.56v3.29h2.11v1.3h-2.11v7.46a3,3,0,0,0,.31,1.57,1,1,0,0,0,.94.49,1.84,1.84,0,0,0,.46-.06,2.79,2.79,0,0,0,.41-.13l.07,1.27A3.79,3.79,0,0,1,736,392.28Z" transform="translate(-338.88 -156.16)"/><path class="cls-4" d="M740.28,380.16v7.68a10.55,10.55,0,0,0,.06,1.12,3.48,3.48,0,0,0,.26,1,2,2,0,0,0,.56.77,1.48,1.48,0,0,0,1,.3,1.83,1.83,0,0,0,1.07-.32,2.67,2.67,0,0,0,.79-.89,4.92,4.92,0,0,0,.5-1.29,6.36,6.36,0,0,0,.18-1.52v-6.86h1.58v8.9q0,.38,0,.83t0,.86c0,.28,0,.54,0,.78s0,.42,0,.53h-1.54q0-.46-.07-1.1c0-.43,0-.84,0-1.22h0a4.31,4.31,0,0,1-1.1,2,2.63,2.63,0,0,1-1.92.76,2.48,2.48,0,0,1-2.45-1.48,5,5,0,0,1-.42-1.48,12.63,12.63,0,0,1-.11-1.66v-7.68Z" transform="translate(-338.88 -156.16)"/><path class="cls-4" d="M752.78,380.49a2.18,2.18,0,0,1,1.58-.7,1.31,1.31,0,0,1,.29,0l0,1.63-.18,0h-.2a1.58,1.58,0,0,0-1.07.41,3.24,3.24,0,0,0-.78,1.06,5.89,5.89,0,0,0-.47,1.48,8.82,8.82,0,0,0-.16,1.64v6.07h-1.58v-8.9c0-.26,0-.53,0-.83l0-.86q0-.42,0-.77c0-.23,0-.41,0-.54h1.54c0,.3.06.68.07,1.14s0,.94,0,1.45h0A4.51,4.51,0,0,1,752.78,380.49Z" transform="translate(-338.88 -156.16)"/><path class="cls-4" d="M757.37,386.45a9,9,0,0,0,.17,1.81,5.26,5.26,0,0,0,.49,1.44,2.68,2.68,0,0,0,.82,1A2,2,0,0,0,760,391a1.9,1.9,0,0,0,1.4-.53,3.62,3.62,0,0,0,.82-1.27l1.2.7a4.6,4.6,0,0,1-1.28,1.81,3.22,3.22,0,0,1-2.17.73,3.5,3.5,0,0,1-3.1-1.68,8.37,8.37,0,0,1-1.1-4.63,10.82,10.82,0,0,1,.29-2.57,6.62,6.62,0,0,1,.83-2,4,4,0,0,1,1.32-1.31,3.58,3.58,0,0,1,3.52,0,3.5,3.5,0,0,1,1.18,1.25,6,6,0,0,1,.66,1.85,11.93,11.93,0,0,1,.2,2.26v.86Zm4.82-1.32a6.43,6.43,0,0,0-.55-2.89,1.83,1.83,0,0,0-1.74-1.09,1.69,1.69,0,0,0-1.17.42,3.35,3.35,0,0,0-.77,1,5.11,5.11,0,0,0-.43,1.31,6.62,6.62,0,0,0-.13,1.22Z" transform="translate(-338.88 -156.16)"/><path d="M637.47,267.62l8.13-8.13,3,3a7.53,7.53,0,0,1,1,1.29,4.24,4.24,0,0,1,.62,1.57,3.51,3.51,0,0,1-.15,1.73,4,4,0,0,1-1,1.53,3.93,3.93,0,0,1-1.67,1,3.66,3.66,0,0,1-1.77.07,4.65,4.65,0,0,1-1.55-.65,7.33,7.33,0,0,1-1-.78l-2.49,2.49Z" transform="translate(-338.88 -156.16)"/><path class="cls-3" d="M645.6,261.61l2,2a6,6,0,0,1,.84,1,2.74,2.74,0,0,1,.41,1,2,2,0,0,1-.08,1,2.56,2.56,0,0,1-.64,1,2.44,2.44,0,0,1-1,.65,2.16,2.16,0,0,1-1.05,0,3.14,3.14,0,0,1-1-.44,6,6,0,0,1-1-.81l-.82-.82-2.49,2.49-1.07-1.07,6-6m.63,5.24.23,0a1.13,1.13,0,0,0,.55-.33,1,1,0,0,0,.28-1.09,1.78,1.78,0,0,0-.29-.54,5.5,5.5,0,0,0-.45-.51l-.78-.78L644,265.31l.75.75a4.43,4.43,0,0,0,.54.46,2,2,0,0,0,.56.29,1.14,1.14,0,0,0,.34.05m-.63-9.49-2.12,2.12-6,6-2.12,2.12,2.12,2.12,1.07,1.07,2.12,2.12,2.12-2.12.5-.5.06,0a6.14,6.14,0,0,0,2,.85,5.16,5.16,0,0,0,2.51-.1,5.4,5.4,0,0,0,2.31-1.41,5.53,5.53,0,0,0,1.35-2.1,5,5,0,0,0,.21-2.47,5.73,5.73,0,0,0-.83-2.13,9,9,0,0,0-1.25-1.54l-2-2-2.12-2.12Z" transform="translate(-338.88 -156.16)"/><path d="M643.9,274.05l6.19-6.19,2.49,2.49a3.29,3.29,0,0,1,.87.63l.19.21a2.21,2.21,0,0,1,.3.43l.51,1-3.07,3.07-1-1.65-.07-.08-.07,0L647,277.19Z" transform="translate(-338.88 -156.16)"/><path class="cls-3" d="M650.09,270l1,1-.68.68,0,0a2.15,2.15,0,0,1,.72-.13l.33,0a1.68,1.68,0,0,1,.93.49l.12.13a.72.72,0,0,1,.1.14l-.93.93-.14-.21-.13-.15a1.53,1.53,0,0,0-.69-.43,1.58,1.58,0,0,0-.38,0l-.25,0a1.55,1.55,0,0,0-.53.21,2,2,0,0,0-.34.25L647,275.07l-1-1,4.07-4.07m0-4.24L648,267.86l-4.07,4.07-2.12,2.12,2.12,2.12,1,1,2.12,2.12,2.12-2.12.87-.87,1.05,1.74,2.71-2.69.93-.93,1.56-1.56-1-1.9h0l0,0a3.72,3.72,0,0,0-.5-.72l-.24-.26a4.92,4.92,0,0,0-1-.79l-.3-.3-1-1-2.12-2.12Z" transform="translate(-338.88 -156.16)"/><path d="M654.66,283.25a4.55,4.55,0,0,1-1.71-.38,4.9,4.9,0,0,1-2.51-2.51,4.54,4.54,0,0,1-.38-1.71,4.48,4.48,0,0,1,.31-1.73,4.6,4.6,0,0,1,1-1.57,4.53,4.53,0,0,1,1.57-1,4.42,4.42,0,0,1,1.61-.31h.12a4.44,4.44,0,0,1,1.71.4,5.07,5.07,0,0,1,2.48,2.48,4.36,4.36,0,0,1,.1,3.44,4.55,4.55,0,0,1-1,1.57,4.6,4.6,0,0,1-1.57,1,4.48,4.48,0,0,1-1.64.32Zm.22-4.93-.13,0a.74.74,0,0,0-.18.13.8.8,0,0,0-.14.19.36.36,0,0,0,0,.13l.1.11.14-.05a.79.79,0,0,0,.19-.14.75.75,0,0,0,.14-.19.34.34,0,0,0,0-.12Z" transform="translate(-338.88 -156.16)"/><path class="cls-3" d="M654.59,275.49h.08a2.94,2.94,0,0,1,1.14.27,3.57,3.57,0,0,1,1.73,1.73,2.86,2.86,0,0,1,.07,2.28,3,3,0,0,1-.7,1.05,3.1,3.1,0,0,1-1.06.71,3,3,0,0,1-1.09.21h-.06a3,3,0,0,1-1.15-.26,3.4,3.4,0,0,1-1.73-1.73,3,3,0,0,1-.26-1.15,3,3,0,0,1,.21-1.15,3.09,3.09,0,0,1,.71-1.06,3,3,0,0,1,1.05-.7,2.92,2.92,0,0,1,1.07-.21m-.11,4.93h.19a1.87,1.87,0,0,0,.64-.21,2.32,2.32,0,0,0,.55-.4,2.24,2.24,0,0,0,.4-.54,1.84,1.84,0,0,0,.2-.64,1.53,1.53,0,0,0-.06-.67,1.78,1.78,0,0,0-1.05-1.05,1.55,1.55,0,0,0-.47-.08h-.19a1.86,1.86,0,0,0-.64.2,2.23,2.23,0,0,0-.54.4,2.29,2.29,0,0,0-.4.55,1.84,1.84,0,0,0-.21.64,1.61,1.61,0,0,0,.06.67,1.73,1.73,0,0,0,1.05,1.05,1.66,1.66,0,0,0,.48.07m.11-7.93h0a5.92,5.92,0,0,0-2.15.41,6,6,0,0,0-3.38,8.05,6.4,6.4,0,0,0,3.29,3.29,6,6,0,0,0,2.27.51h.13a6,6,0,0,0,2.18-.42,6.1,6.1,0,0,0,2.09-1.38,6,6,0,0,0,1.38-2.08,5.86,5.86,0,0,0-.13-4.61A6.57,6.57,0,0,0,657,273a5.94,5.94,0,0,0-2.29-.54Z" transform="translate(-338.88 -156.16)"/><path d="M659.05,289.21a4.08,4.08,0,0,1-.95-.71,4.18,4.18,0,0,1-1.26-3.26,4.44,4.44,0,0,1,.43-1.63,5.08,5.08,0,0,1,1-1.4,4.92,4.92,0,0,1,1.42-1,4.41,4.41,0,0,1,1.65-.41h.2a4.19,4.19,0,0,1,3,1.25,4.52,4.52,0,0,1,.32.35l2.24-2.24,3.14,3.14-8.54,8.54Zm2.69-4-.12,0a.75.75,0,0,0-.19.14.83.83,0,0,0-.14.19.34.34,0,0,0,0,.12l.06.08a.44.44,0,0,0,.21,0,.54.54,0,0,0,.15-.1.57.57,0,0,0,.11-.16.36.36,0,0,0,0-.13.33.33,0,0,0,0-.12Z" transform="translate(-338.88 -156.16)"/><path class="cls-3" d="M667.07,282.27l1,1-6.42,6.42-1-1,.61-.61,0,0a2,2,0,0,1-.49.06,2,2,0,0,1-.64-.11,2.56,2.56,0,0,1-1-.62,2.74,2.74,0,0,1-.66-1,2.71,2.71,0,0,1-.16-1.09,2.94,2.94,0,0,1,.29-1.09,3.56,3.56,0,0,1,.7-1,3.4,3.4,0,0,1,1-.7,2.89,2.89,0,0,1,1.09-.27h.13a2.69,2.69,0,0,1,1.92.81,2.56,2.56,0,0,1,.44.57,2.52,2.52,0,0,1,.23.54,2.13,2.13,0,0,1,.08.49,2.2,2.2,0,0,1,0,.41l0,0,2.86-2.86m-5.7,5h.15a1.86,1.86,0,0,0,.66-.18,2,2,0,0,0,.95-.95,1.86,1.86,0,0,0,.19-.66,1.83,1.83,0,0,0-.07-.68,1.48,1.48,0,0,0-.38-.62,1.51,1.51,0,0,0-1.11-.48h-.19a1.82,1.82,0,0,0-.64.2,2.26,2.26,0,0,0-.54.4,2.34,2.34,0,0,0-.4.55,1.85,1.85,0,0,0-.21.64,1.59,1.59,0,0,0,.06.67,1.66,1.66,0,0,0,1,1,1.75,1.75,0,0,0,.53.08m5.7-9.23-2.12,2.12-.16.16a5.57,5.57,0,0,0-1.24-.65,5.67,5.67,0,0,0-2-.37h-.27a5.88,5.88,0,0,0-2.2.54,6.41,6.41,0,0,0-1.85,1.3,6.57,6.57,0,0,0-1.29,1.82,6,6,0,0,0-.57,2.19,5.68,5.68,0,0,0,1.7,4.41,5.62,5.62,0,0,0,1.09.85l.44.44,1,1,2.12,2.12,2.12-2.12,6.42-6.42,2.12-2.12-2.12-2.12-1-1L667.07,278Z" transform="translate(-338.88 -156.16)"/><path d="M665.8,296a3.61,3.61,0,0,1-.9-.67,3.66,3.66,0,0,1-.9-1.4,3.42,3.42,0,0,1-.17-1.49,3.64,3.64,0,0,1,.44-1.35,4.73,4.73,0,0,1,.78-1l3.61-3.61,3.14,3.14,2.73,2.73-6.19,6.2Z" transform="translate(-338.88 -156.16)"/><path class="cls-3" d="M668.64,288.53l1,1-2.26,2.26a4.24,4.24,0,0,0-.35.4,1.41,1.41,0,0,0-.24.46,1,1,0,0,0,0,.49,1,1,0,0,0,.29.5,1.24,1.24,0,0,0,.52.32,1.31,1.31,0,0,0,.38.06h.17a1.55,1.55,0,0,0,.53-.18,2,2,0,0,0,.46-.34l2.24-2.24,1,1-4.07,4.07-1-1,.65-.65,0,0a1.66,1.66,0,0,1-.6.11,2.3,2.3,0,0,1-.41,0,1.92,1.92,0,0,1-1-.56,2.17,2.17,0,0,1-.54-.82,1.92,1.92,0,0,1-.1-.84,2.13,2.13,0,0,1,.26-.79,3.2,3.2,0,0,1,.53-.7l2.55-2.54m0-4.24-2.12,2.12L664,289a6.24,6.24,0,0,0-1,1.35,5.15,5.15,0,0,0-.62,1.92,4.91,4.91,0,0,0,.24,2.13,5.14,5.14,0,0,0,1.26,2,5.2,5.2,0,0,0,1.05.81l.35.35,1,1,2.12,2.12,2.12-2.12,4.07-4.07,2.12-2.12-2.12-2.12-.61-.61h0l-2.12-2.12-1-1-2.12-2.12Z" transform="translate(-338.88 -156.16)"/><path d="M675.08,303.79a3.89,3.89,0,0,1-1.61-.36,4.94,4.94,0,0,1-1.44-1,5.08,5.08,0,0,1-1-1.42,4.32,4.32,0,0,1-.12-3.47,4.92,4.92,0,0,1,2.65-2.65,4.44,4.44,0,0,1,1.62-.31h.13A4.47,4.47,0,0,1,677,295a4.84,4.84,0,0,1,2.47,2.52,3.82,3.82,0,0,1,.31,1.86l-.13,1.45-2.94-.19,0,.43,0,2.71Zm.35-4.85-.07,0a.9.9,0,0,0-.19.15.72.72,0,0,0-.13.18.37.37,0,0,0,0,.13.32.32,0,0,0,.13.09l.26,0,.1-.53Z" transform="translate(-338.88 -156.16)"/><path class="cls-3" d="M675.17,296.07h.08a3,3,0,0,1,1.12.26,3.34,3.34,0,0,1,1.7,1.73,2.33,2.33,0,0,1,.2,1.13l-1.31-.09a1.26,1.26,0,0,0-.07-.64,1.56,1.56,0,0,0-.37-.6,1.45,1.45,0,0,0-.61-.38,1.5,1.5,0,0,0-.44-.07l-.21,0a1.86,1.86,0,0,0-.63.21,2.4,2.4,0,0,0-.54.4,2.2,2.2,0,0,0-.4.54,1.85,1.85,0,0,0-.2.64,1.54,1.54,0,0,0,.06.66,1.52,1.52,0,0,0,.39.62,1.84,1.84,0,0,0,.57.38,1.33,1.33,0,0,0,.53.12h.12v1.28h-.08a2.39,2.39,0,0,1-1-.23,3.42,3.42,0,0,1-1-.7,3.55,3.55,0,0,1-.71-1,2.82,2.82,0,0,1-.08-2.28A3.16,3.16,0,0,1,673,297a3.12,3.12,0,0,1,1.06-.72,2.92,2.92,0,0,1,1.07-.21m0-3a5.92,5.92,0,0,0-2.16.41,6.42,6.42,0,0,0-3.5,3.5,5.82,5.82,0,0,0,.16,4.66,6.56,6.56,0,0,0,1.3,1.83,6.43,6.43,0,0,0,1.88,1.32,5.38,5.38,0,0,0,2.23.5h.2l2.86-.11,0-2.87v-.12l2.83.19.27-2.91a5.3,5.3,0,0,0-.42-2.58,6.34,6.34,0,0,0-3.25-3.31,6,6,0,0,0-2.24-.51Z" transform="translate(-338.88 -156.16)"/><path d="M681,309.65a4.42,4.42,0,0,1-3.19-1.41,5,5,0,0,1-1-1.46,4.38,4.38,0,0,1-.41-1.68,4.15,4.15,0,0,1,.32-1.75,4.71,4.71,0,0,1,1.06-1.55,4.8,4.8,0,0,1,1.54-1.05,4.31,4.31,0,0,1,3.44,0,4.72,4.72,0,0,1,1.48,1,4.52,4.52,0,0,1,1,1.38,3.9,3.9,0,0,1,.34,1.68,4.23,4.23,0,0,1-.42,1.7,5.5,5.5,0,0,1-1.11,1.54l-.08.08a3.52,3.52,0,0,1-.32.29l-.54.44.06.5-1.43.21A4.42,4.42,0,0,1,681,309.65Z" transform="translate(-338.88 -156.16)"/><path class="cls-3" d="M681,301.9h0a2.89,2.89,0,0,1,1.12.24,3.21,3.21,0,0,1,1,.7,3,3,0,0,1,.64.92,2.41,2.41,0,0,1,.21,1,2.73,2.73,0,0,1-.28,1.1,4,4,0,0,1-.81,1.11l-.14.13-.14.13-3.1-3.1a1.42,1.42,0,0,0-.29.52,1.44,1.44,0,0,0-.05.57,1.79,1.79,0,0,0,.16.57,1.7,1.7,0,0,0,.35.5,1.93,1.93,0,0,0,.79.5,1.71,1.71,0,0,0,.5.08l.32,0,.14,1.22a2.83,2.83,0,0,1-2.56-.93,3.52,3.52,0,0,1-.73-1,2.88,2.88,0,0,1-.27-1.11,2.66,2.66,0,0,1,.21-1.12,3.22,3.22,0,0,1,.73-1.06,3.29,3.29,0,0,1,1.06-.73,2.9,2.9,0,0,1,1.13-.23m1.35,3.64a1.8,1.8,0,0,0,.32-.43,1.21,1.21,0,0,0,.14-.49,1.23,1.23,0,0,0-.08-.52,1.49,1.49,0,0,0-.35-.51,1.63,1.63,0,0,0-1.05-.5h-.11a1.42,1.42,0,0,0-.95.36l2.09,2.09M681,298.9a5.9,5.9,0,0,0-2.28.47,6.29,6.29,0,0,0-2,1.38,6.21,6.21,0,0,0-1.39,2.06,5.63,5.63,0,0,0-.43,2.37,5.87,5.87,0,0,0,.54,2.25,6.52,6.52,0,0,0,1.33,1.89,5.83,5.83,0,0,0,5.12,1.78l.28,0,.26.26.46-.37,1.86-.28-.12-1.13.29-.27,0,0,.06-.06a7,7,0,0,0,1.43-2,5.72,5.72,0,0,0,.56-2.3,5.41,5.41,0,0,0-.46-2.32,6,6,0,0,0-1.27-1.84,6.2,6.2,0,0,0-1.94-1.33,5.89,5.89,0,0,0-2.28-.49h0Z" transform="translate(-338.88 -156.16)"/><path d="M681.52,311.67l6.19-6.19,2.49,2.49a3.28,3.28,0,0,1,.87.63l.18.19a2.29,2.29,0,0,1,.31.45l.51,1L689,313.3l-1-1.67-.07-.08-.07,0-3.21,3.21Zm6.36-.17h0Z" transform="translate(-338.88 -156.16)"/><path class="cls-3" d="M687.72,307.6l1,1-.68.68,0,0a2.14,2.14,0,0,1,.72-.13l.33,0a1.68,1.68,0,0,1,.93.49l.12.13a.73.73,0,0,1,.1.14l-.93.93a2,2,0,0,0-.14-.21l-.13-.15a1.54,1.54,0,0,0-.69-.43A1.59,1.59,0,0,0,688,310l-.25,0a1.55,1.55,0,0,0-.53.2,2.08,2.08,0,0,0-.34.25l-2.18,2.18-1-1,4.07-4.07m0-4.24-2.12,2.12-4.07,4.07-2.12,2.12,2.12,2.12,1,1,2.12,2.12,2.12-2.12.86-.86,1,1.77,2.74-2.74.93-.93,1.56-1.56-1-1.91h0l0,0a3.74,3.74,0,0,0-.49-.71l-.28-.3a4.75,4.75,0,0,0-1-.77l-.3-.3-1-1-2.12-2.12Z" transform="translate(-338.88 -156.16)"/><path d="M454,305.16l-.39,0-1.42-.12.11-3.14-.24,0h-.18a3.66,3.66,0,0,1-1.23-.22,3.83,3.83,0,0,1-1.4-.92,3.7,3.7,0,0,1-1-1.65,3.87,3.87,0,0,1-.08-1.7,4.67,4.67,0,0,1,.56-1.51,5.88,5.88,0,0,1,.94-1.22,5.51,5.51,0,0,1,1.49-1.05,4.73,4.73,0,0,1,1.9-.49l1.49-.06.15,3.17.2,0a3.63,3.63,0,0,1,.5,0,3.77,3.77,0,0,1,1,.14,3.62,3.62,0,0,1,1.56,1,4.19,4.19,0,0,1,1,1.6,4,4,0,0,1,.19,1.72,4.37,4.37,0,0,1-.51,1.6,5.64,5.64,0,0,1-1,1.3,5.94,5.94,0,0,1-1.81,1.24A4.71,4.71,0,0,1,454,305.16Z" transform="translate(-338.88 -156.16)"/><path class="cls-3" d="M453.12,294.63l.07,1.46H453a2,2,0,0,0-.66.12,2,2,0,0,0-.77.47,2.15,2.15,0,0,0-.33.42,1.63,1.63,0,0,0-.2.48,1.14,1.14,0,0,0,0,.5,1,1,0,0,0,.28.48,1,1,0,0,0,.43.26,1,1,0,0,0,.26,0l.22,0a2.16,2.16,0,0,0,.54-.18l.62-.31.81-.39a3.23,3.23,0,0,1,.88-.25l.3,0a2.26,2.26,0,0,1,.62.09,2.13,2.13,0,0,1,.9.57,2.68,2.68,0,0,1,.67,1,2.48,2.48,0,0,1,.12,1.07,2.87,2.87,0,0,1-.34,1.05,4.13,4.13,0,0,1-.72,1,4.44,4.44,0,0,1-1.36.93,3.2,3.2,0,0,1-1.3.29h-.26l.05-1.48.32,0a2.27,2.27,0,0,0,.75-.13,2.22,2.22,0,0,0,1.24-1,1.43,1.43,0,0,0,.2-.51,1.25,1.25,0,0,0,0-.53,1.13,1.13,0,0,0-.31-.51,1,1,0,0,0-.5-.28l-.21,0a1.53,1.53,0,0,0-.35,0,3,3,0,0,0-.64.24l-.71.36a7.33,7.33,0,0,1-.75.34,2.54,2.54,0,0,1-.8.17h-.11a2.16,2.16,0,0,1-.73-.13,2.34,2.34,0,0,1-.84-.57,2.21,2.21,0,0,1-.6-1,2.38,2.38,0,0,1,0-1,3.16,3.16,0,0,1,.38-1,4.35,4.35,0,0,1,.7-.91,4,4,0,0,1,1.09-.77,3.21,3.21,0,0,1,1.3-.34m2.86-3.11-3,.12a6.21,6.21,0,0,0-2.51.64,7,7,0,0,0-1.89,1.34,7.36,7.36,0,0,0-1.17,1.53,6.16,6.16,0,0,0-.74,2,5.36,5.36,0,0,0,.1,2.36,5.17,5.17,0,0,0,1.37,2.32,5.32,5.32,0,0,0,2,1.28,5.42,5.42,0,0,0,.6.18v.28l-.1,2.84,2.83.25.52,0a6.19,6.19,0,0,0,2.51-.54,7.45,7.45,0,0,0,2.27-1.56,7.14,7.14,0,0,0,1.24-1.65,5.85,5.85,0,0,0,.68-2.14,5.48,5.48,0,0,0-.26-2.37,5.66,5.66,0,0,0-1.38-2.18,5.1,5.1,0,0,0-2.21-1.34,5.46,5.46,0,0,0-.7-.15v-.24l-.14-3Z" transform="translate(-338.88 -156.16)"/><path d="M461.57,298.23l-.41,0a3.12,3.12,0,0,1-1.26-.48,5.24,5.24,0,0,1-.85-.69l-.84-.84-.71.71L454.56,294l.71-.71-1.18-1.18,3.12-3.12,1.18,1.18,1-1,2.94,2.94-.1.1,1.38,1.28,1.64,1.5-.45,1a3.83,3.83,0,0,1-.39.66,4.7,4.7,0,0,1-.48.57,3.72,3.72,0,0,1-1.3.89A3,3,0,0,1,461.57,298.23Zm-.09-5,.18-.48-.33.33Z" transform="translate(-338.88 -156.16)"/><path class="cls-3" d="M457.22,291.06l1.18,1.18,1-1,.81.81-1,1,1.89,1.89a1.29,1.29,0,0,0,.55.35l.11,0a.76.76,0,0,0,.51-.27,1.71,1.71,0,0,0,.2-.24,1.18,1.18,0,0,0,.15-.28l.83.76a2.42,2.42,0,0,1-.24.4,3.18,3.18,0,0,1-.33.39,2.31,2.31,0,0,1-.78.55,1.47,1.47,0,0,1-.53.1h-.19a1.63,1.63,0,0,1-.66-.25,3.73,3.73,0,0,1-.61-.5l-1.9-1.9-.71.71-.81-.81.71-.71-1.18-1.18,1-1m0-4.24-2.12,2.12-1,1L452,292.06l1.18,1.18-.71.71,2.12,2.12.81.81L457.5,299l.72-.72a6.56,6.56,0,0,0,.89.69,4.59,4.59,0,0,0,1.84.7,4.32,4.32,0,0,0,.63,0,4.46,4.46,0,0,0,1.6-.3A5.26,5.26,0,0,0,465,298.2a6.2,6.2,0,0,0,.64-.75,5.34,5.34,0,0,0,.54-.91l.91-2-1.61-1.47-.83-.76-.23-.21.06-.06-2.12-2.12-.81-.81L459.42,287l-1,1-1.18-1.18Z" transform="translate(-338.88 -156.16)"/><path d="M465.64,294a3.28,3.28,0,0,1-.77-.09,3.06,3.06,0,0,1-1.46-.85,2.9,2.9,0,0,1-.91-2s0-.1,0-.14l-1.74-.14.06-1.44a4.77,4.77,0,0,1,.46-1.87,5.37,5.37,0,0,1,1.05-1.5,4.6,4.6,0,0,1,1.56-1.08,3.67,3.67,0,0,1,1.35-.27h.3a3.52,3.52,0,0,1,1.45.46,4.84,4.84,0,0,1,1,.77l3.54,3.54L469,291.91a4.08,4.08,0,0,1-.67.87,4.6,4.6,0,0,1-.86.67,3.63,3.63,0,0,1-1.19.47A3.18,3.18,0,0,1,465.64,294Z" transform="translate(-338.88 -156.16)"/><path class="cls-3" d="M465.24,286.1h.16a2,2,0,0,1,.84.27,3.33,3.33,0,0,1,.69.53l2.48,2.48-1,1-.52-.52,0,0a1.61,1.61,0,0,1,0,.94,2.35,2.35,0,0,1-.6.95,3.09,3.09,0,0,1-.58.45,2.14,2.14,0,0,1-.7.28,1.67,1.67,0,0,1-.34,0,1.8,1.8,0,0,1-.42-.05,1.59,1.59,0,0,1-.75-.45,1.43,1.43,0,0,1-.47-1,2.36,2.36,0,0,1,.25-1.08,5.27,5.27,0,0,1,.71-1.09q.45-.54.92-1l-.1-.1a.93.93,0,0,0-.66-.31l-.18,0a1.64,1.64,0,0,0-.84.48,2.09,2.09,0,0,0-.48.76,2.38,2.38,0,0,0-.16.82l-1.15-.09a3.26,3.26,0,0,1,.32-1.29,3.86,3.86,0,0,1,.76-1.08,3.18,3.18,0,0,1,1-.74,2.18,2.18,0,0,1,.8-.16m.68,5,.18,0a1.05,1.05,0,0,0,.31-.14,1.83,1.83,0,0,0,.28-.23,1.5,1.5,0,0,0,.52-1.08,1.49,1.49,0,0,0-.49-1l-.14-.14-.23.23c-.16.16-.33.34-.5.54a3.21,3.21,0,0,0-.41.59,1.52,1.52,0,0,0-.18.58.64.64,0,0,0,.21.51.62.62,0,0,0,.31.18h.14m-.68-8a5.17,5.17,0,0,0-1.89.37,6.15,6.15,0,0,0-2.08,1.42,6.86,6.86,0,0,0-1.34,1.91,6.26,6.26,0,0,0-.61,2.46l-.11,2.88,2,.16a4.8,4.8,0,0,0,3.3,3.06,4.82,4.82,0,0,0,1.13.13,4.68,4.68,0,0,0,1-.1,5.13,5.13,0,0,0,1.67-.67,6.06,6.06,0,0,0,1.12-.88,5.67,5.67,0,0,0,.8-1l.38-.38,1-1,2.12-2.12-2.12-2.12L469,284.78a6.33,6.33,0,0,0-1.3-1,5,5,0,0,0-2.06-.66l-.44,0Z" transform="translate(-338.88 -156.16)"/><path d="M469.19,285.2l-.77.77L465.48,283l.8-.8a5.59,5.59,0,0,1-.4-.58,3.76,3.76,0,0,1-.52-1.43,3.36,3.36,0,0,1,.18-1.63,4.07,4.07,0,0,1,1-1.49,5.17,5.17,0,0,1,.42-.38,3.53,3.53,0,0,1,.49-.32l1.07-.6,2.79,3.26,0,0,2,2-.94.94,3.26,3.26-3.14,3.14Z" transform="translate(-338.88 -156.16)"/><path class="cls-3" d="M468.15,277.71l.8.93-.22.14a1.79,1.79,0,0,0-.22.19,1,1,0,0,0-.27.44.82.82,0,0,0,0,.43,1.29,1.29,0,0,0,.2.39,2.78,2.78,0,0,0,.29.34l.66.66.94-.94.81.81-.94.94,3.26,3.26-1,1-3.26-3.26-.77.77-.81-.81.77-.77-.6-.6a4.2,4.2,0,0,1-.62-.78,2.26,2.26,0,0,1-.32-.86,1.87,1.87,0,0,1,.1-.91,2.59,2.59,0,0,1,.64-.94,3.74,3.74,0,0,1,.3-.27,2,2,0,0,1,.28-.19m.69-3.82-2.15,1.2a5.05,5.05,0,0,0-.69.46,6.53,6.53,0,0,0-.54.49,5.55,5.55,0,0,0-1.35,2.06,4.83,4.83,0,0,0-.25,2.33,5.22,5.22,0,0,0,.5,1.59l-1,1,2.12,2.12.81.81,2.12,2.12.77-.77,1.14,1.14,2.12,2.12,2.12-2.12,1-1,2.12-2.12-2.12-2.12-1.14-1.14.94-.94L473.27,279l-.11-.11-1.93-2.18-.8-.93-1.6-1.87Z" transform="translate(-338.88 -156.16)"/><path d="M473.46,280.93l-.77.77-2.94-2.94.8-.8a5.51,5.51,0,0,1-.41-.58,3.72,3.72,0,0,1-.52-1.43,3.38,3.38,0,0,1,.17-1.63,4.08,4.08,0,0,1,1-1.49,5.07,5.07,0,0,1,.42-.39,3.49,3.49,0,0,1,.48-.32l1.07-.6,2.8,3.27,0,0,2,2-.94.94,3.26,3.26-3.14,3.14Z" transform="translate(-338.88 -156.16)"/><path class="cls-3" d="M472.42,273.45l.8.93-.22.14a1.76,1.76,0,0,0-.23.19,1,1,0,0,0-.27.44.82.82,0,0,0,0,.43,1.31,1.31,0,0,0,.2.39,2.79,2.79,0,0,0,.29.34l.66.66.94-.94.81.81-.94.94,3.26,3.26-1,1-3.26-3.26-.77.77-.81-.81.77-.77-.6-.6a4.15,4.15,0,0,1-.62-.78,2.24,2.24,0,0,1-.32-.86,1.88,1.88,0,0,1,.1-.91,2.6,2.6,0,0,1,.64-.94,3.66,3.66,0,0,1,.3-.27,2,2,0,0,1,.28-.19m.68-3.82-2.15,1.2a5.05,5.05,0,0,0-.69.46,6.45,6.45,0,0,0-.55.49,5.56,5.56,0,0,0-1.35,2.06,4.85,4.85,0,0,0-.25,2.33,5.2,5.2,0,0,0,.5,1.59l-1,1,2.12,2.12.81.81,2.12,2.12.77-.77,1.14,1.14,2.12,2.12,2.12-2.12,1-1L482,281l-2.12-2.12-1.14-1.14.94-.94-2.12-2.12-.51-.51-1.53-1.79-.8-.93-1.6-1.87Z" transform="translate(-338.88 -156.16)"/><path d="M828.74,299.9l3-3a7.54,7.54,0,0,1,1.29-1,4.24,4.24,0,0,1,1.57-.62,3.51,3.51,0,0,1,1.73.15,4,4,0,0,1,1.53,1,3.92,3.92,0,0,1,1,1.67,3.67,3.67,0,0,1,.07,1.77,4.65,4.65,0,0,1-.65,1.55,7.33,7.33,0,0,1-.78,1l2.49,2.49L836.87,308Z" transform="translate(-338.88 -156.16)"/><path class="cls-3" d="M835.21,296.66a2,2,0,0,1,.66.11,2.56,2.56,0,0,1,1,.64,2.45,2.45,0,0,1,.65,1,2.16,2.16,0,0,1,0,1.05,3.13,3.13,0,0,1-.44,1,6,6,0,0,1-.81,1l-.82.82,2.49,2.49-1.07,1.07-6-6,2-2a6,6,0,0,1,1-.84,2.74,2.74,0,0,1,1-.41l.34,0m-.65,4.79.75-.75a4.4,4.4,0,0,0,.46-.54,2,2,0,0,0,.29-.56,1.11,1.11,0,0,0,0-.56,1.13,1.13,0,0,0-.33-.55,1.08,1.08,0,0,0-.54-.32l-.21,0a1.11,1.11,0,0,0-.34.06,1.75,1.75,0,0,0-.54.29,5.44,5.44,0,0,0-.51.45l-.78.78,1.72,1.72m.65-7.79a5.07,5.07,0,0,0-.83.07,5.73,5.73,0,0,0-2.13.83,9,9,0,0,0-1.54,1.25l-2,2-2.12,2.12,2.12,2.12,6,6,2.12,2.12L839,308l1.07-1.07,2.13-2.12-2.12-2.12-.5-.5,0-.07a6.12,6.12,0,0,0,.85-2,5.16,5.16,0,0,0-.1-2.51,5.41,5.41,0,0,0-1.41-2.31,5.53,5.53,0,0,0-2.1-1.35,5,5,0,0,0-1.64-.28Z" transform="translate(-338.88 -156.16)"/><path d="M837.11,295.4l2.49-2.49a3.27,3.27,0,0,1,.63-.87l.21-.19a2.21,2.21,0,0,1,.43-.3l1-.51,3.07,3.07-1.65,1-.08.07,0,.07,3.22,3.21-3.14,3.14Z" transform="translate(-338.88 -156.16)"/><path class="cls-3" d="M841.57,292.88l.93.93-.21.14-.15.13a1.53,1.53,0,0,0-.43.69,1.45,1.45,0,0,0,0,.64,1.55,1.55,0,0,0,.21.53,2,2,0,0,0,.25.34l2.18,2.18-1,1-4.07-4.07,1-1,.68.68,0,0a2.11,2.11,0,0,1-.1-1.05,1.68,1.68,0,0,1,.49-.93l.13-.12.14-.1m.56-3.68-1.9,1h0l0,0a3.72,3.72,0,0,0-.72.5l-.26.24a4.92,4.92,0,0,0-.79,1l-.3.3-1,1L835,295.4l2.12,2.12,4.07,4.07,2.12,2.12,2.12-2.12,1-1,2.13-2.12-2.12-2.12-.87-.87,1.74-1.05-2.69-2.71-.93-.93-1.56-1.56Z" transform="translate(-338.88 -156.16)"/><path d="M847.8,295.45a4.49,4.49,0,0,1-1.64-.31,4.6,4.6,0,0,1-1.57-1,4.55,4.55,0,0,1-1-1.57,4.37,4.37,0,0,1,.1-3.44,5.08,5.08,0,0,1,2.48-2.48,4.44,4.44,0,0,1,1.71-.4H848a4.43,4.43,0,0,1,1.6.31,4.55,4.55,0,0,1,1.57,1,4.61,4.61,0,0,1,1,1.57,4.48,4.48,0,0,1,.32,1.74,4.56,4.56,0,0,1-.38,1.71,4.91,4.91,0,0,1-2.51,2.51,4.53,4.53,0,0,1-1.71.38Z" transform="translate(-338.88 -156.16)"/><path class="cls-3" d="M848,287.69a2.92,2.92,0,0,1,1.06.2,3,3,0,0,1,1.05.7,3.1,3.1,0,0,1,.71,1.06,3,3,0,0,1,.21,1.15,3,3,0,0,1-.26,1.15,3.4,3.4,0,0,1-1.73,1.73,3,3,0,0,1-1.15.26h-.06a3,3,0,0,1-1.09-.21,3.09,3.09,0,0,1-1.06-.71,3,3,0,0,1-.7-1.05,2.91,2.91,0,0,1-.2-1.15,2.94,2.94,0,0,1,.27-1.14,3.57,3.57,0,0,1,1.73-1.73,2.94,2.94,0,0,1,1.14-.27H848m.1,4.93a1.65,1.65,0,0,0,.48-.07,1.73,1.73,0,0,0,1.05-1.05,1.62,1.62,0,0,0,.06-.67,1.87,1.87,0,0,0-.21-.64,2.32,2.32,0,0,0-.4-.55,2.24,2.24,0,0,0-.54-.4,1.84,1.84,0,0,0-.64-.2h-.19a1.57,1.57,0,0,0-.48.08,1.78,1.78,0,0,0-1.05,1.05,1.53,1.53,0,0,0-.06.67,1.86,1.86,0,0,0,.2.64,2.23,2.23,0,0,0,.4.54,2.29,2.29,0,0,0,.55.4,1.84,1.84,0,0,0,.64.21h.19m-.1-7.93h-.17a5.93,5.93,0,0,0-2.29.54,6.57,6.57,0,0,0-3.22,3.23,5.86,5.86,0,0,0-.13,4.61,6.1,6.1,0,0,0,5.65,3.89h.13a6,6,0,0,0,2.28-.51,6.4,6.4,0,0,0,3.29-3.29,6,6,0,0,0,.51-2.27,6,6,0,0,0-.42-2.32,6.1,6.1,0,0,0-1.38-2.09,6,6,0,0,0-2.08-1.38,5.94,5.94,0,0,0-2.15-.41Z" transform="translate(-338.88 -156.16)"/><path d="M854.49,288.65a4.44,4.44,0,0,1-1.63-.43,5.08,5.08,0,0,1-1.4-1,4.91,4.91,0,0,1-1-1.42,4.38,4.38,0,0,1-.41-1.65,4.18,4.18,0,0,1,1.24-3.17,4.43,4.43,0,0,1,.35-.32l-2.24-2.24,3.14-3.14,8.54,8.54-2.62,2.62a4.11,4.11,0,0,1-.71.95,4.18,4.18,0,0,1-3,1.27Zm.07-5-.1,0a.22.22,0,0,0,0,.17.75.75,0,0,0,.14.19.84.84,0,0,0,.2.14.34.34,0,0,0,.12,0l.08-.06a.39.39,0,0,0,0-.07.35.35,0,0,0,0-.13.54.54,0,0,0-.1-.15.56.56,0,0,0-.16-.11l-.13,0Z" transform="translate(-338.88 -156.16)"/><path class="cls-3" d="M852.54,277.41l6.42,6.42-1,1-.61-.61,0,0a2,2,0,0,1,0,1.13,2.56,2.56,0,0,1-.62,1,2.69,2.69,0,0,1-1.94.83h-.16a2.94,2.94,0,0,1-1.09-.29,3.56,3.56,0,0,1-1-.7,3.4,3.4,0,0,1-.7-1,2.89,2.89,0,0,1-.27-1.09,2.67,2.67,0,0,1,.17-1.08,2.7,2.7,0,0,1,.63-1,2.56,2.56,0,0,1,.57-.44,2.52,2.52,0,0,1,.54-.23,2.13,2.13,0,0,1,.49-.08h.12l.29,0,0,0-2.86-2.86,1-1m2.39,8.34a1.64,1.64,0,0,0,.47-.07,1.66,1.66,0,0,0,1-1,1.75,1.75,0,0,0,.08-.68,1.86,1.86,0,0,0-.18-.66,2,2,0,0,0-.95-.95,1.86,1.86,0,0,0-.66-.19h-.15a1.85,1.85,0,0,0-.53.08,1.48,1.48,0,0,0-.62.38,1.56,1.56,0,0,0-.4.63,1.52,1.52,0,0,0-.06.67,1.82,1.82,0,0,0,.2.64,2.26,2.26,0,0,0,.4.54,2.34,2.34,0,0,0,.55.4,1.85,1.85,0,0,0,.64.21h.2m-2.39-12.58-2.12,2.12-1,1-2.12,2.12,2.12,2.12.16.16a5.57,5.57,0,0,0-.65,1.24,5.66,5.66,0,0,0-.36,2.28,5.88,5.88,0,0,0,.54,2.2,6.41,6.41,0,0,0,1.3,1.85,6.57,6.57,0,0,0,1.82,1.29,6,6,0,0,0,2.19.57h.35a5.69,5.69,0,0,0,4.06-1.71,5.62,5.62,0,0,0,.85-1.09l.44-.44,1-1,2.12-2.12-2.12-2.12-6.42-6.42-2.12-2.12Z" transform="translate(-338.88 -156.16)"/><path d="M862,281.7l-.37,0a3.64,3.64,0,0,1-1.35-.44,4.74,4.74,0,0,1-1-.78l-3.61-3.61,3.14-3.14,2.73-2.73,6.2,6.19-2.52,2.52a3.61,3.61,0,0,1-.67.9,3.66,3.66,0,0,1-1.4.9A3.48,3.48,0,0,1,862,281.7Z" transform="translate(-338.88 -156.16)"/><path class="cls-3" d="M861.53,273.1l4.07,4.07-1,1-.65-.65,0,0a1.86,1.86,0,0,1,.07,1,1.92,1.92,0,0,1-.56,1,2.17,2.17,0,0,1-.82.54,2,2,0,0,1-.64.11h-.2a2.12,2.12,0,0,1-.79-.26,3.17,3.17,0,0,1-.7-.53l-2.54-2.55,1-1,2.26,2.26a4,4,0,0,0,.4.35,1.41,1.41,0,0,0,.46.24,1,1,0,0,0,.3,0l.2,0a1,1,0,0,0,.5-.29,1.24,1.24,0,0,0,.32-.52,1.26,1.26,0,0,0,0-.55,1.57,1.57,0,0,0-.18-.53,2,2,0,0,0-.34-.46l-2.24-2.24,1-1m0-4.24L859.41,271l-.61.61h0l-2.12,2.12-1,1-2.12,2.12,2.12,2.12,2.54,2.55a6.2,6.2,0,0,0,1.35,1,5.14,5.14,0,0,0,1.92.62,4.8,4.8,0,0,0,.54,0,5,5,0,0,0,1.6-.27,5.36,5.36,0,0,0,2.79-2.31l.35-.35,1-1,2.12-2.12-2.12-2.12L863.65,271l-2.12-2.12Z" transform="translate(-338.88 -156.16)"/><path d="M868.38,274.9a4.36,4.36,0,0,1-1.6-.31,4.68,4.68,0,0,1-1.59-1.07,4.63,4.63,0,0,1-1.05-1.58,4.37,4.37,0,0,1-.31-1.74,4.5,4.5,0,0,1,.39-1.68,4.83,4.83,0,0,1,2.52-2.47,3.92,3.92,0,0,1,1.53-.33h.32l1.45.13-.2,3,3.15,0,.05,1.44a3.86,3.86,0,0,1-.36,1.74,4.91,4.91,0,0,1-1,1.44,5,5,0,0,1-1.42,1,4.36,4.36,0,0,1-1.72.42Zm-.16-4.87s0,.07,0,.11a.92.92,0,0,0,.15.19.73.73,0,0,0,.18.13l.13,0a.34.34,0,0,0,.08-.1l0-.29Z" transform="translate(-338.88 -156.16)"/><path class="cls-3" d="M868.26,267.21h.18l-.09,1.31-.17,0a1.41,1.41,0,0,0-.47.09,1.56,1.56,0,0,0-.6.37,1.44,1.44,0,0,0-.38.61,1.5,1.5,0,0,0-.05.65,1.88,1.88,0,0,0,.21.63,2.4,2.4,0,0,0,.4.54,2.23,2.23,0,0,0,.54.4,1.85,1.85,0,0,0,.64.2h.2a1.57,1.57,0,0,0,.47-.07,1.51,1.51,0,0,0,.62-.39,1.82,1.82,0,0,0,.38-.57,1.28,1.28,0,0,0,.11-.65h1.28a2.37,2.37,0,0,1-.23,1.07,3.4,3.4,0,0,1-.7,1,3.53,3.53,0,0,1-1,.71,2.85,2.85,0,0,1-1.13.28h-.1a2.86,2.86,0,0,1-1.05-.21,3.18,3.18,0,0,1-1.08-.73,3.13,3.13,0,0,1-.72-1.06,2.89,2.89,0,0,1-.21-1.15,3,3,0,0,1,.26-1.12,3.33,3.33,0,0,1,1.73-1.7,2.42,2.42,0,0,1,.95-.21m0-3a5.41,5.41,0,0,0-2.12.45,6.33,6.33,0,0,0-3.3,3.25,6,6,0,0,0-.51,2.24,5.88,5.88,0,0,0,.41,2.34,6.41,6.41,0,0,0,3.5,3.5,5.85,5.85,0,0,0,2.15.41h.22a5.84,5.84,0,0,0,2.3-.57,6.54,6.54,0,0,0,1.84-1.3,6.4,6.4,0,0,0,1.31-1.88,5.35,5.35,0,0,0,.49-2.42l-.1-2.87-2.87,0h-.12l.19-2.83-2.91-.27-.46,0Z" transform="translate(-338.88 -156.16)"/><path d="M874.2,269.08a4.18,4.18,0,0,1-1.6-.32,4.72,4.72,0,0,1-1.55-1.06,4.8,4.8,0,0,1-1.05-1.54,4.31,4.31,0,0,1,0-3.44,4.73,4.73,0,0,1,1-1.48,4.53,4.53,0,0,1,1.38-1A3.91,3.91,0,0,1,874,260a4.33,4.33,0,0,1,1.79.42,5.53,5.53,0,0,1,1.53,1.11l.08.08a3.57,3.57,0,0,1,.29.32l.44.54.5-.06.21,1.43a4.38,4.38,0,0,1-1.36,3.84,5,5,0,0,1-1.46,1,4.39,4.39,0,0,1-1.68.41Z" transform="translate(-338.88 -156.16)"/><path class="cls-3" d="M874,261.46h.06a2.74,2.74,0,0,1,1.1.28,4,4,0,0,1,1.11.81l.13.14.13.14-3.1,3.1a1.42,1.42,0,0,0,.94.35h.15a1.79,1.79,0,0,0,.57-.16,1.68,1.68,0,0,0,.5-.35,1.92,1.92,0,0,0,.5-.79,1.71,1.71,0,0,0,0-.82l1.22-.14a2.89,2.89,0,0,1-.93,2.56,3.53,3.53,0,0,1-1,.73,2.89,2.89,0,0,1-1.11.27h-.1a2.68,2.68,0,0,1-1-.21,3.23,3.23,0,0,1-1.06-.73,3.29,3.29,0,0,1-.73-1.06,2.81,2.81,0,0,1,0-2.27,3.23,3.23,0,0,1,.7-1,3,3,0,0,1,.92-.64,2.41,2.41,0,0,1,1-.21m-1.3,3.74,2.09-2.09a1.8,1.8,0,0,0-.43-.32,1.21,1.21,0,0,0-.49-.14h-.07a1.25,1.25,0,0,0-.45.09,1.49,1.49,0,0,0-.51.35,1.62,1.62,0,0,0-.5,1.05,1.42,1.42,0,0,0,.36,1.06m1.3-6.74h0a5.41,5.41,0,0,0-2.19.46,6,6,0,0,0-1.84,1.27,6.22,6.22,0,0,0-1.33,1.95,5.81,5.81,0,0,0,0,4.61,6.29,6.29,0,0,0,1.38,2,6.22,6.22,0,0,0,2.05,1.39,5.66,5.66,0,0,0,2.15.43h.22a5.88,5.88,0,0,0,2.25-.54,6.53,6.53,0,0,0,1.89-1.33,5.9,5.9,0,0,0,1.78-5.13l0-.28.26-.26-.37-.46-.28-1.86-1.13.12-.27-.3,0,0-.06-.06a7.07,7.07,0,0,0-2-1.43,5.73,5.73,0,0,0-2.3-.56Z" transform="translate(-338.88 -156.16)"/><path d="M874.74,257.78l2.49-2.49a3.28,3.28,0,0,1,.63-.87l.2-.19a2.25,2.25,0,0,1,.44-.3l1-.51,3.08,3.08-1.67,1-.08.07,0,.07,3.21,3.21L880.93,264Z" transform="translate(-338.88 -156.16)"/><path class="cls-3" d="M879.19,255.26l.93.93-.21.14-.15.13a1.54,1.54,0,0,0-.43.69,1.43,1.43,0,0,0,0,.64,1.57,1.57,0,0,0,.2.53,2,2,0,0,0,.25.34l2.18,2.18-1,1-4.07-4.07,1-1,.68.68,0,0a2.09,2.09,0,0,1-.1-1.05,1.68,1.68,0,0,1,.49-.93l.13-.12.14-.1m.56-3.68-1.91,1h0l0,0a3.74,3.74,0,0,0-.71.49l-.3.28a4.76,4.76,0,0,0-.77,1l-.3.3-1,1-2.12,2.12,2.12,2.12,4.07,4.07,2.12,2.12L883,264l1-1,2.12-2.12-2.12-2.12-.86-.86,1.77-1-2.74-2.74-.93-.93-1.56-1.56Z" transform="translate(-338.88 -156.16)"/><polygon points="605.86 231 605.07 229.06 603.41 229.06 602.65 231 597.65 231 602.65 219.5 605.93 219.5 610.88 231 605.86 231"/><path class="cls-3" d="M943.81,377.16l3.66,8.5h-1.73l-.79-1.94h-3.68l-.77,1.94h-1.69l3.7-8.5h1.31m-2,5.26h2.64L943.12,379l-1.33,3.46m4-8.26h-5.25l-.78,1.8-3.7,8.5-1.83,4.2h8.31l.58-1.48.6,1.48H952l-1.8-4.19-3.66-8.5-.78-1.81Z" transform="translate(-338.88 -156.16)"/><polygon points="615.88 231 615.66 230.31 615.44 231 611.82 231 608.77 222.24 613.56 222.24 613.67 222.61 613.78 222.24 617.55 222.24 617.68 222.68 617.81 222.24 622.54 222.24 619.51 231 615.88 231"/><path class="cls-3" d="M959.31,379.9l-2,5.76h-1.46l-1.31-4h0l-1.3,4h-1.46l-2-5.76h1.56l1.2,4.13h0l1.24-4.13h1.54l1.25,4.13h0l1.22-4.13h1.5m4.21-3h-18l1.39,4,2,5.76.7,2h9.83l.7-2,2-5.76,1.38-4Z" transform="translate(-338.88 -156.16)"/><path d="M964.37,387.3a4.69,4.69,0,0,1-1.07-.13,3.67,3.67,0,0,1-1.18-.51,3.21,3.21,0,0,1-1-1,3.06,3.06,0,0,1-.43-1.63,2.9,2.9,0,0,1,.78-2.07l.1-.1-1.13-1.33,1.06-1a4.76,4.76,0,0,1,1.65-1,5.38,5.38,0,0,1,1.8-.31,4.64,4.64,0,0,1,1.86.34,3.55,3.55,0,0,1,1.35,1,3.51,3.51,0,0,1,.69,1.35,4.92,4.92,0,0,1,.16,1.25v5h-3.58A4.07,4.07,0,0,1,964.37,387.3Z" transform="translate(-338.88 -156.16)"/><path class="cls-3" d="M965,379.73a3.21,3.21,0,0,1,1.27.22,2.06,2.06,0,0,1,.79.56,2,2,0,0,1,.4.78,3.37,3.37,0,0,1,.11.86v3.5h-1.34v-.73h0a1.61,1.61,0,0,1-.7.63,2.36,2.36,0,0,1-1.09.25,3.16,3.16,0,0,1-.73-.09,2.16,2.16,0,0,1-.7-.3,1.73,1.73,0,0,1-.53-.55,1.58,1.58,0,0,1-.21-.85,1.43,1.43,0,0,1,.37-1,2.37,2.37,0,0,1,.94-.59,5.37,5.37,0,0,1,1.28-.27q.7-.06,1.37-.07v-.14a.89.89,0,0,0-.39-.8,1.65,1.65,0,0,0-.93-.26,2.09,2.09,0,0,0-.88.19,2.37,2.37,0,0,0-.7.47l-.74-.88a3.26,3.26,0,0,1,1.13-.68,3.88,3.88,0,0,1,1.3-.23m-.31,5a1.51,1.51,0,0,0,1.13-.4,1.49,1.49,0,0,0,.38-1.08V383h-.32l-.73,0a3.2,3.2,0,0,0-.71.13,1.52,1.52,0,0,0-.54.29.64.64,0,0,0-.22.51.61.61,0,0,0,.09.34.69.69,0,0,0,.23.22,1.06,1.06,0,0,0,.32.12,1.88,1.88,0,0,0,.36,0m.31-8a6.89,6.89,0,0,0-2.3.4,6.26,6.26,0,0,0-2.17,1.31l-2.11,2,1.3,1.53a4.8,4.8,0,0,0,.18,4.51,4.7,4.7,0,0,0,1.43,1.48,5.15,5.15,0,0,0,1.65.71,6.2,6.2,0,0,0,1.43.17,5.61,5.61,0,0,0,1.28-.14h4.89v-6.5a6.39,6.39,0,0,0-.21-1.63,5,5,0,0,0-2.89-3.33,6.17,6.17,0,0,0-2.46-.47Z" transform="translate(-338.88 -156.16)"/><path d="M970.12,387.16V378.4h3.53a3.27,3.27,0,0,1,1.06-.17H975a2.19,2.19,0,0,1,.54.1l1,.34V383l-1.87-.48h-.11a.43.43,0,0,0,0,.08v4.55Z" transform="translate(-338.88 -156.16)"/><path class="cls-3" d="M974.7,379.73h.18l.17,0v1.32l-.25,0h-.2a1.54,1.54,0,0,0-.79.18,1.44,1.44,0,0,0-.47.43,1.54,1.54,0,0,0-.23.52,2,2,0,0,0-.06.42v3.08h-1.44V379.9H973v1h0a2.11,2.11,0,0,1,.67-.82,1.68,1.68,0,0,1,1-.31m0-3a4.84,4.84,0,0,0-1.27.17h-4.81v11.76h7.44v-4.22l2,.51v-7.36l-2.05-.67v0h-.07a3.68,3.68,0,0,0-.86-.16Z" transform="translate(-338.88 -156.16)"/><path d="M980.65,387.32a4.24,4.24,0,0,1-1.82-.39,4.19,4.19,0,0,1-1.37-1,4.45,4.45,0,0,1-.86-1.46,5.08,5.08,0,0,1-.28-1.7,4.91,4.91,0,0,1,.3-1.71,4.41,4.41,0,0,1,.87-1.45,4.2,4.2,0,0,1,3.13-1.37l.47,0v-3.17h4.44v12.07h-3.7A4.11,4.11,0,0,1,980.65,387.32Zm.29-4.92h-.07a1,1,0,0,0-.05.12.77.77,0,0,0,0,.22.85.85,0,0,0,0,.24.37.37,0,0,0,.05.11l.11,0a.43.43,0,0,0,.12-.17.52.52,0,0,0,0-.18.57.57,0,0,0,0-.19.33.33,0,0,0-.16-.2Z" transform="translate(-338.88 -156.16)"/><path class="cls-3" d="M984,376.58v9.07h-1.37v-.86h0a2,2,0,0,1-.83.77,2.56,2.56,0,0,1-1.15.26,2.74,2.74,0,0,1-1.18-.25,2.71,2.71,0,0,1-.89-.66,3,3,0,0,1-.56-1,3.55,3.55,0,0,1-.2-1.19,3.38,3.38,0,0,1,.2-1.19,2.9,2.9,0,0,1,.58-1,2.69,2.69,0,0,1,2-.88,2.52,2.52,0,0,1,1.25.31,2.14,2.14,0,0,1,.4.29,2.29,2.29,0,0,1,.28.3h0v-4H984m-3.08,8a1.52,1.52,0,0,0,.71-.16,1.73,1.73,0,0,0,.53-.43,1.84,1.84,0,0,0,.34-.59,2,2,0,0,0,.11-.67,2.08,2.08,0,0,0-.11-.67,1.83,1.83,0,0,0-.87-1,1.48,1.48,0,0,0-.71-.17,1.56,1.56,0,0,0-.73.16,1.54,1.54,0,0,0-.52.43,1.86,1.86,0,0,0-.31.59,2.26,2.26,0,0,0-.1.67,2.33,2.33,0,0,0,.1.67,1.84,1.84,0,0,0,.31.6,1.59,1.59,0,0,0,.52.43,1.52,1.52,0,0,0,.73.17m6.08-11h-7.44v3.23a5.56,5.56,0,0,0-1.34.41,5.67,5.67,0,0,0-1.86,1.35,5.9,5.9,0,0,0-1.18,1.95,6.38,6.38,0,0,0-.39,2.23,6.55,6.55,0,0,0,.37,2.2,6,6,0,0,0,1.14,2,5.69,5.69,0,0,0,4.32,1.92,5.61,5.61,0,0,0,1.37-.17h5V373.58Z" transform="translate(-338.88 -156.16)"/><path class="cls-4" d="M1133.81,391.87a4.81,4.81,0,0,1-4.8-.08,5.84,5.84,0,0,1-1.82-1.87,9.48,9.48,0,0,1-1.14-2.82,16,16,0,0,1,0-7.08,9.3,9.3,0,0,1,1.15-2.82,5.83,5.83,0,0,1,1.84-1.86,4.55,4.55,0,0,1,2.45-.67,5.09,5.09,0,0,1,2.24.5,4.27,4.27,0,0,1,1.74,1.58l-1.08,1.1a3.73,3.73,0,0,0-1.28-1.25,3.13,3.13,0,0,0-1.55-.41,3,3,0,0,0-1.84.58,4.43,4.43,0,0,0-1.29,1.58,8.61,8.61,0,0,0-.77,2.35,15.49,15.49,0,0,0-.25,2.86,14.56,14.56,0,0,0,.26,2.84,9,9,0,0,0,.78,2.34,4.54,4.54,0,0,0,1.3,1.6,3,3,0,0,0,1.84.59,2.84,2.84,0,0,0,1.66-.52,4.09,4.09,0,0,0,1.22-1.36l1.06,1.08A4.79,4.79,0,0,1,1133.81,391.87Z" transform="translate(-338.88 -156.16)"/><path class="cls-4" d="M1145.09,386.13a10.59,10.59,0,0,1-.29,2.57,6.83,6.83,0,0,1-.82,2,3.82,3.82,0,0,1-1.31,1.3,3.38,3.38,0,0,1-1.74.46,3.31,3.31,0,0,1-1.73-.46,4,4,0,0,1-1.31-1.3,6.63,6.63,0,0,1-.83-2,10.59,10.59,0,0,1-.29-2.57,11.36,11.36,0,0,1,.28-2.59,6.63,6.63,0,0,1,.8-2,3.82,3.82,0,0,1,1.31-1.3,3.43,3.43,0,0,1,1.76-.46,3.39,3.39,0,0,1,1.74.46,3.84,3.84,0,0,1,1.31,1.3,6.82,6.82,0,0,1,.82,2A10.87,10.87,0,0,1,1145.09,386.13Zm-1.63,0a11.59,11.59,0,0,0-.16-2,6.06,6.06,0,0,0-.47-1.57,3,3,0,0,0-.78-1,1.71,1.71,0,0,0-1.12-.38,1.76,1.76,0,0,0-1.13.38,2.77,2.77,0,0,0-.78,1,6.43,6.43,0,0,0-.46,1.57,11.59,11.59,0,0,0-.16,2,11.16,11.16,0,0,0,.16,1.94,6.62,6.62,0,0,0,.46,1.56,2.64,2.64,0,0,0,.78,1,1.91,1.91,0,0,0,2.26,0,2.67,2.67,0,0,0,.78-1,6.62,6.62,0,0,0,.46-1.56A11.16,11.16,0,0,0,1143.46,386.1Z" transform="translate(-338.88 -156.16)"/><path class="cls-4" d="M1150.79,380.53a2.63,2.63,0,0,1,1.95-.76,2.52,2.52,0,0,1,1.11.23,2.48,2.48,0,0,1,.79.6,2.72,2.72,0,0,1,.5.88,6.56,6.56,0,0,1,.27,1h0a4.84,4.84,0,0,1,.41-1,3.58,3.58,0,0,1,.66-.88,3.11,3.11,0,0,1,.91-.61,2.84,2.84,0,0,1,1.16-.23,2.59,2.59,0,0,1,1.53.41,2.8,2.8,0,0,1,.9,1.07,4.77,4.77,0,0,1,.43,1.49,12.84,12.84,0,0,1,.11,1.64v7.68H1160v-7.68a10.28,10.28,0,0,0-.06-1.12,3.69,3.69,0,0,0-.25-1,1.88,1.88,0,0,0-.56-.77,1.54,1.54,0,0,0-1-.3,1.8,1.8,0,0,0-1,.32,2.56,2.56,0,0,0-.78.89,4.89,4.89,0,0,0-.48,1.29,6.78,6.78,0,0,0-.17,1.53v6.86H1154v-7.68a10.64,10.64,0,0,0-.06-1.13,4.07,4.07,0,0,0-.24-1,1.7,1.7,0,0,0-.55-.76,1.53,1.53,0,0,0-1-.29,1.76,1.76,0,0,0-1,.32,2.76,2.76,0,0,0-.78.89,4.7,4.7,0,0,0-.49,1.29,6.84,6.84,0,0,0-.17,1.53v6.86h-1.58v-8.9c0-.26,0-.53,0-.83l0-.86q0-.42,0-.77c0-.23,0-.41,0-.54h1.56c0,.3.06.67.07,1.1s0,.84,0,1.22h0A3.88,3.88,0,0,1,1150.79,380.53Z" transform="translate(-338.88 -156.16)"/><path class="cls-4" d="M1173.39,386.13a12.49,12.49,0,0,1-.24,2.54,6.79,6.79,0,0,1-.72,2,3.82,3.82,0,0,1-1.18,1.31,2.85,2.85,0,0,1-1.63.47,2.58,2.58,0,0,1-1.81-.67,3.55,3.55,0,0,1-1-1.75h0v7.8h-1.58V380.16h1.54v2.14h0a4.07,4.07,0,0,1,1-1.81,2.49,2.49,0,0,1,1.9-.71,2.78,2.78,0,0,1,1.6.48,3.9,3.9,0,0,1,1.19,1.32,7,7,0,0,1,.73,2A12.11,12.11,0,0,1,1173.39,386.13Zm-1.63,0a12.16,12.16,0,0,0-.14-1.93,6,6,0,0,0-.46-1.57,3,3,0,0,0-.78-1.06,1.82,1.82,0,0,0-2.23,0,3.06,3.06,0,0,0-.79,1.06,6,6,0,0,0-.48,1.57,11.17,11.17,0,0,0-.16,1.93,11.53,11.53,0,0,0,.16,2,5.78,5.78,0,0,0,.48,1.57,3,3,0,0,0,.8,1,1.79,1.79,0,0,0,2.22,0,3,3,0,0,0,.78-1,5.8,5.8,0,0,0,.46-1.57A12.55,12.55,0,0,0,1171.76,386.09Z" transform="translate(-338.88 -156.16)"/><path class="cls-4" d="M1177.23,386.45a9.08,9.08,0,0,0,.17,1.81,5.29,5.29,0,0,0,.49,1.44,2.7,2.7,0,0,0,.82,1,2,2,0,0,0,1.17.35,1.9,1.9,0,0,0,1.4-.53,3.6,3.6,0,0,0,.82-1.27l1.2.7a4.61,4.61,0,0,1-1.28,1.81,3.22,3.22,0,0,1-2.17.73,3.5,3.5,0,0,1-3.1-1.68,8.37,8.37,0,0,1-1.1-4.63,10.82,10.82,0,0,1,.29-2.57,6.62,6.62,0,0,1,.83-2,4,4,0,0,1,1.32-1.31,3.58,3.58,0,0,1,3.52,0,3.5,3.5,0,0,1,1.18,1.25,6,6,0,0,1,.66,1.85,12,12,0,0,1,.2,2.26v.86Zm4.82-1.32a6.43,6.43,0,0,0-.55-2.89,1.83,1.83,0,0,0-1.74-1.09,1.69,1.69,0,0,0-1.17.42,3.32,3.32,0,0,0-.77,1,5.11,5.11,0,0,0-.44,1.31,6.71,6.71,0,0,0-.13,1.22Z" transform="translate(-338.88 -156.16)"/><path class="cls-4" d="M1189.73,392.28a3.28,3.28,0,0,1-.79.1,1.89,1.89,0,0,1-1.76-.86,4.47,4.47,0,0,1-.52-2.3v-7.75h-1.56v-1.3h1.54v-3.29h1.56v3.29h2.11v1.3h-2.11v7.46a3,3,0,0,0,.31,1.57,1,1,0,0,0,.94.49,1.84,1.84,0,0,0,.46-.06,2.84,2.84,0,0,0,.41-.13l.07,1.27A3.79,3.79,0,0,1,1189.73,392.28Z" transform="translate(-338.88 -156.16)"/><path class="cls-4" d="M1194.36,376.51a1.14,1.14,0,0,1-.31.83,1,1,0,0,1-1.5,0,1.17,1.17,0,0,1-.3-.83,1.18,1.18,0,0,1,.3-.82,1,1,0,0,1,1.51,0A1.19,1.19,0,0,1,1194.36,376.51Zm-1.85,15.55v-11.9h1.58v11.9Z" transform="translate(-338.88 -156.16)"/><path class="cls-4" d="M1201,392.28a3.28,3.28,0,0,1-.79.1,1.89,1.89,0,0,1-1.76-.86,4.47,4.47,0,0,1-.52-2.3v-7.75h-1.56v-1.3h1.54v-3.29h1.56v3.29h2.11v1.3h-2.11v7.46a3,3,0,0,0,.31,1.57,1,1,0,0,0,.94.49,1.84,1.84,0,0,0,.46-.06,2.77,2.77,0,0,0,.41-.13l.07,1.27A3.81,3.81,0,0,1,1201,392.28Z" transform="translate(-338.88 -156.16)"/><path class="cls-4" d="M1205.64,376.51a1.14,1.14,0,0,1-.31.83,1,1,0,0,1-.74.32,1,1,0,0,1-.76-.32,1.16,1.16,0,0,1-.3-.83,1.18,1.18,0,0,1,.3-.82,1,1,0,0,1,1.51,0A1.19,1.19,0,0,1,1205.64,376.51Zm-1.85,15.55v-11.9h1.58v11.9Z" transform="translate(-338.88 -156.16)"/><path class="cls-4" d="M1216.66,386.13a10.59,10.59,0,0,1-.29,2.57,6.83,6.83,0,0,1-.82,2,3.82,3.82,0,0,1-1.31,1.3,3.38,3.38,0,0,1-1.74.46,3.31,3.31,0,0,1-1.73-.46,4,4,0,0,1-1.31-1.3,6.63,6.63,0,0,1-.83-2,10.59,10.59,0,0,1-.29-2.57,11.36,11.36,0,0,1,.28-2.59,6.63,6.63,0,0,1,.8-2,3.82,3.82,0,0,1,1.31-1.3,3.43,3.43,0,0,1,1.76-.46,3.39,3.39,0,0,1,1.74.46,3.84,3.84,0,0,1,1.31,1.3,6.82,6.82,0,0,1,.82,2A10.87,10.87,0,0,1,1216.66,386.13Zm-1.63,0a11.59,11.59,0,0,0-.16-2,6.06,6.06,0,0,0-.47-1.57,3,3,0,0,0-.78-1,1.71,1.71,0,0,0-1.12-.38,1.76,1.76,0,0,0-1.13.38,2.77,2.77,0,0,0-.78,1,6.43,6.43,0,0,0-.46,1.57,11.59,11.59,0,0,0-.16,2,11.16,11.16,0,0,0,.16,1.94,6.62,6.62,0,0,0,.46,1.56,2.64,2.64,0,0,0,.78,1,1.91,1.91,0,0,0,2.26,0,2.67,2.67,0,0,0,.78-1,6.62,6.62,0,0,0,.46-1.56A11.16,11.16,0,0,0,1215,386.1Z" transform="translate(-338.88 -156.16)"/><path class="cls-4" d="M1225.73,392.06v-7.68a10.53,10.53,0,0,0-.06-1.12,3.51,3.51,0,0,0-.26-1,2,2,0,0,0-.58-.77,1.5,1.5,0,0,0-1-.3,1.83,1.83,0,0,0-1.07.32,2.68,2.68,0,0,0-.79.89,5,5,0,0,0-.5,1.29,6.36,6.36,0,0,0-.18,1.53v6.86h-1.58v-8.9c0-.26,0-.53,0-.83l0-.86q0-.42,0-.77c0-.23,0-.41,0-.54h1.54c0,.3.06.67.07,1.1s0,.84,0,1.22h0a4.32,4.32,0,0,1,1.1-2,2.63,2.63,0,0,1,1.92-.76,2.49,2.49,0,0,1,2.45,1.48,5,5,0,0,1,.42,1.49,12.67,12.67,0,0,1,.11,1.64v7.68Z" transform="translate(-338.88 -156.16)"/><path class="cls-4" d="M376.17,383.54a16,16,0,0,1-.38,3.64,9.49,9.49,0,0,1-1.1,2.82,5.47,5.47,0,0,1-1.75,1.82,4.33,4.33,0,0,1-2.35.65,4.39,4.39,0,0,1-2.36-.65,5.53,5.53,0,0,1-1.78-1.82,9.29,9.29,0,0,1-1.12-2.82,16,16,0,0,1-.38-3.64,16.35,16.35,0,0,1,.37-3.61,9.13,9.13,0,0,1,1.09-2.81,5.46,5.46,0,0,1,1.76-1.81,4.48,4.48,0,0,1,2.41-.65,4.33,4.33,0,0,1,2.35.65,5.51,5.51,0,0,1,1.75,1.81,9.33,9.33,0,0,1,1.1,2.81A15.89,15.89,0,0,1,376.17,383.54Zm-1.75,0a16.43,16.43,0,0,0-.24-2.88,8.59,8.59,0,0,0-.73-2.33,4.58,4.58,0,0,0-1.21-1.56,2.58,2.58,0,0,0-1.66-.58,2.69,2.69,0,0,0-1.72.58,4.39,4.39,0,0,0-1.21,1.56,8.86,8.86,0,0,0-.72,2.33,17.42,17.42,0,0,0,0,5.76,9.24,9.24,0,0,0,.72,2.35,4.34,4.34,0,0,0,1.21,1.58,2.69,2.69,0,0,0,1.72.58,2.61,2.61,0,0,0,1.68-.58,4.42,4.42,0,0,0,1.2-1.58,9.25,9.25,0,0,0,.72-2.35A16.4,16.4,0,0,0,374.42,383.54Z" transform="translate(-338.88 -156.16)"/><path class="cls-4" d="M382,380.49a2.19,2.19,0,0,1,1.58-.7,1.31,1.31,0,0,1,.29,0l0,1.63-.18,0h-.2a1.58,1.58,0,0,0-1.07.41,3.25,3.25,0,0,0-.78,1.06,5.91,5.91,0,0,0-.47,1.48,8.82,8.82,0,0,0-.16,1.64v6.07h-1.58v-8.9c0-.26,0-.53,0-.83l0-.86q0-.42,0-.77c0-.23,0-.41,0-.54h1.54c0,.3.06.68.07,1.14s0,.94,0,1.45h0A4.5,4.5,0,0,1,382,380.49Z" transform="translate(-338.88 -156.16)"/><path class="cls-4" d="M393.17,391.89a12.7,12.7,0,0,1-.2,2.35,5.59,5.59,0,0,1-.68,1.87,3.48,3.48,0,0,1-1.3,1.25,4.15,4.15,0,0,1-2,.46,4.63,4.63,0,0,1-2.2-.54,4.52,4.52,0,0,1-1.64-1.45l1-1.1a3.83,3.83,0,0,0,1.21,1.2,3,3,0,0,0,1.64.46,2.36,2.36,0,0,0,1.31-.34,2.26,2.26,0,0,0,.8-.94,4.94,4.94,0,0,0,.41-1.42,12.48,12.48,0,0,0,.12-1.8v-2h0a4.16,4.16,0,0,1-1,1.8,2.46,2.46,0,0,1-1.9.72,2.77,2.77,0,0,1-1.61-.48,3.91,3.91,0,0,1-1.18-1.33,7.21,7.21,0,0,1-.73-2,12.1,12.1,0,0,1-.25-2.56,12.49,12.49,0,0,1,.24-2.54,6.82,6.82,0,0,1,.71-2,3.7,3.7,0,0,1,1.18-1.3,2.87,2.87,0,0,1,1.62-.47,2.69,2.69,0,0,1,1.84.66,3.28,3.28,0,0,1,1,1.74h.07v-2h1.54Zm-1.54-5.78a11.55,11.55,0,0,0-.16-1.94,6,6,0,0,0-.48-1.58,3,3,0,0,0-.8-1.06,1.8,1.8,0,0,0-2.22,0,3,3,0,0,0-.78,1,5.81,5.81,0,0,0-.46,1.57,12.67,12.67,0,0,0-.14,2,12.28,12.28,0,0,0,.14,1.93,6,6,0,0,0,.46,1.57,2.93,2.93,0,0,0,.78,1.06,1.81,1.81,0,0,0,2.23,0,3.07,3.07,0,0,0,.79-1,5.81,5.81,0,0,0,.48-1.56A11.47,11.47,0,0,0,391.63,386.11Z" transform="translate(-338.88 -156.16)"/><path class="cls-4" d="M401.85,392.06q0-.19,0-.48t0-.61c0-.22,0-.42,0-.62v-.52h0q-.6,2.55-2.88,2.54a2.82,2.82,0,0,1-1-.19,2.45,2.45,0,0,1-.91-.62,3.42,3.42,0,0,1-.67-1.09,4.29,4.29,0,0,1-.26-1.6,4.16,4.16,0,0,1,.46-2.09,3.6,3.6,0,0,1,1.15-1.25,4.17,4.17,0,0,1,1.52-.61,8.53,8.53,0,0,1,1.57-.16h.94v-.62a3.64,3.64,0,0,0-.58-2.28,1.89,1.89,0,0,0-1.56-.72,2.32,2.32,0,0,0-1.25.36,3.57,3.57,0,0,0-1,.91l-.84-1a3.68,3.68,0,0,1,1.44-1.22,4,4,0,0,1,1.78-.43,2.93,2.93,0,0,1,2.66,1.22,6.62,6.62,0,0,1,.79,3.58v4.94q0,.24,0,.6l0,.73c0,.25,0,.48,0,.7s0,.39,0,.52Zm-.19-6h-1a6.21,6.21,0,0,0-1.15.11,2.66,2.66,0,0,0-1,.41,2.31,2.31,0,0,0-.73.83,2.84,2.84,0,0,0-.29,1.37,2.47,2.47,0,0,0,.55,1.8,1.68,1.68,0,0,0,2.34.14,2.9,2.9,0,0,0,.74-1,5.55,5.55,0,0,0,.4-1.37,9,9,0,0,0,.12-1.44Z" transform="translate(-338.88 -156.16)"/><path class="cls-4" d="M412.65,392.06v-7.68a10.54,10.54,0,0,0-.06-1.12,3.51,3.51,0,0,0-.26-1,2,2,0,0,0-.58-.77,1.5,1.5,0,0,0-1-.3,1.83,1.83,0,0,0-1.07.32,2.69,2.69,0,0,0-.79.89,5,5,0,0,0-.5,1.29,6.36,6.36,0,0,0-.18,1.53v6.86h-1.58v-8.9c0-.26,0-.53,0-.83l0-.86q0-.42,0-.77c0-.23,0-.41,0-.54h1.54c0,.3.06.67.07,1.1s0,.84,0,1.22h0a4.32,4.32,0,0,1,1.1-2,2.63,2.63,0,0,1,1.92-.76,2.49,2.49,0,0,1,2.45,1.48,5,5,0,0,1,.42,1.49,12.67,12.67,0,0,1,.11,1.64v7.68Z" transform="translate(-338.88 -156.16)"/><path class="cls-4" d="M419.69,376.51a1.14,1.14,0,0,1-.31.83,1,1,0,0,1-1.5,0,1.17,1.17,0,0,1-.3-.83,1.18,1.18,0,0,1,.3-.82,1,1,0,0,1,1.51,0A1.18,1.18,0,0,1,419.69,376.51Zm-1.85,15.55v-11.9h1.58v11.9Z" transform="translate(-338.88 -156.16)"/><path class="cls-4" d="M421.89,392.06v-1.39l5-9.14h-4.58v-1.37h6.24v1.34l-4.94,9.19h5v1.37Z" transform="translate(-338.88 -156.16)"/><path class="cls-4" d="M436.1,392.06q0-.19,0-.48t0-.61c0-.22,0-.42,0-.62v-.52h0q-.6,2.55-2.88,2.54a2.82,2.82,0,0,1-1-.19,2.45,2.45,0,0,1-.91-.62,3.42,3.42,0,0,1-.67-1.09,4.29,4.29,0,0,1-.26-1.6,4.16,4.16,0,0,1,.46-2.09,3.6,3.6,0,0,1,1.15-1.25,4.17,4.17,0,0,1,1.52-.61,8.53,8.53,0,0,1,1.57-.16h.94v-.62a3.64,3.64,0,0,0-.58-2.28,1.89,1.89,0,0,0-1.56-.72,2.32,2.32,0,0,0-1.25.36,3.57,3.57,0,0,0-1,.91l-.84-1a3.68,3.68,0,0,1,1.44-1.22,4,4,0,0,1,1.78-.43,2.93,2.93,0,0,1,2.66,1.22,6.62,6.62,0,0,1,.79,3.58v4.94q0,.24,0,.6l0,.73c0,.25,0,.48,0,.7s0,.39,0,.52Zm-.19-6h-1a6.21,6.21,0,0,0-1.15.11,2.66,2.66,0,0,0-1,.41,2.31,2.31,0,0,0-.73.83,2.84,2.84,0,0,0-.29,1.37,2.47,2.47,0,0,0,.55,1.8,1.68,1.68,0,0,0,2.34.14,2.9,2.9,0,0,0,.74-1,5.55,5.55,0,0,0,.4-1.37,9,9,0,0,0,.12-1.44Z" transform="translate(-338.88 -156.16)"/><path class="cls-4" d="M444,392.28a3.28,3.28,0,0,1-.79.1,1.89,1.89,0,0,1-1.76-.86,4.47,4.47,0,0,1-.52-2.3v-7.75h-1.56v-1.3h1.54v-3.29h1.56v3.29h2.11v1.3h-2.11v7.46a3,3,0,0,0,.31,1.57,1,1,0,0,0,.94.49,1.84,1.84,0,0,0,.46-.06,2.79,2.79,0,0,0,.41-.13l.07,1.27A3.79,3.79,0,0,1,444,392.28Z" transform="translate(-338.88 -156.16)"/><path class="cls-4" d="M448.65,376.51a1.14,1.14,0,0,1-.31.83,1,1,0,0,1-1.5,0,1.17,1.17,0,0,1-.3-.83,1.18,1.18,0,0,1,.3-.82,1,1,0,0,1,1.51,0A1.18,1.18,0,0,1,448.65,376.51Zm-1.85,15.55v-11.9h1.58v11.9Z" transform="translate(-338.88 -156.16)"/><path class="cls-4" d="M459.67,386.13a10.61,10.61,0,0,1-.29,2.57,6.84,6.84,0,0,1-.82,2,3.82,3.82,0,0,1-1.31,1.3,3.38,3.38,0,0,1-1.74.46,3.31,3.31,0,0,1-1.73-.46,4,4,0,0,1-1.31-1.3,6.62,6.62,0,0,1-.83-2,10.61,10.61,0,0,1-.29-2.57,11.34,11.34,0,0,1,.28-2.59,6.61,6.61,0,0,1,.8-2,3.83,3.83,0,0,1,1.31-1.3,3.43,3.43,0,0,1,1.76-.46,3.39,3.39,0,0,1,1.74.46,3.83,3.83,0,0,1,1.31,1.3,6.83,6.83,0,0,1,.82,2A10.89,10.89,0,0,1,459.67,386.13Zm-1.63,0a11.65,11.65,0,0,0-.16-2,6.09,6.09,0,0,0-.47-1.57,3,3,0,0,0-.78-1,1.71,1.71,0,0,0-1.12-.38,1.76,1.76,0,0,0-1.13.38,2.78,2.78,0,0,0-.78,1,6.41,6.41,0,0,0-.46,1.57,11.59,11.59,0,0,0-.16,2,11.16,11.16,0,0,0,.16,1.94,6.6,6.6,0,0,0,.46,1.56,2.64,2.64,0,0,0,.78,1,1.9,1.9,0,0,0,2.26,0,2.65,2.65,0,0,0,.78-1,6.64,6.64,0,0,0,.46-1.56A11.21,11.21,0,0,0,458,386.1Z" transform="translate(-338.88 -156.16)"/><path class="cls-4" d="M468.74,392.06v-7.68a10.54,10.54,0,0,0-.06-1.12,3.51,3.51,0,0,0-.26-1,2,2,0,0,0-.58-.77,1.5,1.5,0,0,0-1-.3,1.83,1.83,0,0,0-1.07.32,2.69,2.69,0,0,0-.79.89,5,5,0,0,0-.5,1.29,6.36,6.36,0,0,0-.18,1.53v6.86h-1.58v-8.9c0-.26,0-.53,0-.83l0-.86q0-.42,0-.77c0-.23,0-.41,0-.54h1.54c0,.3.06.67.07,1.1s0,.84,0,1.22h0a4.32,4.32,0,0,1,1.1-2,2.63,2.63,0,0,1,1.92-.76,2.49,2.49,0,0,1,2.45,1.48,5,5,0,0,1,.42,1.49,12.67,12.67,0,0,1,.11,1.64v7.68Z" transform="translate(-338.88 -156.16)"/></g></svg>
