<?xml version="1.0" encoding="utf-8"?>
<!-- Generator: Adobe Illustrator 19.2.1, SVG Export Plug-In . SVG Version: 6.00 Build 0)  -->
<svg version="1.1" id="Layer_1" xmlns="http://www.w3.org/2000/svg" xmlns:xlink="http://www.w3.org/1999/xlink" x="0px" y="0px"
	 viewBox="0 0 1200 460" style="enable-background:new 0 0 1200 460;" xml:space="preserve">
<style type="text/css">
	.st0{fill:#FFFFFF;}
</style>
<rect width="1200" height="460"/>
<g>
	<path class="st0" d="M1195.6,40.8c-11.8-1.8-23.8-2.4-35.2,2.2c-5.5,2.2-10.8,2.6-16.4,0c-3.4-1.6-7.5-1.9-11-3.3
		c-5.9-2.4-11.8-2.6-17.9-1.1c-1.1,0.3-2.4,0.3-3.5,0.4c-9.4,1.5-18.8,2-27.8,5.9c-12.3,5.4-22,14.1-31.6,23c-2.7,2.5-5,5.5-7,8.5
		c-5.6,8.2-7.3,17.9-8.5,27.4c-0.9,7.3-1.4,14.9-0.3,22c0.7,4.7,1.2,9,0.3,13.6c-2.4,11.9-3.7,23.7-0.1,35.7
		c1.7,5.5,1.7,11.3-1.5,16.6c-5.8,9.5-11.4,19.1-17.3,28.5c-3.4,5.5-2.2,11,3.6,14c1.9,1,3.9,1.6,5.9,2.2c7.1,2.1,9.1,4.2,9.9,11.6
		c0.2,2.2,0.1,4.5,0.1,6.7c0,4.3-0.3,8.7,3.4,11.8c2.3,1.9,3,4.1,2.7,7c-0.4,3.6,0.1,6.9,3.9,8.8c4.4,2.2,6.5,5.9,7.8,10.8
		c2.5,9.5,7.1,14.9,15.6,14.9c4.6,0,9.3-1.1,13.9-2.2c6.4-1.6,12.7-3.7,19-5.5c3.4-0.9,5.9,0,7.8,3.5c2.8,5.2,6.4,10.1,9.5,15.2
		c2.7,4.5,5.3,9.2,7.7,13.8c1,1.8,0.7,3.4-1.6,4.6c-1.1,0.6-2.3,2-2.4,3.2c-0.2,3.4-2.1,4-4.8,3.4c-3.1-0.7-6.1-1.6-9.1-2.6
		c-16.9-5.7-32.7-14.1-47.8-23.4c-17.4-10.7-33.5-22.9-46.3-39.6c-11.4-14.9-19.5-31.2-25.9-48.5c-5-13.6-9.1-27.6-13-41.7
		c-3.8-14-7-28.3-4.3-43c2.5-13.5,4.9-27.2,8.9-40.3c3.1-10.2,8.9-19.6,12.7-29.7c6.1-16.2,13.1-31.7,24.4-45.3
		c9-10.9,18.7-20.8,29.4-29.8h-33.6c-13.4,13-25.3,27.2-34.1,43.9c-13.1,25-22.6,51.4-25.3,79.8c-1.2,12.9-2.3,25.8-2.3,38.7
		c0.1,22,5.8,43,14,63.3c4,9.8,7.9,19.6,12.2,29.3c6.1,14,16,25.5,26.1,36.8c14.1,15.9,29.1,31,47.8,41.4
		c12,6.7,24.5,12.7,37.2,17.8c8.1,3.3,17.2,4.2,25.8,6.3c5.4,1.3,10.8,2.5,16.2,3.9c3.8,1,3.8,2,1.4,5.1c-3.2,4.1-6,8.6-9.1,12.9
		c-2.9,3.9-5.7,7.9-8.9,11.5c-3.8,4.2-8,8.1-12,12.2c-6,6-11.9,11.9-19.6,16.4c-12.3,7.1-21.7,17.7-27,31.3
		c-1.4,3.7-3.5,6.7-6.1,9.5H1200V41.7C1198.5,41.3,1197.1,41,1195.6,40.8z"/>
	<path class="st0" d="M935.3,344.2l-16.7-41.4l-7-5l8-2.2l-17-16.7l5.7-1.7l-10.2-13.5l5.5-1l-11.7-18l7-1.7l-15-17.7
		c0,0-3.2-4.2,0.9-9.8c6.3-8.7,12.7-17.4,13.7-28.6c0.4-4.3,0.3-8.7-0.1-13c-0.3-3.3-3.2-2.5-5.2-1.9c-6.7,2-13.3,4.4-20,6.4
		c-4,1.2-8.2,2-12.3,3.1c-3,0.8-4.7-0.7-5.9-3.3c-5.6-11.9-11.2-23.8-16.9-35.6c-1.6-3.2-4.5-9.6-6.4-12.6c0-2.2-1.5,0.7-0.6,4
		c0.4,2.4,0.7,4.8,1.2,7.1c2.9,12.9,5.8,25.8,8.7,38.7c1.2,5.4,0,7.5-5.4,9.2c-11.4,3.6-22.8,7-34.1,10.5c-5.6,1.7-6,2.9-2.7,7.7
		c8.9,13.1,21.9,19.1,37,21.5c6.6,1.3,5.2,7.5,5.2,7.5l-3.7,20.2l7-1.7l-1.5,19.7l5.7-1.5l-3.2,21.5l6.5-1.7l-2.7,19.7l8.5-1.7
		l-3.7,8l2.3,13c0.9,3.8,0,6.7-3.8,8.5c-2.6,1.3-4.9,3.2-7.5,4.3c-3.7,1.6-5.9,4.1-6.7,8.2c-0.3,1.5-1.7,2.7-2.6,4.1
		c-1.3-0.9-2.9-1.5-3.9-2.7c-2.9-3.7-6.7-4.1-10.9-3.5c-3.7,0.5-6.1,2.7-6.7,6.3c-0.7,4.2-2.7,5.8-7,5.7c-4.8-0.2-8,2.7-9.4,7.1
		c-1.1,3.5-3.2,5.3-6.8,5.5c-3.6,0.2-6.1,2.2-7.1,5.4l-0.4,3.3c-2.2,4.2-4.7,15.5-4.7,38.9c0,14.8,1.9,29,3.3,37.4h81.1
		c0.2-0.8,0.5-1.6,0.7-2.5c2.2-7.2,4.2-19.7,4.2-19.7s0-7.5,0-22s9-9.2,11.7-7.5c2.7,1.7,12.2,8,15.5,11s6,3,6,3s15.7-4,24.7-6
		c9-2,9.5-4.7,9.5-4.7s6.8-38.3,7-40.7c0.1-2.4,1-8.3-3.2-13.5C932,349.4,935.3,344.2,935.3,344.2z M904.8,319.2
		c0-2.3,1.9-4.2,4.2-4.2s4.2,1.9,4.2,4.2c0,2.3-1.9,4.2-4.2,4.2S904.8,321.6,904.8,319.2z M913.8,340.7c-3.2,0-5.7-2.6-5.7-5.7
		c0-3.2,2.6-5.7,5.7-5.7c3.2,0,5.7,2.6,5.7,5.7C919.5,338.1,917,340.7,913.8,340.7z"/>
</g>
</svg>
