<?xml version="1.0" encoding="utf-8"?>
<!DOCTYPE svg PUBLIC "-//W3C//DTD SVG 1.1//EN" "http://www.w3.org/Graphics/SVG/1.1/DTD/svg11.dtd">
<svg version="1.1" id="Layer_1" xmlns="http://www.w3.org/2000/svg" xmlns:xlink="http://www.w3.org/1999/xlink" x="0px" y="0px" width="600px" height="125px" viewBox="0 0 600 125" style="enable-background:new 0 0 600 125;" xml:space="preserve">
  <defs>
		<path id="path_left" class="st4" d="M17.5,94.5c0,0,76,10.5,108.5,9.75"/>
		<path id="path_right" class="st4" d="M228,105c110.25,0,271.75-21,355.5-38"/>
    <style type="text/css">
      <![CDATA[
        .brown {fill:#88746A;}
        .blue {fill:#EE3124;}
        .red {fill:#5B9B98;}
      ]]>
    </style>  
  </defs>
  <g transform="translate(50, 0)">
  	<g id="pidgy" transform="translate(140 65) scale(0.35 0.35)">
  		<g class="brown">
  			<path d="M177.92,17.85c-5.41-11.11-2.27-50.86-7.14-62.17c-9.95-23.12-28.18-20.32-34.01-18.81
  				c-0.6,0.1-1.18,0.26-1.77,0.5l0,0c-0.32,0.04-0.58,0.18-0.8,0.38c-1.14,0.59-2.35,1.5-3.81,2.95c-1.1,1.1-1.45,2.33-1.62,3.59
  				c-0.68,0.46-0.68,1.39-0.16,2.13c-0.06,0.66-0.14,1.32-0.32,1.96c1.8,1.5,5.37,3.69,5.8,4.83c0.62,1.57,0.24,3.49-1.4,4.15
  				c-1.66,0.64-2.53-1-2.53-2.81c0-3.49-1.14-4.9-2.12-5.5c-0.2,0.66-3.83,2.27-4.37,2.81c-0.52,0.51-0.14,1.97-0.14,1.97
  				c-1.92,2.71-2.97,5.74-1.99,6.74c0,0,4.31-2.15,7.9-2.15c3.23,0,6.7,1.43,6.7,8.73c0,2.34-1.64,6.87-4.65,12.75
  				c-1.46,1.02-1.72,2.49-1.74,3.27c-0.18,0.32-4.13,3.67-8.88,11.19c-0.88,1.99-0.06,2.75-0.06,2.75s0.02,0,0.04,0.02
  				c-3.03,3.79-5.54,6.26-5.54,6.26s15.1-0.12,27.28,12.06c12.19,12.19,12.09,26.85,5.82,33.11c0,0,20.17-20.29,25.63-20.29
  				c0-0.06-2.23-11.81,2-7.1C173.68,16.29,174.21,13.28,177.92,17.85z M147.69-51.98c-0.26,2.06-1.91,3.53-3.67,3.29
  				c-1.75-0.24-2.97-2.08-2.71-4.13c0.26-2.05,1.92-3.53,3.69-3.29C146.75-55.87,147.95-54.02,147.69-51.98z"/>
  			<path d="M168.89,45.47c0,0-18.27,16.04-36.16,24.4c-23.79,11.11-42.76,10.69-53.35,11.17
  				c-3.41,0-3.87-4.07-3.77-4.45c-3.15,2.78-11.11,6.68-12.09,4.63c0.12-1.96,4.53-7.28,4.53-7.28S55,83.77,51.77,80.52
  				c-2.27-2.25,0.18-6.58,0.18-6.58S32.28,91.17,28.13,87.02c-2.09-2.1,7.98-13.95,7.98-13.95c-1.16,0.78-5.96,6.19-11.03,11.25
  				c-5.07,5.07-21.48,15-22.22,15.44c-0.74,0.44-0.5,1.4-0.9,1.63c-0.42,0.26-2.11,1.98-1.88,2.37c0.2,0.34,2.71,0.28,5.58-0.06
  				c1.88-0.22,37.7-18.69,43.84-19.97c8.46-0.28,21.5,1.52,23.84,1.78c1.56,0.26,3.63,0.5,6.34,0.65c-0.06,0.2-0.1,0.4-0.14,0.64
  				c-0.34,2.16-2.07,5.73-3.99,8.22c0.14,0.78,2.63,3.69,3.43,4.14c1.71-2.37,3.75-4.9,8.24-8.16c3.35-2.43,6.24-4.46,8.9-5.08
  				c1.51-0.36,7.82-0.08,9.53-0.38h-0.02c0,0-0.14,4.71,2.23,7.76c1.38,1.79,4.81,5.5,8.78,8.06c1.75,1.14,5.01,4.55,6.6,7.06
  				c0.74,0.12,1.56,0.4,2.91-0.14c1.16-0.44,2.17-1.01,2.17-1.01c-1.53-2.3-3.75-8.54-5.17-13.61c-1.65-5.95-1.47-10.37,0.14-13.39
  				h-0.02C150.48,68.87,168.89,45.47,168.89,45.47z"/>
  			<path d="M51.51,41.9c0,0-6.98,23.96,24.99,30.35c-22.5,1.22-38.55-0.87-38.55-0.87S36.49,71,39.1,69.23 c-3.55,0.46-8.8,1.24-10.41-0.62c1.94-2.16-7.26,0.38-9.11-1.62c4.25-3.23-6.4-1.62-9.25-3.23C9.14,58.9,11.06,48.82,51.51,41.9z "/>
  		</g>
  		<g class="red">
  			<path class="st2" d="M79.53,29.01c-4.17,15.28,20.53,46,55.41,29.49c-29.64,18.99-57.72-6.64-62.19-13.88
  				c0,6.33,5.86,25.47,34.72,24.85c-36.9,6.94-50.94-16.52-45.08-31.49L79.53,29.01z"/>
  			<ellipse class="st2" cx="144.42" cy="-52.82" rx="1.66" ry="1.76"/>
  		</g>
  		<g class="blue">
  			<path d="M154.79,114.78c-0.24-1.49-6.4-0.72-10.93-0.32c2.33-1.12,3.39-2.79,3.39-2.79s1.04-0.64,2.17,0.44
  				c0.1-0.34,0.06-0.76-0.58-1.18c-0.66-0.44-1.74-0.4-1.74-0.4s-0.58-0.78-1.66-0.68c-0.8,0.08-7.3,2.51-11.29,2.11
  				c-1.2-0.11-3.61-1.23-4.71-2.97c-1.6,1-3.39,1.43-5.58,1.21c0.42,1.16,0.6,1.99,0.42,2.25c-0.66,0.9-9,0.68-10.97,0.96
  				c-1.96,0.3-1.86,2.43-1.86,2.43s0.22-0.16,0.68-0.73c0.86-0.52,0.52,0.57,2.13,1.39c1.62,0.82,9.95-0.02,11.89,0.4
  				c1.91,0.44,2.29,1.52,3.21,2.74c0.9,1.24,2.39,2.23,3.93,2.73c0.48,0.16-0.92,1.61-0.92,1.61s0,0,0.64-0.1
  				c0.64-0.1,2.29-0.94,2.61-1.61c0.76-1.56-0.84-4.17-0.84-4.17s15.72,0.22,18.39-0.18c2.67-0.4,2.27-1.48,2.27-1.48
  				s0.72-0.66,3.31,1C157.7,114.88,155.87,114.92,154.79,114.78z"/>
  			<path d="M92.36,113.99c-0.92-0.88-2.06-0.98-2.44-1.02c-0.38-0.69-1.87-0.81-1.87-0.81s-0.48-0.48-1.26-0.68
  				c-0.46-0.12-4.63,0.34-5.78-0.91c-1.46-1.55-2.79-4.03-3.53-5.44c-0.56-1.08-0.2-2.71,0.66-4.57c-0.64-0.28-1.34-0.76-2.05-1.59
  				c-0.74-0.84-1.36-1.72-1.86-2.64c-0.72,0.98-1.33,1.6-1.66,1.58c-1.1-0.06-5.5-7.16-6.82-8.64c-1.32-1.48-3.05-0.22-3.05-0.22
  				s0.74-0.05,1.2,0.1c1.08,0.36-0.2,1.18-0.18,2.61c0.26,1.9,5.49,8.3,6.18,10.15c0.7,1.84,0,2.75-0.52,4.19
  				c-0.54,1.44-0.16,4.21-0.16,4.7c0,0.92-1.35,0.22-1.81,0.21c0.38,1.16,2.33,2.05,3.35,1.78c1.35-0.38,2.89-2.98,2.89-2.98
  				s2.18,2.93,5.05,5.61c1.18,1.07,7.44,2.09,13.18,2.09c2.69,0,2.29-0.44,2.35-0.66c0.48,0,1.32,0.36,2.67,1.26
  				c0.3-0.24-0.06-1.76-1.27-3.15C94.39,113.57,92.36,113.99,92.36,113.99z"/>
  		</g>
  	</g>
  	<g id="type">
      <text style="font-family:'Courier New';fill:#555;font-size:15px;text-transform:uppercase;">
        <textPath xlink:href="#path_left" style="text-align:right;" startOffset="5">Third Coast</textPath> 
        <textPath xlink:href="#path_right" startOffset="5">International Audio Festival</textPath> 
      </text>
  		<path style="stroke:#555;fill:none;stroke-dasharray:10 3;stroke-width:0.2" d="M127,104.25c40.14,1.89,55.25,2,103.5,0.5"/>
  	</g>
  </g>
</svg>
