<?xml version="1.0" encoding="utf-8"?>
<!DOCTYPE svg PUBLIC "-//W3C//DTD SVG 1.1//EN" "http://www.w3.org/Graphics/SVG/1.1/DTD/svg11.dtd">
<svg version="1.1" id="Layer_1" xmlns="http://www.w3.org/2000/svg" xmlns:xlink="http://www.w3.org/1999/xlink" x="0px" y="0px"
	 width="500px" height="500px" viewBox="0 0 500 500" style="enable-background:new 0 0 500 500;" xml:space="preserve">
<polygon fill="#333;" points="200.89,193.17 247.03,259.61 433.46,0 304.7,0.29 "/>
<polygon fill="#444" points="304.75,178.87 247.49,259.61 64.24,0 193,0.29 "/>
<polygon fill="#DED7B8" points="321.71,423.58 331.1,452.62 301.95,443.6 301.91,474.11 276.97,456.52 267.5,485.53 249.22,461.1 
	231.25,485.76 221.41,456.87 196.7,474.78 196.27,444.26 167.24,453.65 176.26,424.5 145.74,424.46 163.33,399.52 134.32,390.05 
	158.76,371.77 134.09,353.8 162.98,343.96 145.08,319.25 175.6,318.82 166.21,289.79 195.36,298.81 195.4,268.29 220.34,285.89 
	229.81,256.88 248.09,281.31 266.06,256.65 275.89,285.54 300.61,267.63 301.03,298.15 330.07,288.76 321.05,317.91 351.56,317.95 
	333.97,342.89 362.98,352.36 338.54,370.64 363.21,388.61 334.32,398.45 352.22,423.16 "/>
</svg>
