<?xml version="1.0" encoding="utf-8"?>
<svg xmlns="http://www.w3.org/2000/svg" xmlns:xlink="http://www.w3.org/1999/xlink" version="1.1" x="0px" y="0px" width="500px" height="500px" viewBox="0 0 500 500" style="enable-background:new 0 0 500 500;" xml:space="preserve">
  <style type="text/css">
  <![CDATA[
  	#brown{fill:#88746A;}
  	#red{fill:#EE3124;}
  	#blue{fill:#5B9B98;}
  ]]>
  </style>
  <g id="brown">
  	<path d="M444.83,207.17c-11.67-24-4.9-109.84-15.42-134.26C407.93,23,368.53,29.02,355.97,32.29   c-1.29,0.23-2.54,0.57-3.82,1.08c0.01,0,0.01,0,0.01,0c-0.7,0.1-1.27,0.39-1.74,0.82c-2.46,1.28-5.08,3.24-8.21,6.37   c-2.37,2.39-3.16,5.04-3.5,7.76c-1.47,1.01-1.46,3.02-0.36,4.61c-0.12,1.43-0.29,2.83-0.68,4.2c3.89,3.23,11.59,7.98,12.55,10.42   c1.34,3.41,0.53,7.55-3.02,8.95c-3.56,1.4-5.49-2.17-5.49-6.05c0-7.53-2.46-10.62-4.55-11.89c-0.45,1.41-8.28,4.91-9.44,6.06   c-1.12,1.12-0.3,4.26-0.3,4.26c-4.14,5.86-6.43,12.41-4.29,14.55c0,0,9.29-4.65,17.04-4.65c6.99,0,14.46,3.11,14.46,18.87   c0,5.03-3.53,14.82-10.02,27.52c-3.14,2.2-3.71,5.36-3.75,7.05c-0.38,0.7-8.9,7.91-19.17,24.17c-1.9,4.31-0.13,5.94-0.13,5.94   s0.04,0.01,0.09,0.04c-6.56,8.19-11.98,13.54-11.98,13.54s32.61-0.24,58.94,26.08c26.33,26.33,26.08,57.98,12.56,71.5   c0,0,43.54-43.8,55.35-43.8c0.02-0.13-4.83-25.52,4.33-15.35C435.67,203.83,436.83,197.33,444.83,207.17z M379.52,56.4   c-0.57,4.43-4.12,7.62-7.93,7.12c-3.81-0.5-6.43-4.49-5.86-8.91c0.58-4.43,4.13-7.61,7.95-7.12   C377.48,47.99,380.09,51.99,379.52,56.4z"/>
  	<path d="M425.33,266.84c0,0-39.45,34.63-78.1,52.67c-51.38,23.97-92.37,23.08-115.23,24.12   c-7.35,0-8.36-8.77-8.12-9.62c-6.8,5.98-24,14.43-26.12,9.99c0.25-4.23,9.79-15.72,9.79-15.72s-28.16,21.23-35.17,14.23   c-4.89-4.89,0.38-14.23,0.38-14.23s-42.48,37.23-51.45,28.27c-4.53-4.53,17.23-30.11,17.23-30.11   c-2.5,1.69-12.89,13.37-23.83,24.31c-10.96,10.96-46.38,32.39-47.99,33.34c-1.6,0.94-1.1,3.03-1.93,3.54   c-0.89,0.55-4.56,4.25-4.03,5.14c0.45,0.75,5.84,0.59,12.08-0.15c4.03-0.48,81.41-40.36,94.66-43.11   c18.25-0.62,46.43,3.29,51.47,3.83c3.38,0.57,7.86,1.07,13.68,1.43c-0.12,0.42-0.22,0.87-0.3,1.38c-0.74,4.67-4.49,12.38-8.6,17.76   c0.3,1.67,5.7,7.96,7.39,8.97c3.69-5.11,8.12-10.58,17.78-17.62c7.22-5.25,13.47-9.65,19.23-10.99c3.28-0.76,16.9-0.18,20.59-0.81   l-0.04,0.01c0,0-0.29,10.15,4.81,16.76c2.98,3.88,10.4,11.88,18.95,17.42c3.77,2.44,10.82,9.83,14.24,15.27   c1.58,0.28,3.36,0.85,6.3-0.28c2.48-0.95,4.69-2.21,4.69-2.21c-3.33-4.97-8.11-18.42-11.18-29.36c-3.58-12.84-3.17-22.4,0.3-28.9   l-0.06,0.02C385.56,317.37,425.33,266.84,425.33,266.84z"/>
  	<path d="M171.8,259.14c0,0-15.1,51.75,53.96,65.56c-48.6,2.64-83.28-1.88-83.28-1.88s-3.16-0.82,2.51-4.65   c-7.67,1-19,2.67-22.5-1.33c4.17-4.67-15.67,0.83-19.67-3.5c9.17-7-13.83-3.5-20-7C80.33,295.83,84.44,274.11,171.8,259.14z"/>
  </g>
  <g id="blue">
  	<path d="M232.33,231.33c-9,33,44.33,99.33,119.67,63.67c-64,41-124.67-14.33-134.33-30c0,13.67,12.67,55,75,53.67   c-79.67,15-110-35.67-97.33-68L232.33,231.33z"/>
  	<ellipse cx="372.44" cy="54.56" rx="3.56" ry="3.81"/>
  </g>
  <g id="red">
  	<path d="M394.85,416.56c-0.5-3.25-13.83-1.54-23.62-0.71c5.04-2.42,7.33-6.04,7.33-6.04s2.25-1.38,4.71,0.96   c0.21-0.74,0.12-1.62-1.27-2.55c-1.44-0.96-3.75-0.84-3.75-0.84s-1.23-1.69-3.57-1.47c-1.7,0.16-15.75,5.42-24.39,4.56   c-2.59-0.27-7.81-2.68-10.15-6.4c-3.45,2.17-7.33,3.09-12.08,2.61c0.91,2.48,1.3,4.32,0.9,4.86c-1.41,1.92-19.42,1.45-23.67,2.08   c-4.23,0.64-4.01,5.24-4.01,5.24s0.47-0.32,1.46-1.61c1.87-1.11,1.14,1.26,4.63,3.01s21.5-0.06,25.66,0.87   c4.15,0.93,4.97,3.28,6.92,5.92c1.95,2.65,5.17,4.83,8.48,5.89c1.03,0.33-1.96,3.5-1.96,3.5s0,0,1.36-0.2   c1.36-0.21,4.95-2.03,5.66-3.49c1.63-3.37-1.81-9.01-1.81-9.01s33.95,0.48,39.7-0.38c5.75-0.86,4.93-3.17,4.93-3.17   s1.54-1.42,7.14,2.14C401.15,416.77,397.19,416.85,394.85,416.56z"/>
  	<path d="M260.03,414.81c-1.97-1.88-4.44-2.12-5.25-2.19c-0.81-1.52-4.03-1.75-4.03-1.75s-1.05-1.04-2.71-1.47   c-0.99-0.26-9.97,0.72-12.51-2c-3.15-3.37-6.04-8.7-7.63-11.75c-1.21-2.31-0.43-5.87,1.4-9.86c-1.38-0.59-2.87-1.65-4.45-3.43   c-1.6-1.79-2.92-3.71-4-5.67c-1.56,2.12-2.88,3.46-3.56,3.42c-2.38-0.13-11.88-15.45-14.73-18.64c-2.86-3.19-6.59-0.48-6.59-0.48   s1.6-0.13,2.57,0.21c2.34,0.78-0.41,2.53-0.4,5.66c0.58,4.09,11.84,17.93,13.35,21.92c1.52,3.98-0.01,5.96-1.14,9.04   c-1.15,3.08-0.35,9.09-0.35,10.17c0,2-2.94,0.47-3.92,0.43c0.8,2.51,5.02,4.44,7.24,3.82c2.92-0.82,6.23-6.43,6.23-6.43   s4.71,6.34,10.92,12.12c2.52,2.35,16.08,4.53,28.46,4.53c5.81,0,4.95-0.96,5.09-1.44c1.05-0.02,2.84,0.79,5.79,2.71   c0.64-0.52-0.11-3.77-2.74-6.8C264.44,413.93,260.03,414.81,260.03,414.81z"/>
  </g>
</svg>
