<svg id="Layer_1" data-name="Layer 1" xmlns="http://www.w3.org/2000/svg" viewBox="0 0 208.57 63.66"><defs><style>.cls-1{fill:#76645d;}.cls-2{fill:#5b9b98;}.cls-3{fill:#ee3124;}</style></defs><title>skinny-logo</title><path class="cls-1" d="M164.48,36.54c-0.5.1-.9,0.15-1.14,0.18-0.78.1-3.94,1.16-5.31,1.36A31.75,31.75,0,0,0,151.14,41a1.36,1.36,0,0,0-.29,1.19,1.8,1.8,0,0,0-.7,1.72c0,1.36,4.27,1.42,4.27,1.42l0.41,0.2a20.63,20.63,0,0,0,3,.37L158,46a9.2,9.2,0,0,0,1.89.35l-0.18.18c4.54,0.29,9.53.27,13.42,0.27a15.31,15.31,0,0,1-7.93-4.16c-1.88-1.84-1.54-4.21-.75-6.11" transform="translate(0 -0.67)"/><path class="cls-1" d="M197.91,4.77a1.21,1.21,0,0,1-1.27,1.11,1.18,1.18,0,0,1-.94-1.39A1.21,1.21,0,0,1,197,3.38a1.18,1.18,0,0,1,.93,1.39m10.18,24c-0.38-.49-0.4-1.33-0.12-1a1.75,1.75,0,0,0,.46.43l-0.25-.49a11.87,11.87,0,0,1-.53-1.66c-0.06-.21-0.12-0.49-0.18-0.8,0.21-5.87.15-14.07-1.54-17.89C202.49-.45,196.15.49,194.13,1a3.51,3.51,0,0,0-.61.17h0a0.53,0.53,0,0,0-.28.13,5.43,5.43,0,0,0-1.32,1,1.94,1.94,0,0,0-.57,1.22,0.49,0.49,0,0,0-.06.72,3.1,3.1,0,0,1-.11.66,11.63,11.63,0,0,1,2,1.63,1,1,0,0,1-.49,1.4c-0.57.21-.88-0.34-0.88-0.95a2,2,0,0,0-.73-1.86,0.75,0.75,0,0,1-.37.26,8.52,8.52,0,0,0-1.15.69,0.88,0.88,0,0,0,0,.67c-0.67.92-1,1.94-.69,2.28a7.58,7.58,0,0,1,2.74-.73c1.12,0,2.32.49,2.32,3a12,12,0,0,1-1.61,4.31,1.34,1.34,0,0,0-.6,1.11l-0.18.33c-0.21.18-.64,0.55-1.46,1.36a7.1,7.1,0,0,0-1.43,2.1,0.89,0.89,0,0,0,0,.93h0a27.16,27.16,0,0,1-1.93,2.12,14.65,14.65,0,0,1,9.48,4.08c4.23,4.12,4.19,9.08,2,11.2,0,0,7-6.86,8.9-6.86,0,0,.1-1,0.19-2.54,0-.36.1-0.87,0.59-0.47a3.73,3.73,0,0,0,.71.48s-0.1-.15-0.48-0.64" transform="translate(0 -0.67)"/><path class="cls-2" d="M196.14,4.6a0.6,0.6,0,1,0,.6-0.59,0.59,0.59,0,0,0-.6.59" transform="translate(0 -0.67)"/><path class="cls-2" d="M193.55,42.11s-9,4.78-16.23-2.24c-3.14-3-3.54-5.7-3-7.72a54.87,54.87,0,0,0-5.53,2.71l-0.49.29a6.88,6.88,0,0,0,.45,5.77c1.18,2.15,5.06,6.7,15.34,4.89,0,0-6.14.46-9.75-3.06a8,8,0,0,1-2.51-5.46,6.73,6.73,0,0,0,.83,1.08c0.35,0.38,9.37,10.52,20.9,3.72" transform="translate(0 -0.67)"/><path class="cls-3" d="M199.93,61.11s0-.1-0.5-0.17a26.16,26.16,0,0,0-2.86.18s0.43-.28.82-0.49a0.89,0.89,0,0,0,.46-0.41l0.27,0a0.4,0.4,0,0,1,.39.14,0.49,0.49,0,0,0-.21-0.41,0.8,0.8,0,0,0-.56-0.09,1.45,1.45,0,0,0-.61-0.28c-0.28,0-2.53.85-3.92,0.72a2.6,2.6,0,0,1-1.63-1,1.86,1.86,0,0,1-.83.37,4.78,4.78,0,0,1-1.11,0,1.19,1.19,0,0,1,.14.76c-0.23.3-3.12,0.23-3.8,0.33a0.78,0.78,0,0,0-.64.82,1,1,0,0,0,.23-0.25,0.36,0.36,0,0,1,.44-0.06,1.86,1.86,0,0,0,.31.53c0.18,0.19,3.45,0,4.12.14a1.68,1.68,0,0,1,1.11.93,6.7,6.7,0,0,0,1.28,1.05c0.14,0.1-.23.42-0.23,0.42l0.21,0a2.1,2.1,0,0,0,.91-0.54,0.58,0.58,0,0,0-.09-0.57l-0.21-.84s5.46,0.07,6.38-.06,0.94-.38.94-0.38l0.25,0a1.81,1.81,0,0,1,.76.25,1.85,1.85,0,0,0-.67-0.94,1.21,1.21,0,0,0-1.16-.09" transform="translate(0 -0.67)"/><path class="cls-3" d="M178.72,60.94s0-.1-0.45-0.27a13.4,13.4,0,0,0-2.28-.22,1.24,1.24,0,0,0,.93.45c0.43-.11.42-0.3,0.42-0.3l0.27,0a0.22,0.22,0,0,1,.18.3,0.5,0.5,0,0,0-.12-0.44,0.79,0.79,0,0,0-.53-0.21,0.75,0.75,0,0,0-.37-0.19c-0.16,0-1.6.11-2-.31a8.78,8.78,0,0,1-1.23-1.84,1.87,1.87,0,0,1,.22-1.54,2.19,2.19,0,0,1-.72-0.53,4.87,4.87,0,0,1-.64-0.89,1.2,1.2,0,0,1-.57.53c-0.38,0-1.91-2.42-2.37-2.92a0.81,0.81,0,0,0-1.06-.07,1.12,1.12,0,0,0,.34.06,0.36,0.36,0,0,1,.29.32,2.1,2.1,0,0,0-.29.54c-0.06.25,1.9,2.81,2.15,3.43a1.61,1.61,0,0,1-.18,1.42,6.42,6.42,0,0,0-.2,1.62c0,0.17-.49,0-0.49,0l0.14,0.16a2.09,2.09,0,0,0,1,.44,0.61,0.61,0,0,0,.44-0.38l0.61-.63s0.95,1.11,1.76,1.9c0.39,0.38,2.59.71,4.58,0.71,0.94,0,.82-0.22.82-0.22l0.25,0a1.82,1.82,0,0,1,.68.41,1.85,1.85,0,0,0-.44-1.07,1.19,1.19,0,0,0-1.1-.32" transform="translate(0 -0.67)"/><path class="cls-1" d="M180,51.63c0.49,0,1,0,1.46-.09a4.23,4.23,0,0,0-1.46.09" transform="translate(0 -0.67)"/><path class="cls-1" d="M205.27,37.75A63.66,63.66,0,0,1,192.72,46a40,40,0,0,1-18.45,3.67c-1.19,0-1.56-.64-1.5-0.84s0.08-.21-0.12,0c-1.1.94-3.64,1.72-4,1a6,6,0,0,1,1.51-2.3c0.16-.18.06-0.16,0.06-0.16s-4.58,3.41-5.71,2.31a1.58,1.58,0,0,1,.07-2.13c0.13-.18,0-0.18,0-0.18s-6.83,5.83-8.28,4.42c-0.73-.71,1.53-3.25,2.55-4.38,0.37-.41.21-0.33,0.21-0.33-0.37.3-2.07,2.09-3.83,3.81s-7.46,5.07-7.72,5.22a1.17,1.17,0,0,0-.31.56,2.07,2.07,0,0,0-.64.8,18.29,18.29,0,0,0,1.94,0c1,0,14.22-6.77,15.25-7,0.84-.15,7.44.72,8.25,0.8,0.54,0.09,1.27.17,2.2,0.22l0,0.21a7.45,7.45,0,0,1-1.38,2.79,2.08,2.08,0,0,0,.49.85,2.28,2.28,0,0,0,.7.55,11.54,11.54,0,0,1,2.86-2.76A9,9,0,0,1,180,51.64a4.24,4.24,0,0,1,1.46-.09h0c0.6-.06,1.21-0.14,1.81-0.23h0a4.6,4.6,0,0,0,.77,2.63,13.55,13.55,0,0,0,3,2.73,10,10,0,0,1,2.29,2.39,1.65,1.65,0,0,0,1,0,6.59,6.59,0,0,0,.76-0.35,21.33,21.33,0,0,1-1.8-4.6c-0.57-2-.51-3.51,0-4.53h0a44.81,44.81,0,0,0,15.85-11.8" transform="translate(0 -0.67)"/><path class="cls-1" d="M120.91,46.22v0.54h1.66v7.92h-1.66v0.54h7.24V52.28h-0.58v1.19a1.28,1.28,0,0,1-.32.85,1.33,1.33,0,0,1-1.07.37h-3V46.77h1.72V46.23h-4Zm-5.33,5.58H112l1.72-5Zm-1.8-6.53-3.35,9.4h-0.72v0.54h2.72V54.67H111l0.81-2.34h3.92l0.85,2.34h-1.4v0.54H118V54.67h-0.72Zm-13.2,1v0.54h0.94l2.61,8.64H105l2.61-8.64h0.94V46.22H105.7v0.54H107l-2.46,8-2.46-8h1.31V46.22h-2.83Zm-8.62,0v0.54h2.46v7.92H92v0.54h5.49V54.68H95V46.76h2.45V46.22H92Zm-4.9,9V54.68H85V46.76h1.42a4.3,4.3,0,0,1,.7,0,0.76,0.76,0,0,1,.4.2,0.81,0.81,0,0,1,.18.42,4.61,4.61,0,0,1,0,.71v1h0.58v-3H81.11v3h0.58v-1a6.52,6.52,0,0,1,0-.71A0.81,0.81,0,0,1,81.91,47a0.66,0.66,0,0,1,.4-0.2,4.3,4.3,0,0,1,.7,0h1.43v7.92h-2v0.54h4.64Zm-9.46-3.6a2.61,2.61,0,0,0-.92-0.76,6.28,6.28,0,0,0-1.19-.47A11,11,0,0,1,74.3,50a2.9,2.9,0,0,1-.92-0.61,1.42,1.42,0,0,1-.37-1,1.47,1.47,0,0,1,.21-0.8A1.67,1.67,0,0,1,73.77,47a2.36,2.36,0,0,1,.75-0.3,3.83,3.83,0,0,1,.82-0.1,2.84,2.84,0,0,1,.95.17,1.29,1.29,0,0,1,.7.62,1.47,1.47,0,0,1,.18.65c0,0.24,0,.46,0,0.68l0.57-.08A6.17,6.17,0,0,0,77.69,48a2.14,2.14,0,0,1,0-.62L77.78,46l-0.57-.11-0.09.69a3.13,3.13,0,0,0-.92-0.38,4.19,4.19,0,0,0-1-.13,3.74,3.74,0,0,0-1,.15,3.07,3.07,0,0,0-.91.44,2.11,2.11,0,0,0-.65.74,2.14,2.14,0,0,0-.22,1,2,2,0,0,0,.37,1.28,2.66,2.66,0,0,0,.92.73,6,6,0,0,0,1.19.44,8.32,8.32,0,0,1,1.19.41,2.79,2.79,0,0,1,.92.65,1.93,1.93,0,0,1,.17,2,1.75,1.75,0,0,1-.52.56,2.11,2.11,0,0,1-.7.31,2.84,2.84,0,0,1-.76.1,3.59,3.59,0,0,1-1.07-.13,1.69,1.69,0,0,1-.69-0.37,1.47,1.47,0,0,1-.4-0.58A3.34,3.34,0,0,1,72.83,53l-0.08-.55-0.55.07a6.18,6.18,0,0,1,.12.62,2.66,2.66,0,0,1,0,.63l-0.13,1.52,0.55,0.08,0.08-.71a3,3,0,0,0,1.08.54,4.52,4.52,0,0,0,1.2.17,3.77,3.77,0,0,0,1.13-.17,3,3,0,0,0,.92-0.49A2.42,2.42,0,0,0,77.78,54a2.46,2.46,0,0,0-.18-2.36m-9,3.6v-2.7H68v0.35a7.67,7.67,0,0,1,0,.91,0.91,0.91,0,0,1-.21.55,0.87,0.87,0,0,1-.53.28,5.33,5.33,0,0,1-1,.07h-2.7V50.57H66V52h0.58V48.72H66V50H63.54V46.75H66.3a4.16,4.16,0,0,1,.79.06,0.81,0.81,0,0,1,.44.23,0.92,0.92,0,0,1,.19.49,6.28,6.28,0,0,1,0,.83v0.22h0.58V46.21H61.41v0.54H63v7.92H61.41v0.54h7.2Zm-17.18-9v0.54h1.5v7.92h-1.5v0.54h4.78V54.68h-2.7V50.81H56v1.47h0.58V49H56v1.3H53.51V46.76h2.76a4.16,4.16,0,0,1,.79.06,0.76,0.76,0,0,1,.44.24,1,1,0,0,1,.19.5,6,6,0,0,1,0,.81v0.22h0.58V46.22H51.43Zm-9.51,8.42A2.36,2.36,0,0,1,41,53.93a3.8,3.8,0,0,1-.67-1.27,6.39,6.39,0,0,1-.25-1.94,6.32,6.32,0,0,1,.25-1.93A3.59,3.59,0,0,1,41,47.51a2.66,2.66,0,0,1,.92-0.71,2.47,2.47,0,0,1,2,0,2.46,2.46,0,0,1,.92.71,3.68,3.68,0,0,1,.67,1.28,6.34,6.34,0,0,1,.26,1.93,6,6,0,0,1-.26,1.94,3.63,3.63,0,0,1-.67,1.27,2.46,2.46,0,0,1-.92.71,2.47,2.47,0,0,1-2,0m2.21,0.52a3,3,0,0,0,1.13-.79,4.34,4.34,0,0,0,.84-1.44,7.57,7.57,0,0,0,0-4.42,4.24,4.24,0,0,0-.84-1.44,3.14,3.14,0,0,0-1.13-.79A3.32,3.32,0,0,0,42.94,46a3.28,3.28,0,0,0-1.19.24,3,3,0,0,0-1.13.79,4.34,4.34,0,0,0-.84,1.44,7.57,7.57,0,0,0,0,4.42,4.24,4.24,0,0,0,.84,1.44,3,3,0,0,0,1.13.79,3.07,3.07,0,0,0,2.38,0M31.21,46.22v0.54h2.46v7.92H31.21v0.54H36.7V54.68H34.25V46.76H36.7V46.22H31.21Zm-8.42.72,1.27-.18a2.69,2.69,0,0,1,1.26.11,2.46,2.46,0,0,1,1.08.71,3.86,3.86,0,0,1,.75,1.4,7.06,7.06,0,0,1,.28,2.15,5.23,5.23,0,0,1-.24,1.68A3.13,3.13,0,0,1,26.53,54a2.22,2.22,0,0,1-1,.62,2.61,2.61,0,0,1-1.19.1l-1.59-.18V46.94h0ZM22.21,54.5L21,54.68,21,55.22l0.69-.11A4,4,0,0,1,22.43,55a5.52,5.52,0,0,1,1,.09,5.52,5.52,0,0,0,1,.09,5.13,5.13,0,0,0,1.25-.17,3,3,0,0,0,1.19-.65,3.36,3.36,0,0,0,.88-1.32,5.93,5.93,0,0,0,.35-2.2A7.17,7.17,0,0,0,27.86,49a4.29,4.29,0,0,0-.68-1.48,3.3,3.3,0,0,0-1.17-1,3.67,3.67,0,0,0-1.69-.36,5.71,5.71,0,0,0-1,.09,4.92,4.92,0,0,1-.91.09,2.87,2.87,0,0,1-.69-0.07l-0.6-.11L21,46.76l1.21,0.18V54.5Zm-7-8.28v0.54h1.12v5.7a2.69,2.69,0,0,1-.51,1.86,2.12,2.12,0,0,1-1.6.54,2.1,2.1,0,0,1-1.6-.54,2.69,2.69,0,0,1-.51-1.86v-5.7h1.12V46.22H10.45v0.54H11.5v5.88a2.82,2.82,0,0,0,.67,2.13,2.87,2.87,0,0,0,2,.63,2.85,2.85,0,0,0,2-.63,2.82,2.82,0,0,0,.67-2.13V46.76h1V46.22H15.19ZM5.87,51.8H2.33l1.72-5ZM4.06,45.27l-3.34,9.4H0v0.54H2.71V54.67H1.31l0.81-2.34H6l0.85,2.34H5.5v0.54H8.25V54.67H7.53Z" transform="translate(0 -0.67)"/><path class="cls-1" d="M123.51,30.22v0.54h1.67v7.92h-1.67v0.54h7.25V36.28h-0.58v1.19a1.33,1.33,0,0,1-.31.85,1.37,1.37,0,0,1-1.07.37h-3V30.77h1.72V30.23h-4Zm-5.32,5.58h-3.54l1.73-5Zm-1.8-6.53-3.34,9.4h-0.72v0.54H115V38.67h-1.39l0.81-2.34h3.92l0.86,2.34h-1.4v0.54h2.75V38.67h-0.72ZM109,30.76h1V30.22h-3v0.54h1.46v7.5h0l-4.54-8H102v0.54h1.14v7.92H102v0.54h3.13V38.68h-1.41v-7.6h0l4.62,8.14H109V30.76h0Zm-14.2,7.88a2.43,2.43,0,0,1-.92-0.7,3.9,3.9,0,0,1-.67-1.27A6.51,6.51,0,0,1,93,34.72a6.37,6.37,0,0,1,.25-1.93,3.59,3.59,0,0,1,.67-1.28,2.43,2.43,0,0,1,.92-0.7,2.47,2.47,0,0,1,2,0,2.54,2.54,0,0,1,.92.7,3.85,3.85,0,0,1,.67,1.28,7.61,7.61,0,0,1,0,3.87,3.63,3.63,0,0,1-.67,1.27,2.53,2.53,0,0,1-1.94.92,2.33,2.33,0,0,1-1-.21m2.22,0.52a3,3,0,0,0,1.13-.79A4.34,4.34,0,0,0,99,36.93a6.39,6.39,0,0,0,.33-2.21A6.39,6.39,0,0,0,99,32.51a4.24,4.24,0,0,0-.84-1.44,3.14,3.14,0,0,0-1.13-.79A3.32,3.32,0,0,0,95.87,30a3.28,3.28,0,0,0-1.19.24,3,3,0,0,0-1.13.79,4.24,4.24,0,0,0-.84,1.44,7.57,7.57,0,0,0,0,4.42,4.15,4.15,0,0,0,.84,1.44,3.14,3.14,0,0,0,1.13.79,3.32,3.32,0,0,0,1.19.24,3.36,3.36,0,0,0,1.19-.24M84.13,30.22v0.54h2.46v7.92H84.13v0.54h5.49V38.68H87.17V30.76h2.45V30.22H84.13Zm-4.9,9V38.68h-2V30.76h1.42a4.3,4.3,0,0,1,.7,0,0.69,0.69,0,0,1,.4.2,0.81,0.81,0,0,1,.18.42,4.61,4.61,0,0,1,0,.71v1h0.58v-3H73.28v3h0.58v-1a6.52,6.52,0,0,1,0-.71A0.81,0.81,0,0,1,74.08,31a0.66,0.66,0,0,1,.4-0.2,3.34,3.34,0,0,1,.7,0h1.43v7.92h-2v0.54h4.63ZM68.57,35.8H65l1.73-5Zm-1.8-6.53-3.35,9.4H62.7v0.54h2.71V38.67H64l0.81-2.34h3.92l0.85,2.34h-1.4v0.54h2.75V38.67H70.22Zm-7.35,1.49h1V30.22h-3v0.54h1.46v7.5h0l-4.54-8H52.36v0.54H53.5v7.92H52.36v0.54H55.5V38.68H54.09v-7.6h0l4.62,8.14h0.69V30.76h0Zm-15.84,0,0.35,0,0.46,0,0.49,0h0.46a2.88,2.88,0,0,1,.78.1,2.18,2.18,0,0,1,.67.32,1.79,1.79,0,0,1,.47.55,1.61,1.61,0,0,1,.18.78,1.65,1.65,0,0,1-1,1.66,3,3,0,0,1-1,.26,9.55,9.55,0,0,1-1.06.06H43.59V30.8h0Zm6,7.88h-1L46,34.89a2.91,2.91,0,0,0,1.52-.81,2.25,2.25,0,0,0,.58-1.61,2.13,2.13,0,0,0-.23-1,2,2,0,0,0-.58-0.71,2.48,2.48,0,0,0-.79-0.41,3,3,0,0,0-.89-0.13c-0.41,0-.82,0-1.22.06a8.25,8.25,0,0,1-1.22,0l-1.41-.06v0.54L43,30.83v7.84H41.73v0.54H45V38.67H43.58V35h1.79l2.76,4.23h1.41V38.68Zm-11,.54v-2.7H38v0.35a7.67,7.67,0,0,1,0,.91,1,1,0,0,1-.21.56,1,1,0,0,1-.53.28,5.28,5.28,0,0,1-1,.07h-2.7V34.58H36V36h0.58V32.73H36V34H33.5V30.77h2.76a4.16,4.16,0,0,1,.79.06,0.81,0.81,0,0,1,.44.23,1,1,0,0,1,.19.49,6.18,6.18,0,0,1,0,.83V32.6H38.3V30.23H31.37v0.54h1.54v7.92H31.37v0.54h7.21ZM27,39.22V38.68H25V30.76H26.4a4.3,4.3,0,0,1,.7,0,0.69,0.69,0,0,1,.4.2,0.81,0.81,0,0,1,.18.42,4.61,4.61,0,0,1,0,.71v1H28.3v-3H21.06v3h0.58v-1a6.52,6.52,0,0,1,0-.71A0.81,0.81,0,0,1,21.86,31a0.66,0.66,0,0,1,.4-0.2,3.34,3.34,0,0,1,.7,0h1.43v7.92h-2v0.54H27ZM17,30.76h1V30.22H15v0.54h1.46v7.5h0l-4.54-8H10v0.54h1.14v7.92H10v0.54h3.14V38.68H11.71v-7.6h0l4.62,8.14h0.69V30.76ZM1.38,30.22v0.54H3.84v7.92H1.38v0.54H6.87V38.68H4.42V30.76H6.87V30.22H1.38Z" transform="translate(0 -0.67)"/><path class="cls-1" d="M116.41,11.22v4.5H118V14a5,5,0,0,1,.05-0.8,0.57,0.57,0,0,1,.13-0.32,0.47,0.47,0,0,1,.29-0.14,3.59,3.59,0,0,1,.77-0.06h1.36v9.1h-2.5v1.42h6.56V21.8h-2.52V12.7h1.38a3.59,3.59,0,0,1,.77.06,0.47,0.47,0,0,1,.29.14,0.8,0.8,0,0,1,.12.32,3.5,3.5,0,0,1,0,.8v1.7h1.54v-4.5h-9.82Zm-7.14,5.05a4.77,4.77,0,0,1-.89-0.38,2.1,2.1,0,0,1-.67-0.58,1.47,1.47,0,0,1-.26-0.89,1.34,1.34,0,0,1,.24-0.81,1.94,1.94,0,0,1,.6-0.54,2.59,2.59,0,0,1,.79-0.3,4,4,0,0,1,.81-0.09,2.12,2.12,0,0,1,1.08.22,1.42,1.42,0,0,1,.56.58,2.16,2.16,0,0,1,.21.84c0,0.32,0,.66.07,1l1.52-.2c-0.07-.47-0.12-0.83-0.15-1.1a6.73,6.73,0,0,1-.05-0.74l0.18-2.1-1.46-.26-0.1.7a3.66,3.66,0,0,0-1-.31,5.83,5.83,0,0,0-1-.09,5.08,5.08,0,0,0-1.39.2,3.93,3.93,0,0,0-1.25.61,3.16,3.16,0,0,0-.9,1,2.85,2.85,0,0,0-.34,1.43,3.06,3.06,0,0,0,.3,1.43,2.91,2.91,0,0,0,.78.95,4.18,4.18,0,0,0,1.07.61c0.39,0.15.77,0.28,1.13,0.39s0.77,0.24,1.1.36a4.4,4.4,0,0,1,.87.42,1.59,1.59,0,0,1,.57.61,2,2,0,0,1,.2.93,1.63,1.63,0,0,1-.2.82,1.71,1.71,0,0,1-.51.56,2.16,2.16,0,0,1-.72.33,3.32,3.32,0,0,1-.83.11,4.56,4.56,0,0,1-1.19-.16,1.44,1.44,0,0,1-.72-0.47,2.38,2.38,0,0,1-.42-0.89,13.36,13.36,0,0,1-.29-1.44l-1.5.2a9.52,9.52,0,0,1,.2,1.1,6.58,6.58,0,0,1,0,.74l-0.2,2.22,1.46,0.2,0.08-.62a4.93,4.93,0,0,0,1.2.43,5.86,5.86,0,0,0,1.26.13,5,5,0,0,0,1.51-.23,3.71,3.71,0,0,0,1.24-.67,3.3,3.3,0,0,0,.85-1.07,3.17,3.17,0,0,0,.32-1.43,3,3,0,0,0-.31-1.45,3.35,3.35,0,0,0-.79-1,4,4,0,0,0-1.06-.64q-0.58-.24-1.14-0.42l-0.92-.29m-11.9-2.21L99,18.42H95.87Zm0-4.1L93.15,21.8h-1v1.42h4V21.8h-1.5l0.7-2h4.08l0.72,2H98.69v1.42h4V21.8h-1ZM84.3,21.73a2.6,2.6,0,0,1-1-.77,4.19,4.19,0,0,1-.74-1.45,8.65,8.65,0,0,1,0-4.59,4.24,4.24,0,0,1,.74-1.46,2.6,2.6,0,0,1,1-.77,2.75,2.75,0,0,1,2.2,0,2.7,2.7,0,0,1,1,.77,4.08,4.08,0,0,1,.75,1.46,8.65,8.65,0,0,1,0,4.59A4,4,0,0,1,87.52,21a2.7,2.7,0,0,1-1,.77,3.18,3.18,0,0,1-1.1.25,3.49,3.49,0,0,1-1.1-.25M87.05,11.3A4.77,4.77,0,0,0,85.4,11a4.71,4.71,0,0,0-1.63.32,4,4,0,0,0-1.55,1.08,5.77,5.77,0,0,0-1.14,1.95,8.45,8.45,0,0,0-.44,2.89,8.39,8.39,0,0,0,.44,2.88A5.72,5.72,0,0,0,82.22,22a4.11,4.11,0,0,0,1.55,1.09,4.51,4.51,0,0,0,1.63.33h0A4.51,4.51,0,0,0,87,23.13,4.11,4.11,0,0,0,88.6,22a5.72,5.72,0,0,0,1.14-1.94,8.39,8.39,0,0,0,.44-2.88,8.45,8.45,0,0,0-.44-2.89,5.77,5.77,0,0,0-1.14-1.95,3.9,3.9,0,0,0-1.55-1.08m-10.86,8a3.28,3.28,0,0,1-.59,2,2.4,2.4,0,0,1-1.87.72,2.77,2.77,0,0,1-1.51-.43,3.34,3.34,0,0,1-1-1.11,5.55,5.55,0,0,1-.6-1.55,7.42,7.42,0,0,1,0-3.38A5,5,0,0,1,71.17,14a3.44,3.44,0,0,1,1-1.08,2.83,2.83,0,0,1,1.55-.42,3.19,3.19,0,0,1,1.08.18,1.67,1.67,0,0,1,.68.46,1.79,1.79,0,0,1,.37.77A8.75,8.75,0,0,1,76.05,15l0,0.46,1.48-.24-0.08-1.66V13.42a4.37,4.37,0,0,1,.06-0.72c0-.15.05-0.29,0.07-0.44a1.56,1.56,0,0,1,.11-0.4l0.14-.4L76.41,11l-0.12.38-0.08.26a5.62,5.62,0,0,0-2.5-.58,4.59,4.59,0,0,0-1.68.3,4.54,4.54,0,0,0-1.6,1,5.57,5.57,0,0,0-1.17,1.9,8,8,0,0,0-.45,2.86,8.3,8.3,0,0,0,.45,2.9,5.91,5.91,0,0,0,1.15,2,4.51,4.51,0,0,0,3.26,1.46h0A4.89,4.89,0,0,0,75.83,23a6.39,6.39,0,0,0,1.78-1.26l0.12-.12V18.84H76.19v0.42Zm-23.7-6.34,1.22-.18,0.23,0h0.23a3,3,0,0,1,1.2.26,2.66,2.66,0,0,1,1,.85,4.56,4.56,0,0,1,.72,1.55,9.21,9.21,0,0,1,.29,2.36,6.78,6.78,0,0,1-.25,1.82,3.51,3.51,0,0,1-.62,1.24,2.41,2.41,0,0,1-.92.71,2.85,2.85,0,0,1-1.13.23h-0.4l-1.6-.18V12.92Zm3.73-1.15A4.93,4.93,0,0,0,54,11.28a6.77,6.77,0,0,0-1.35.12,4.63,4.63,0,0,1-1.07.1,3.84,3.84,0,0,1-.78-0.07L50,11.28l-0.4-.06L49.43,12.7,51,12.92v8.62l-1.58.24,0.24,1.44,0.38,0c0.31,0,.59-0.09.86-0.14A4.3,4.3,0,0,1,51.63,23a7,7,0,0,1,1.17.11,7.5,7.5,0,0,0,1.27.11A6.56,6.56,0,0,0,55.73,23a4.07,4.07,0,0,0,1.62-.89,4.56,4.56,0,0,0,1.19-1.77A7.74,7.74,0,0,0,59,17.44a9.37,9.37,0,0,0-.28-2.36,5.86,5.86,0,0,0-.9-2,4.17,4.17,0,0,0-1.59-1.35m-16.57,1,0.89-.07,0.89,0A2.89,2.89,0,0,1,43,13.1a1.46,1.46,0,0,1,.64,1.32,2.05,2.05,0,0,1-.28,1.11,1.77,1.77,0,0,1-.72.59,3.4,3.4,0,0,1-1.1.29,11,11,0,0,1-1.28.07h-0.6V12.76Zm5.92,9-2.72-4.12a3.77,3.77,0,0,0,1.71-1.19,3.09,3.09,0,0,0,.65-2.07A3.18,3.18,0,0,0,44.89,13a3,3,0,0,0-.82-1A3.51,3.51,0,0,0,43,11.37a4,4,0,0,0-1.22-.19q-0.71,0-1.38.06T39,11.3H38.86l-0.17,0-2.16-.08v1.48l1.58,0.12v9H36.53v1.42h4.92V21.8h-1.8V18h1.6l3.42,5.26H47V21.8H45.57ZM26.18,11.22v1.42h3v9.1h-3v1.48H33.8V21.74h-3v-9.1h3V11.22H26.18Zm-7.32,0v1.42h1.58v3.7h-4.3v-3.7h1.58V11.22H13v1.42H14.6V21.8H13v1.42h4.7V21.8H16.14v-4h4.3v4H18.86v1.42h4.7V21.8H22V12.64h1.58V11.22h-4.7Zm-18.13,0v4.5H2.27V14a5,5,0,0,1,0-.8,0.55,0.55,0,0,1,.12-0.32,0.47,0.47,0,0,1,.29-0.14A3.66,3.66,0,0,1,3.5,12.7H4.86v9.1H2.36v1.42H8.92V21.8H6.4V12.7H7.78a3.59,3.59,0,0,1,.77.06,0.46,0.46,0,0,1,.3.14,0.8,0.8,0,0,1,.12.32A3.64,3.64,0,0,1,9,14v1.7h1.54v-4.5H0.73Z" transform="translate(0 -0.67)"/></svg>