<?xml version="1.0" encoding="utf-8"?>
<!DOCTYPE svg PUBLIC "-//W3C//DTD SVG 1.1//EN" "http://www.w3.org/Graphics/SVG/1.1/DTD/svg11.dtd">
<svg version="1.1" id="Layer_1" xmlns="http://www.w3.org/2000/svg" xmlns:xlink="http://www.w3.org/1999/xlink" x="0px" y="0px"
	 width="100px" height="300px" viewBox="0 0 100 300" style="enable-background:new 0 0 100 300;" xml:space="preserve">
<style type="text/css">
<![CDATA[
	.st0{fill:#555;}
]]>
</style>
<path class="st0" d="M74.64,19.63c-1.81,0.8-3.76,1.35-5.8,1.59c2.09-1.25,3.69-3.23,4.44-5.59c-1.95,1.16-4.12,2-6.42,2.45
	c-1.84-1.96-4.47-3.19-7.38-3.19c-5.58,0-10.11,4.53-10.11,10.11c0,0.79,0.09,1.56,0.26,2.3c-8.4-0.42-15.85-4.45-20.83-10.56
	c-0.87,1.49-1.37,3.23-1.37,5.08c0,3.51,1.78,6.6,4.5,8.41c-1.66-0.05-3.21-0.51-4.58-1.26c0,0.04,0,0.08,0,0.13
	c0,4.9,3.48,8.98,8.11,9.91c-0.85,0.23-1.74,0.35-2.66,0.35c-0.65,0-1.29-0.06-1.9-0.18c1.29,4.01,5.02,6.94,9.44,7.02
	c-3.46,2.71-7.82,4.33-12.55,4.33c-0.82,0-1.62-0.05-2.41-0.14c4.47,2.87,9.79,4.54,15.49,4.54c18.59,0,28.76-15.4,28.76-28.76
	c0-0.44-0.01-0.88-0.03-1.31C71.57,23.44,73.28,21.66,74.64,19.63z"/>
<path class="st0" d="M60.17,134.13h-7.65v-5.01c0-1.88,1.25-2.32,2.13-2.32c0.88,0,5.4,0,5.4,0v-8.28l-7.43-0.03
	c-8.25,0-10.12,6.17-10.12,10.12v5.52h-4.77v8.53h4.77c0,10.95,0,24.14,0,24.14h10.03c0,0,0-13.32,0-24.14h6.77L60.17,134.13z"/>
<path class="st0" d="M40.68,255.14H28.93v-1.5l0,0c0,14.42,0,23.42,0,23.42c0,6.48,6.48,6.48,6.48,6.48h30.39c0,0,6.48,0,6.48-6.48
	v-21.92l0,0v-1.5h-12.7c-2.04-2.72-5.3-4.48-8.97-4.48s-6.92,1.76-8.97,4.48h-12.7c0-2.2,0-4.53,0-6.97c0-4.09,2.58-5.6,4.48-6.15
	v8.64h1.5v-8.94l0,0c0.31-0.03,0.5-0.03,0.5-0.03h30.39c0,0,6.48,0,6.48,6.48v8.47H60.51c0.83,1.56,1.29,3.34,1.29,5.23
	c0,6.19-5.02,11.21-11.21,11.21c-6.19,0-11.21-5.02-11.21-11.21C39.39,258.48,39.86,256.7,40.68,255.14L40.68,255.14z M64.4,243.18
	c-1.43,0-2.59,1.17-2.59,2.59v2.29c0,1.43,1.17,2.59,2.59,2.59h2.29c1.43,0,2.59-1.17,2.59-2.59v-2.29c0-1.43-1.17-2.59-2.59-2.59
	H64.4z M39.39,240.19v8.97h1.5v-8.97H39.39z M36.4,240.19v8.97h1.49v-8.97H36.4z M50.6,269.34c4.95,0,8.97-4.01,8.97-8.97
	c0-4.95-4.01-8.97-8.97-8.97c-4.95,0-8.97,4.02-8.97,8.97C41.63,265.32,45.65,269.34,50.6,269.34z M50.6,266.35
	c3.3,0,5.98-2.68,5.98-5.98s-2.68-5.98-5.98-5.98c-3.3,0-5.98,2.68-5.98,5.98S47.3,266.35,50.6,266.35z"/>
</svg>
