<?xml version="1.0" encoding="utf-8"?>
<!DOCTYPE svg PUBLIC "-//W3C//DTD SVG 1.1//EN" "http://www.w3.org/Graphics/SVG/1.1/DTD/svg11.dtd">
<svg version="1.1" id="Layer_1" xmlns="http://www.w3.org/2000/svg" xmlns:xlink="http://www.w3.org/1999/xlink" x="0px" y="0px" width="750px" height="100px" viewBox="0 0 750 100" style="enable-background:new 0 0 750 100;" xml:space="preserve">
  <defs>
    <path id="path_left" class="st2" d="M27,79.5c0,0,11.54,6.15,133.63,11.9"/>
    <path id="path_right" class="st2" d="M370.09,90.83c97.16-4.94,235.37-23.6,354.57-47.5"/>
    <style type="text/css">
      <![CDATA[
        .brown {fill:#88746A;}
        .blue {fill:#EE3124;}
        .red {fill:#5B9B98;}
      ]]>
    </style>  
  </defs>
  <g id="type">
    <text style="font-family:'Courier New';fill:#555;font-size:10px;text-transform:uppercase;">
      <textPath xlink:href="#path_left" style="text-align:right;" startOffset="60">Third Coast</textPath> 
      <textPath xlink:href="#path_right" startOffset="5">International Audio Festival</textPath> 
    </text> 
    <path style="stroke:#555;fill:none;stroke-dasharray:10 3;stroke-width:0.2" d="M160.63,91.4c59.08,2.78,129.77,3.48,209.46-0.57"/>
  </g>
  <g id="pidgy" transform="translate(140 47) scale(0.5 0.5)">
    <g class="brown">
    	<path class="st0" d="M282.38,42.78c-2.71-5.57-1.14-25.5-3.58-31.17c-4.99-11.59-14.13-10.19-17.05-9.43
    		c-0.3,0.05-0.59,0.13-0.89,0.25c0,0,0,0,0,0c-0.16,0.02-0.29,0.09-0.4,0.19c-0.57,0.3-1.18,0.75-1.91,1.48
    		c-0.55,0.55-0.73,1.17-0.81,1.8c-0.34,0.23-0.34,0.7-0.08,1.07c-0.03,0.33-0.07,0.66-0.16,0.98c0.9,0.75,2.69,1.85,2.91,2.42
    		c0.31,0.79,0.12,1.75-0.7,2.08c-0.83,0.32-1.27-0.5-1.27-1.41c0-1.75-0.57-2.46-1.06-2.76c-0.1,0.33-1.92,1.14-2.19,1.41
    		c-0.26,0.26-0.07,0.99-0.07,0.99c-0.96,1.36-1.49,2.88-1,3.38c0,0,2.16-1.08,3.96-1.08c1.62,0,3.36,0.72,3.36,4.38
    		c0,1.17-0.82,3.44-2.33,6.39c-0.73,0.51-0.86,1.25-0.87,1.64c-0.09,0.16-2.07,1.84-4.45,5.61c-0.44,1-0.03,1.38-0.03,1.38
    		s0.01,0,0.02,0.01c-1.52,1.9-2.78,3.14-2.78,3.14s7.57-0.06,13.68,6.05c6.11,6.11,6.06,13.46,2.92,16.6
    		c0,0,10.11-10.17,12.85-10.17c0-0.03-1.12-5.92,1-3.56C280.25,42,280.52,40.49,282.38,42.78z M267.22,7.77
    		c-0.13,1.03-0.96,1.77-1.84,1.65c-0.88-0.12-1.49-1.04-1.36-2.07c0.13-1.03,0.96-1.77,1.85-1.65
    		C266.75,5.82,267.35,6.75,267.22,7.77z"/>
    	<path class="st0" d="M277.85,56.63c0,0-9.16,8.04-18.13,12.23c-11.93,5.57-21.44,5.36-26.75,5.6c-1.71,0-1.94-2.04-1.89-2.23
    		c-1.58,1.39-5.57,3.35-6.06,2.32c0.06-0.98,2.27-3.65,2.27-3.65s-6.54,4.93-8.16,3.3c-1.14-1.13,0.09-3.3,0.09-3.3
    		s-9.86,8.64-11.94,6.56c-1.05-1.05,4-6.99,4-6.99c-0.58,0.39-2.99,3.1-5.53,5.64c-2.54,2.54-10.77,7.52-11.14,7.74
    		c-0.37,0.22-0.25,0.7-0.45,0.82c-0.21,0.13-1.06,0.99-0.94,1.19c0.1,0.17,1.36,0.14,2.8-0.03c0.94-0.11,18.9-9.37,21.98-10.01
    		c4.24-0.14,10.78,0.76,11.95,0.89c0.78,0.13,1.82,0.25,3.18,0.33c-0.03,0.1-0.05,0.2-0.07,0.32c-0.17,1.08-1.04,2.87-2,4.12
    		c0.07,0.39,1.32,1.85,1.72,2.08c0.86-1.19,1.88-2.46,4.13-4.09c1.68-1.22,3.13-2.24,4.46-2.55c0.76-0.18,3.92-0.04,4.78-0.19
    		l-0.01,0c0,0-0.07,2.36,1.12,3.89c0.69,0.9,2.41,2.76,4.4,4.04c0.88,0.57,2.51,2.28,3.31,3.54c0.37,0.06,0.78,0.2,1.46-0.07
    		c0.58-0.22,1.09-0.51,1.09-0.51c-0.77-1.15-1.88-4.28-2.59-6.82c-0.83-2.98-0.74-5.2,0.07-6.71l-0.01,0
    		C268.62,68.36,277.85,56.63,277.85,56.63z"/>
    	<path d="M219,54.84c0,0-3.5,12.01,12.53,15.22c-11.28,0.61-19.33-0.44-19.33-0.44s-0.73-0.19,0.58-1.08
    		c-1.78,0.23-4.41,0.62-5.22-0.31c0.97-1.08-3.64,0.19-4.57-0.81c2.13-1.62-3.21-0.81-4.64-1.62
    		C197.76,63.36,198.72,58.31,219,54.84z"/>
    </g>
    <g class="red">
    	<path class="st3" d="M233.05,48.38c-2.09,7.66,10.29,23.06,27.78,14.78c-14.86,9.52-28.94-3.33-31.18-6.96
    		c0,3.17,2.94,12.77,17.41,12.46c-18.5,3.48-25.54-8.28-22.6-15.79L233.05,48.38z"/>
    	<ellipse class="st3" cx="265.58" cy="7.35" rx="0.83" ry="0.88"/>
    </g>
    <g class="blue">
    	<path class="st1" d="M270.78,91.38c-0.12-0.75-3.21-0.36-5.48-0.16c1.17-0.56,1.7-1.4,1.7-1.4s0.52-0.32,1.09,0.22
    		c0.05-0.17,0.03-0.38-0.29-0.59c-0.33-0.22-0.87-0.2-0.87-0.2s-0.29-0.39-0.83-0.34c-0.4,0.04-3.66,1.26-5.66,1.06
    		c-0.6-0.06-1.81-0.62-2.36-1.49c-0.8,0.5-1.7,0.72-2.8,0.61c0.21,0.58,0.3,1,0.21,1.13c-0.33,0.45-4.51,0.34-5.5,0.48
    		c-0.98,0.15-0.93,1.22-0.93,1.22s0.11-0.08,0.34-0.37c0.43-0.26,0.26,0.29,1.07,0.7s4.99-0.01,5.96,0.2
    		c0.96,0.22,1.15,0.76,1.61,1.37c0.45,0.62,1.2,1.12,1.97,1.37c0.24,0.08-0.46,0.81-0.46,0.81s0,0,0.32-0.05
    		c0.32-0.05,1.15-0.47,1.31-0.81c0.38-0.78-0.42-2.09-0.42-2.09s7.88,0.11,9.22-0.09c1.34-0.2,1.14-0.74,1.14-0.74
    		s0.36-0.33,1.66,0.5C272.24,91.43,271.32,91.45,270.78,91.38z"/>
    	<path class="st1" d="M239.48,90.98c-0.46-0.44-1.03-0.49-1.22-0.51c-0.19-0.35-0.94-0.41-0.94-0.41s-0.24-0.24-0.63-0.34
    		c-0.23-0.06-2.32,0.17-2.9-0.46c-0.73-0.78-1.4-2.02-1.77-2.73c-0.28-0.54-0.1-1.36,0.33-2.29c-0.32-0.14-0.67-0.38-1.03-0.8
    		c-0.37-0.42-0.68-0.86-0.93-1.32c-0.36,0.49-0.67,0.8-0.83,0.79c-0.55-0.03-2.76-3.59-3.42-4.33c-0.66-0.74-1.53-0.11-1.53-0.11
    		s0.37-0.03,0.6,0.05c0.54,0.18-0.1,0.59-0.09,1.31c0.13,0.95,2.75,4.16,3.1,5.09c0.35,0.92,0,1.38-0.26,2.1
    		c-0.27,0.72-0.08,2.11-0.08,2.36c0,0.46-0.68,0.11-0.91,0.1c0.19,0.58,1.17,1.03,1.68,0.89c0.68-0.19,1.45-1.49,1.45-1.49
    		s1.09,1.47,2.53,2.81c0.59,0.54,3.73,1.05,6.61,1.05c1.35,0,1.15-0.22,1.18-0.33c0.24,0,0.66,0.18,1.34,0.63
    		c0.15-0.12-0.03-0.88-0.64-1.58C240.5,90.77,239.48,90.98,239.48,90.98z"/>
    </g>
  </g>
</svg>