<?xml version="1.0" encoding="utf-8"?>
<svg version="1.1" id="Layer_1" xmlns="http://www.w3.org/2000/svg" xmlns:xlink="http://www.w3.org/1999/xlink" viewBox="0 0 94.9 35.9" style="enable-background:new 0 0 94.9 35.9;" xml:space="preserve">
<style type="text/css">
	path {fill:#F8F8F8;}
</style>
<g>
	<path d="M87.8,29.2v0.4H89v5.7h-1.2v0.4H93v-2.1h-0.4v0.9c0,0.2-0.1,0.4-0.2,0.6c-0.2,0.2-0.4,0.3-0.8,0.3h-2.2v-5.7
		h1.2v-0.4L87.8,29.2L87.8,29.2z M83.9,33.3h-2.6l1.2-3.6L83.9,33.3z M82.6,28.5l-2.4,6.8h-0.5v0.4h2v-0.4h-1l0.6-1.7H84l0.6,1.7h-1
		v0.4h2v-0.4h-0.5L82.6,28.5z M73,29.2v0.4h0.7l1.9,6.3h0.6l1.9-6.3h0.7v-0.4h-2.1v0.4h1l-1.8,5.8l-1.8-5.8h1v-0.4H73z M66.8,29.2
		v0.4h1.8v5.7h-1.8v0.4h4v-0.4H69v-5.7h1.8v-0.4H66.8z M63.2,35.8v-0.4h-1.5v-5.7h1c0.2,0,0.4,0,0.5,0c0.1,0,0.2,0.1,0.3,0.1
		c0.1,0.1,0.1,0.2,0.1,0.3c0,0.1,0,0.3,0,0.5v0.8h0.4v-2.1h-5.3v2.1h0.4v-0.8c0-0.2,0-0.4,0-0.5c0-0.1,0.1-0.2,0.1-0.3
		c0.1-0.1,0.2-0.1,0.3-0.1c0.1,0,0.3,0,0.5,0h1v5.7h-1.5v0.4H63.2z M56.3,33.1c-0.2-0.2-0.4-0.4-0.7-0.6c-0.3-0.1-0.6-0.3-0.9-0.3
		c-0.3-0.1-0.6-0.2-0.9-0.3c-0.3-0.1-0.5-0.3-0.7-0.4c-0.2-0.2-0.3-0.4-0.3-0.8c0-0.2,0.1-0.4,0.2-0.6c0.1-0.2,0.2-0.3,0.4-0.4
		c0.2-0.1,0.3-0.2,0.5-0.2c0.2,0,0.4-0.1,0.6-0.1c0.2,0,0.5,0,0.7,0.1c0.2,0.1,0.4,0.2,0.5,0.5c0.1,0.1,0.1,0.3,0.1,0.5
		c0,0.2,0,0.3,0,0.5l0.4-0.1c0-0.2,0-0.3-0.1-0.5s0-0.3,0-0.5l0.1-1L56.1,29L56,29.5c-0.2-0.1-0.4-0.2-0.7-0.3
		c-0.2-0.1-0.5-0.1-0.7-0.1c-0.3,0-0.5,0-0.8,0.1c-0.2,0.1-0.5,0.2-0.7,0.3c-0.2,0.1-0.4,0.3-0.5,0.5c-0.1,0.2-0.2,0.5-0.2,0.7
		c0,0.4,0.1,0.7,0.3,0.9c0.2,0.2,0.4,0.4,0.7,0.5c0.3,0.1,0.6,0.2,0.9,0.3c0.3,0.1,0.6,0.2,0.9,0.3c0.3,0.1,0.5,0.3,0.7,0.5
		c0.2,0.2,0.3,0.5,0.3,0.8c0,0.2-0.1,0.4-0.1,0.6c-0.1,0.2-0.2,0.3-0.4,0.4c-0.2,0.1-0.3,0.2-0.5,0.2c-0.2,0.1-0.4,0.1-0.6,0.1
		c-0.3,0-0.6,0-0.8-0.1c-0.2-0.1-0.4-0.2-0.5-0.3c-0.1-0.1-0.2-0.3-0.3-0.4c-0.1-0.2-0.1-0.3-0.1-0.5l-0.1-0.4l-0.4,0.1
		c0,0.1,0.1,0.3,0.1,0.5c0,0.2,0,0.3,0,0.5l-0.1,1.1l0.4,0.1l0.1-0.5c0.2,0.2,0.5,0.3,0.8,0.4c0.3,0.1,0.6,0.1,0.9,0.1
		s0.6,0,0.8-0.1c0.3-0.1,0.5-0.2,0.7-0.4c0.2-0.2,0.3-0.3,0.4-0.6c0.1-0.2,0.2-0.5,0.2-0.7C56.6,33.7,56.5,33.4,56.3,33.1
		 M49.8,35.8v-2h-0.4v0.3c0,0.3,0,0.5,0,0.7c0,0.2-0.1,0.3-0.2,0.4c-0.1,0.1-0.2,0.2-0.4,0.2s-0.4,0.1-0.7,0.1h-2v-3h1.8v1.1h0.4V31
		h-0.4V32h-1.8v-2.4h2c0.2,0,0.4,0,0.6,0c0.1,0,0.2,0.1,0.3,0.2c0.1,0.1,0.1,0.2,0.1,0.4c0,0.2,0,0.4,0,0.6v0.2h0.4v-1.7h-5v0.4h1.1
		v5.7h-1.1v0.4L49.8,35.8L49.8,35.8z M37.3,29.2v0.4h1.1v5.7h-1.1v0.4h3.5v-0.4h-2v-2.8h1.8v1.1h0.4v-2.4h-0.4v0.9h-1.8v-2.5h2
		c0.2,0,0.4,0,0.6,0c0.1,0,0.2,0.1,0.3,0.2c0.1,0.1,0.1,0.2,0.1,0.4c0,0.2,0,0.3,0,0.6v0.2h0.4v-1.7C42.3,29.2,37.3,29.2,37.3,29.2z
		 M30.4,35.3c-0.2-0.1-0.5-0.3-0.7-0.5c-0.2-0.2-0.4-0.5-0.5-0.9c-0.1-0.4-0.2-0.8-0.2-1.4c0-0.6,0.1-1,0.2-1.4
		c0.1-0.4,0.3-0.7,0.5-0.9c0.2-0.2,0.4-0.4,0.7-0.5c0.2-0.1,0.5-0.2,0.7-0.2c0.2,0,0.5,0.1,0.7,0.2c0.2,0.1,0.5,0.3,0.7,0.5
		c0.2,0.2,0.4,0.5,0.5,0.9c0.1,0.4,0.2,0.8,0.2,1.4c0,0.6-0.1,1-0.2,1.4c-0.1,0.4-0.3,0.7-0.5,0.9c-0.2,0.2-0.4,0.4-0.7,0.5
		c-0.2,0.1-0.5,0.2-0.7,0.2C30.9,35.5,30.7,35.4,30.4,35.3 M32,35.7c0.3-0.1,0.6-0.3,0.8-0.6c0.2-0.3,0.5-0.6,0.6-1
		c0.2-0.4,0.2-1,0.2-1.6s-0.1-1.2-0.2-1.6c-0.2-0.4-0.4-0.8-0.6-1s-0.5-0.5-0.8-0.6c-0.3-0.1-0.6-0.2-0.9-0.2
		c-0.3,0-0.6,0.1-0.9,0.2c-0.3,0.1-0.6,0.3-0.8,0.6s-0.5,0.6-0.6,1c-0.2,0.4-0.2,1-0.2,1.6s0.1,1.2,0.2,1.6c0.2,0.4,0.4,0.8,0.6,1
		c0.2,0.3,0.5,0.5,0.8,0.6s0.6,0.2,0.9,0.2S31.7,35.8,32,35.7 M22.7,29.2v0.4h1.8v5.7h-1.8v0.4h4v-0.4h-1.8v-5.7h1.8v-0.4H22.7z
		 M16.5,29.7l0.9-0.1c0.3,0,0.6,0,0.9,0.1c0.3,0.1,0.6,0.3,0.8,0.5c0.2,0.3,0.4,0.6,0.5,1c0.1,0.4,0.2,0.9,0.2,1.6
		c0,0.5-0.1,0.9-0.2,1.2s-0.3,0.6-0.5,0.8c-0.2,0.2-0.4,0.4-0.7,0.5c-0.3,0.1-0.6,0.1-0.9,0.1l-1.2-0.1L16.5,29.7L16.5,29.7z
		 M16.1,35.2l-0.9,0.1l0.1,0.4c0.2,0,0.3-0.1,0.5-0.1c0.2,0,0.3-0.1,0.5-0.1c0.2,0,0.5,0,0.7,0.1c0.2,0,0.5,0.1,0.7,0.1
		c0.3,0,0.6,0,0.9-0.1c0.3-0.1,0.6-0.2,0.9-0.5c0.3-0.2,0.5-0.5,0.6-1c0.2-0.4,0.3-0.9,0.3-1.6c0-0.5-0.1-0.9-0.2-1.3
		c-0.1-0.4-0.3-0.8-0.5-1.1c-0.2-0.3-0.5-0.5-0.8-0.7s-0.7-0.3-1.2-0.3c-0.3,0-0.5,0-0.8,0.1c-0.2,0-0.5,0.1-0.7,0.1
		c-0.2,0-0.4,0-0.5-0.1c-0.1,0-0.3-0.1-0.4-0.1l-0.1,0.4l0.9,0.1V35.2z M11,29.2v0.4h0.8v4.1c0,0.6-0.1,1.1-0.4,1.4
		c-0.2,0.3-0.6,0.4-1.2,0.4c-0.5,0-0.9-0.1-1.2-0.4c-0.2-0.3-0.4-0.7-0.4-1.4v-4.1h0.8v-0.4h-2v0.4h0.8v4.3c0,0.7,0.2,1.2,0.5,1.5
		s0.8,0.5,1.5,0.5s1.2-0.2,1.5-0.5c0.3-0.3,0.5-0.8,0.5-1.5v-4.3H13v-0.4H11z M4.3,33.3H1.7l1.2-3.6L4.3,33.3z M2.9,28.5l-2.4,6.8H0
		v0.4h2v-0.4H1l0.6-1.7h2.8L5,35.4H4v0.4h2v-0.4H5.5L2.9,28.5z"/>
</g>
<g>
	<path d="M89.7,16.2v0.4h1.2v5.7h-1.2v0.4h5.3v-2.1h-0.4v0.9c0,0.2-0.1,0.4-0.2,0.6c-0.2,0.2-0.4,0.3-0.8,0.3h-2.2v-5.7
		h1.2v-0.4L89.7,16.2L89.7,16.2z M85.8,20.2h-2.6l1.3-3.6L85.8,20.2z M84.5,15.5l-2.4,6.8h-0.5v0.4h2v-0.4h-1l0.6-1.7h2.8l0.6,1.7
		h-1v0.4h2v-0.4H87L84.5,15.5z M79.2,16.6h0.7v-0.4h-2.2v0.4h1.1V22h0l-3.3-5.8H74v0.4h0.8v5.7H74v0.4h2.3v-0.4h-1v-5.5h0l3.4,5.9
		h0.5L79.2,16.6L79.2,16.6z M68.9,22.3c-0.2-0.1-0.5-0.3-0.7-0.5c-0.2-0.2-0.4-0.5-0.5-0.9c-0.1-0.4-0.2-0.9-0.2-1.4
		c0-0.6,0.1-1,0.2-1.4s0.3-0.7,0.5-0.9c0.2-0.2,0.4-0.4,0.7-0.5c0.2-0.1,0.5-0.2,0.7-0.2s0.5,0.1,0.7,0.2c0.2,0.1,0.5,0.3,0.7,0.5
		c0.2,0.2,0.4,0.5,0.5,0.9s0.2,0.8,0.2,1.4c0,0.6-0.1,1-0.2,1.4s-0.3,0.7-0.5,0.9s-0.4,0.4-0.7,0.5c-0.2,0.1-0.5,0.2-0.7,0.2
		C69.3,22.4,69.1,22.4,68.9,22.3 M70.5,22.6c0.3-0.1,0.6-0.3,0.8-0.6c0.2-0.3,0.5-0.6,0.6-1c0.2-0.4,0.2-1,0.2-1.6s-0.1-1.2-0.2-1.6
		c-0.2-0.4-0.4-0.8-0.6-1c-0.2-0.3-0.5-0.5-0.8-0.6c-0.3-0.1-0.6-0.2-0.9-0.2c-0.3,0-0.6,0.1-0.9,0.2c-0.3,0.1-0.6,0.3-0.8,0.6
		c-0.2,0.3-0.5,0.6-0.6,1c-0.2,0.4-0.2,1-0.2,1.6c0,0.6,0.1,1.2,0.2,1.6c0.2,0.4,0.4,0.8,0.6,1c0.2,0.3,0.5,0.5,0.8,0.6
		c0.3,0.1,0.6,0.2,0.9,0.2C69.9,22.8,70.2,22.8,70.5,22.6 M61.1,16.2v0.4h1.8v5.7h-1.8v0.4h4v-0.4h-1.8v-5.7h1.8v-0.4H61.1z
		 M57.5,22.7v-0.4h-1.5v-5.7h1c0.2,0,0.4,0,0.5,0c0.1,0,0.2,0.1,0.3,0.1c0.1,0.1,0.1,0.2,0.1,0.3c0,0.1,0,0.3,0,0.5v0.8h0.4v-2.1
		h-5.3v2.1h0.4v-0.8c0-0.2,0-0.4,0-0.5c0-0.1,0.1-0.2,0.1-0.3c0.1-0.1,0.2-0.1,0.3-0.1c0.1,0,0.3,0,0.5,0h1v5.7h-1.5v0.4H57.5z
		 M49.8,20.2h-2.6l1.3-3.6L49.8,20.2z M48.5,15.5L46,22.3h-0.5v0.4h2v-0.4h-1l0.6-1.7h2.8l0.6,1.7h-1v0.4h2v-0.4H51L48.5,15.5z
		 M43.1,16.6h0.7v-0.4h-2.2v0.4h1.1V22h0l-3.3-5.8H38v0.4h0.8v5.7H38v0.4h2.3v-0.4h-1v-5.5h0l3.4,5.9h0.5L43.1,16.6L43.1,16.6z
		 M31.6,16.6c0.1,0,0.1,0,0.3,0c0.1,0,0.2,0,0.3,0c0.1,0,0.2,0,0.4,0c0.1,0,0.2,0,0.3,0c0.2,0,0.4,0,0.6,0.1
		c0.2,0.1,0.3,0.1,0.5,0.2c0.1,0.1,0.3,0.2,0.3,0.4c0.1,0.2,0.1,0.3,0.1,0.6c0,0.3-0.1,0.6-0.2,0.8c-0.1,0.2-0.3,0.3-0.5,0.4
		c-0.2,0.1-0.5,0.2-0.7,0.2s-0.5,0-0.8,0h-0.6L31.6,16.6L31.6,16.6z M36,22.3h-0.8l-1.8-2.8c0.5-0.1,0.8-0.3,1.1-0.6
		c0.3-0.3,0.4-0.7,0.4-1.2c0-0.3-0.1-0.5-0.2-0.8c-0.1-0.2-0.2-0.4-0.4-0.5c-0.2-0.1-0.4-0.2-0.6-0.3c-0.2-0.1-0.4-0.1-0.6-0.1
		c-0.3,0-0.6,0-0.9,0c-0.3,0-0.6,0-0.9,0l-1,0v0.4l0.9,0.1v5.7h-0.9v0.4h2.4v-0.4h-1.1v-2.7h1.3l2,3.1h1V22.3z M28,22.7v-2h-0.4V21
		c0,0.3,0,0.5,0,0.7c0,0.2-0.1,0.3-0.2,0.4c-0.1,0.1-0.2,0.2-0.4,0.2c-0.2,0-0.4,0.1-0.7,0.1h-2v-3h1.8v1.1h0.4V18h-0.4v1h-1.8v-2.4
		h2c0.2,0,0.4,0,0.6,0c0.1,0,0.2,0.1,0.3,0.2c0.1,0.1,0.1,0.2,0.1,0.4c0,0.2,0,0.3,0,0.6v0.2h0.4v-1.7h-5v0.4h1.1v5.7h-1.1v0.4
		L28,22.7L28,22.7z M19.6,22.7v-0.4h-1.5v-5.7h1c0.2,0,0.4,0,0.5,0c0.1,0,0.2,0.1,0.3,0.1c0.1,0.1,0.1,0.2,0.1,0.3
		c0,0.1,0,0.3,0,0.5v0.8h0.4v-2.1h-5.3v2.1h0.4v-0.8c0-0.2,0-0.4,0-0.5c0-0.1,0.1-0.2,0.1-0.3c0.1-0.1,0.2-0.1,0.3-0.1
		c0.1,0,0.3,0,0.5,0h1v5.7h-1.5v0.4H19.6z M12.4,16.6h0.7v-0.4h-2.2v0.4H12V22h0l-3.3-5.8H7.2v0.4h0.8v5.7H7.2v0.4h2.3v-0.4h-1v-5.5
		h0l3.4,5.9h0.5C12.4,22.7,12.4,16.6,12.4,16.6z M1,16.2v0.4h1.8v5.7H1v0.4h4v-0.4H3.2v-5.7H5v-0.4H1z"/>
</g>
<g>
	<path d="M84.5,0.9v3.3h1.1V2.9c0-0.3,0-0.5,0-0.6c0-0.1,0.1-0.2,0.1-0.2c0,0,0.1-0.1,0.2-0.1s0.3,0,0.6,0h1v6.6h-1.8v1
		h4.8v-1h-1.8V2h1c0.3,0,0.4,0,0.6,0c0.1,0,0.2,0.1,0.2,0.1c0,0,0.1,0.1,0.1,0.2c0,0.1,0,0.3,0,0.6v1.2h1.1V0.9
		C91.6,0.9,84.5,0.9,84.5,0.9z M79.3,4.6c-0.2-0.1-0.5-0.2-0.6-0.3c-0.2-0.1-0.4-0.3-0.5-0.4S78,3.5,78,3.2c0-0.2,0.1-0.4,0.2-0.6
		c0.1-0.2,0.3-0.3,0.4-0.4C78.8,2.2,79,2.1,79.2,2C79.4,2,79.6,2,79.8,2c0.3,0,0.6,0.1,0.8,0.2c0.2,0.1,0.3,0.2,0.4,0.4
		c0.1,0.2,0.1,0.4,0.2,0.6c0,0.2,0,0.5,0.1,0.7l1.1-0.1c-0.1-0.3-0.1-0.6-0.1-0.8c0-0.2,0-0.4,0-0.5l0.1-1.5l-1.1-0.2l-0.1,0.5
		C80.9,1.1,80.7,1,80.4,1c-0.2,0-0.5-0.1-0.7-0.1c-0.3,0-0.7,0.1-1,0.1c-0.3,0.1-0.6,0.2-0.9,0.4c-0.3,0.2-0.5,0.4-0.7,0.7
		c-0.2,0.3-0.2,0.6-0.2,1c0,0.4,0.1,0.8,0.2,1c0.1,0.3,0.3,0.5,0.6,0.7s0.5,0.3,0.8,0.4s0.6,0.2,0.8,0.3c0.3,0.1,0.6,0.2,0.8,0.3
		c0.2,0.1,0.5,0.2,0.6,0.3c0.2,0.1,0.3,0.3,0.4,0.4c0.1,0.2,0.1,0.4,0.1,0.7c0,0.2-0.1,0.4-0.1,0.6c-0.1,0.2-0.2,0.3-0.4,0.4
		c-0.2,0.1-0.3,0.2-0.5,0.2c-0.2,0.1-0.4,0.1-0.6,0.1c-0.4,0-0.6-0.1-0.9-0.1c-0.2-0.1-0.4-0.2-0.5-0.3S78,7.9,77.9,7.7
		c-0.1-0.3-0.1-0.6-0.2-1l-1.1,0.1c0.1,0.3,0.1,0.6,0.1,0.8c0,0.2,0,0.4,0,0.5l-0.1,1.6l1.1,0.1l0.1-0.5c0.3,0.1,0.6,0.2,0.9,0.3
		c0.3,0.1,0.6,0.1,0.9,0.1c0.4,0,0.8-0.1,1.1-0.2c0.3-0.1,0.6-0.3,0.9-0.5c0.3-0.2,0.5-0.5,0.6-0.8c0.2-0.3,0.2-0.7,0.2-1
		c0-0.4-0.1-0.8-0.2-1.1C82,6,81.8,5.8,81.6,5.6c-0.2-0.2-0.5-0.3-0.8-0.5C80.5,5,80.3,4.9,80,4.8C79.8,4.7,79.6,4.7,79.3,4.6
		 M70.7,3l1.1,3.2h-2.2L70.7,3z M70.7,0l-3.1,8.6h-0.7v1h2.9v-1h-1.1l0.5-1.4h3l0.5,1.4h-1.1v1h2.9v-1h-0.7L70.7,0z M61.2,8.5
		c-0.3-0.1-0.5-0.3-0.7-0.6c-0.2-0.3-0.4-0.6-0.5-1.1c-0.1-0.4-0.2-1-0.2-1.7c0-0.7,0.1-1.2,0.2-1.7c0.1-0.4,0.3-0.8,0.5-1.1
		c0.2-0.3,0.5-0.5,0.7-0.6c0.3-0.1,0.5-0.2,0.8-0.2c0.3,0,0.5,0.1,0.8,0.2c0.3,0.1,0.5,0.3,0.7,0.6c0.2,0.3,0.4,0.6,0.5,1.1
		c0.1,0.4,0.2,1,0.2,1.7c0,0.7-0.1,1.2-0.2,1.7c-0.1,0.4-0.3,0.8-0.5,1.1c-0.2,0.3-0.5,0.5-0.7,0.6c-0.3,0.1-0.5,0.2-0.8,0.2
		C61.7,8.7,61.5,8.7,61.2,8.5 M63.2,1c-0.4-0.2-0.8-0.2-1.2-0.2c-0.4,0-0.8,0.1-1.2,0.2c-0.4,0.2-0.8,0.4-1.1,0.8
		c-0.3,0.4-0.6,0.8-0.8,1.4s-0.3,1.3-0.3,2.1s0.1,1.5,0.3,2.1s0.5,1,0.8,1.4c0.3,0.4,0.7,0.6,1.1,0.8c0.4,0.2,0.8,0.2,1.2,0.2h0
		c0.4,0,0.8-0.1,1.2-0.2c0.4-0.2,0.8-0.4,1.1-0.8c0.3-0.4,0.6-0.8,0.8-1.4c0.2-0.6,0.3-1.3,0.3-2.1s-0.1-1.5-0.3-2.1
		c-0.2-0.6-0.5-1-0.8-1.4C64,1.4,63.6,1.1,63.2,1 M55.3,6.8c0,0.6-0.2,1.1-0.4,1.5c-0.3,0.3-0.7,0.5-1.4,0.5c-0.4,0-0.8-0.1-1.1-0.3
		s-0.5-0.5-0.7-0.8c-0.2-0.3-0.3-0.7-0.4-1.1c-0.1-0.4-0.1-0.8-0.1-1.2c0-0.4,0-0.8,0.1-1.2c0.1-0.4,0.2-0.8,0.4-1.1
		c0.2-0.3,0.5-0.6,0.7-0.8c0.3-0.2,0.7-0.3,1.1-0.3c0.3,0,0.6,0.1,0.8,0.1c0.2,0.1,0.4,0.2,0.5,0.3c0.1,0.1,0.2,0.3,0.3,0.6
		c0.1,0.2,0.1,0.5,0.1,0.8l0,0.3l1.1-0.2l-0.1-1.2V2.5c0-0.2,0-0.3,0-0.5c0-0.1,0-0.2,0.1-0.3c0-0.1,0-0.2,0.1-0.3l0.1-0.3l-1-0.3
		L55.4,1l-0.1,0.2c-0.6-0.3-1.2-0.4-1.8-0.4c-0.4,0-0.8,0.1-1.2,0.2c-0.4,0.2-0.8,0.4-1.2,0.8c-0.3,0.4-0.6,0.8-0.8,1.4
		C50.1,3.7,50,4.4,50,5.2c0,0.8,0.1,1.5,0.3,2.1c0.2,0.6,0.5,1.1,0.8,1.4c0.3,0.4,0.7,0.6,1.1,0.8c0.4,0.2,0.8,0.3,1.2,0.3h0
		c0.6,0,1.1-0.1,1.6-0.3s0.9-0.5,1.3-0.9l0.1-0.1v-2h-1.1V6.8z M38.1,2.1L39,2c0.1,0,0.1,0,0.2,0h0.2c0.3,0,0.6,0.1,0.9,0.2
		c0.3,0.1,0.5,0.3,0.7,0.6s0.4,0.7,0.5,1.1c0.1,0.5,0.2,1,0.2,1.7c0,0.5-0.1,1-0.2,1.3S41.2,7.6,41,7.9c-0.2,0.2-0.4,0.4-0.7,0.5
		c-0.3,0.1-0.5,0.2-0.8,0.2c-0.1,0-0.1,0-0.1,0c-0.1,0-0.1,0-0.1,0l-1.2-0.1C38.1,8.4,38.1,2.1,38.1,2.1z M40.8,1.3
		c-0.5-0.2-1-0.4-1.6-0.4c-0.4,0-0.7,0-1,0.1c-0.3,0.1-0.5,0.1-0.8,0.1c-0.2,0-0.4,0-0.6-0.1C36.7,1,36.5,1,36.3,1l-0.3,0L35.9,2
		L37,2.1v6.3l-1.1,0.2l0.2,1l0.3,0c0.2,0,0.4-0.1,0.6-0.1c0.2,0,0.4-0.1,0.6-0.1c0.3,0,0.6,0,0.8,0.1c0.3,0.1,0.6,0.1,0.9,0.1
		c0.4,0,0.8-0.1,1.2-0.2c0.4-0.1,0.8-0.3,1.2-0.6C42,8.5,42.3,8,42.5,7.5c0.2-0.5,0.3-1.2,0.3-2.1c0-0.6-0.1-1.2-0.2-1.7
		c-0.1-0.5-0.4-1-0.7-1.4C41.7,1.9,41.3,1.5,40.8,1.3 M28.8,2C29,2,29.2,2,29.4,2c0.2,0,0.5,0,0.6,0c0.4,0,0.8,0.1,1.1,0.3
		c0.3,0.2,0.5,0.5,0.5,1c0,0.4-0.1,0.6-0.2,0.8c-0.1,0.2-0.3,0.3-0.5,0.4c-0.2,0.1-0.5,0.2-0.8,0.2c-0.3,0-0.6,0.1-0.9,0.1h-0.4
		C28.8,4.7,28.8,2,28.8,2z M33.1,8.6l-2-3c0.5-0.2,0.9-0.5,1.2-0.9c0.3-0.4,0.5-0.9,0.5-1.5c0-0.4-0.1-0.8-0.2-1.1
		c-0.2-0.3-0.4-0.5-0.6-0.7c-0.2-0.2-0.5-0.3-0.8-0.4s-0.6-0.1-0.9-0.1c-0.3,0-0.7,0-1,0c-0.3,0-0.6,0-1,0h-0.1c0,0-0.1,0-0.1,0
		l-1.6-0.1V2l1.1,0.1v6.5h-1.1v1h3.6v-1h-1.3V5.8h1.2l2.5,3.8h1.7v-1H33.1z M19,0.9v1h2.2v6.6H19v1.1h5.5V8.6h-2.2V1.9h2.2v-1H19z
		 M13.7,0.9v1h1.1v2.7h-3.1V1.9h1.1v-1H9.5v1h1.1v6.6H9.5v1h3.4v-1h-1.1V5.7h3.1v2.9h-1.1v1h3.4v-1H16V1.9h1.1v-1H13.7z M0.5,0.9
		v3.3h1.1V2.9c0-0.3,0-0.5,0-0.6c0-0.1,0.1-0.2,0.1-0.2c0,0,0.1-0.1,0.2-0.1s0.3,0,0.6,0h1v6.6H1.7v1h4.8v-1H4.6V2h1
		c0.3,0,0.4,0,0.6,0c0.1,0,0.2,0.1,0.2,0.1c0,0,0.1,0.1,0.1,0.2c0,0.1,0,0.3,0,0.6v1.2h1.1V0.9C7.7,0.9,0.5,0.9,0.5,0.9z"/>
</g>
</svg>
